<svg xmlns="http://www.w3.org/2000/svg" xmlns:xlink="http://www.w3.org/1999/xlink" width="1920" height="1079.87" viewBox="0 0 1920 1079.87">
  <defs>
    <clipPath id="clip-path">
      <path id="Path_1614" data-name="Path 1614" d="M0,0H1920V1079.87H0Z"/>
    </clipPath>
  </defs>
  <g id="Mask_Group_2" data-name="Mask Group 2" opacity="0.029" clip-path="url(#clip-path)">
    <g id="Group_208" data-name="Group 208" transform="translate(-26.76 -81.605)">
      <path id="Path_1526" data-name="Path 1526" d="M811.71,365.59H595.624c-12.442,0-22.612,11.378-22.612,25.277v.165c0,13.909,10.178,25.277,22.612,25.277h18.618c11.209,1.461,20.026,12.026,20.026,24.927v.185c0,12.963-8.89,23.549-20.173,24.938H570.942c-12.433,0-22.612,11.378-22.612,25.277v.165c0,13.909,10.179,25.277,22.612,25.277H744.059c12.433,0,22.612-11.368,22.612-25.277v-.165c0-13.9-10.178-25.277-22.612-25.277H731.69c-11.062-1.615-19.713-12.15-19.713-24.938v-.185c0-12.726,8.549-23.22,19.529-24.927h80.2c12.442,0,22.612-11.368,22.612-25.277v-.165C834.331,376.968,824.152,365.59,811.71,365.59Z" transform="translate(-512.438 -365.59)"/>
      <path id="Path_1527" data-name="Path 1527" d="M745.683,365.59H583.768c-9.323,0-16.943,8.526-16.943,18.94v.123c0,10.422,7.627,18.94,16.943,18.94h13.95c8.4,1.095,15.005,9.011,15.005,18.678v.139c0,9.713-6.661,17.645-15.116,18.686H565.273c-9.316,0-16.943,8.526-16.943,18.94v.123c0,10.422,7.627,18.94,16.943,18.94H694.992c9.316,0,16.943-8.518,16.943-18.94v-.123c0-10.415-7.627-18.94-16.943-18.94h-9.268c-8.289-1.21-14.771-9.1-14.771-18.686v-.139c0-9.536,6.406-17.4,14.633-18.678h60.1c9.323,0,16.943-8.518,16.943-18.94v-.123C762.633,374.116,755.006,365.59,745.683,365.59Z" transform="translate(-191.255 -118.771)"/>
      <path id="Path_1528" data-name="Path 1528" d="M811.71,365.59H595.624c-12.442,0-22.612,11.378-22.612,25.277v.165c0,13.909,10.178,25.277,22.612,25.277h18.618c11.209,1.461,20.026,12.026,20.026,24.927v.185c0,12.963-8.89,23.549-20.173,24.938H570.942c-12.433,0-22.612,11.378-22.612,25.277v.165c0,13.909,10.179,25.277,22.612,25.277H744.059c12.433,0,22.612-11.368,22.612-25.277v-.165c0-13.9-10.178-25.277-22.612-25.277H731.69c-11.062-1.615-19.713-12.15-19.713-24.938v-.185c0-12.726,8.549-23.22,19.529-24.927h80.2c12.442,0,22.612-11.368,22.612-25.277v-.165C834.331,376.968,824.152,365.59,811.71,365.59Z" transform="translate(-548.33 245.505)"/>
      <path id="Path_1529" data-name="Path 1529" d="M811.71,365.59H595.624c-12.442,0-22.612,11.378-22.612,25.277v.165c0,13.909,10.178,25.277,22.612,25.277h18.618c11.209,1.461,20.026,12.026,20.026,24.927v.185c0,12.963-8.89,23.549-20.173,24.938H570.942c-12.433,0-22.612,11.378-22.612,25.277v.165c0,13.909,10.179,25.277,22.612,25.277H744.059c12.433,0,22.612-11.368,22.612-25.277v-.165c0-13.9-10.178-25.277-22.612-25.277H731.69c-11.062-1.615-19.713-12.15-19.713-24.938v-.185c0-12.726,8.549-23.22,19.529-24.927h80.2c12.442,0,22.612-11.368,22.612-25.277v-.165C834.331,376.968,824.152,365.59,811.71,365.59Z" transform="translate(145.353 -365.59)"/>
      <path id="Path_1530" data-name="Path 1530" d="M745.683,365.59H583.768c-9.323,0-16.943,8.526-16.943,18.94v.123c0,10.422,7.627,18.94,16.943,18.94h13.95c8.4,1.095,15.005,9.011,15.005,18.678v.139c0,9.713-6.661,17.645-15.116,18.686H565.273c-9.316,0-16.943,8.526-16.943,18.94v.123c0,10.422,7.627,18.94,16.943,18.94H694.992c9.316,0,16.943-8.518,16.943-18.94v-.123c0-10.415-7.627-18.94-16.943-18.94h-9.268c-8.289-1.21-14.771-9.1-14.771-18.686v-.139c0-9.536,6.406-17.4,14.633-18.678h60.1c9.323,0,16.943-8.518,16.943-18.94v-.123C762.633,374.116,755.006,365.59,745.683,365.59Z" transform="translate(466.537 -118.771)"/>
      <path id="Path_1531" data-name="Path 1531" d="M811.71,365.59H595.624c-12.442,0-22.612,11.378-22.612,25.277v.165c0,13.909,10.178,25.277,22.612,25.277h18.618c11.209,1.461,20.026,12.026,20.026,24.927v.185c0,12.963-8.89,23.549-20.173,24.938H570.942c-12.433,0-22.612,11.378-22.612,25.277v.165c0,13.909,10.179,25.277,22.612,25.277H744.059c12.433,0,22.612-11.368,22.612-25.277v-.165c0-13.9-10.178-25.277-22.612-25.277H731.69c-11.062-1.615-19.713-12.15-19.713-24.938v-.185c0-12.726,8.549-23.22,19.529-24.927h80.2c12.442,0,22.612-11.368,22.612-25.277v-.165C834.331,376.968,824.152,365.59,811.71,365.59Z" transform="translate(109.462 245.505)"/>
      <path id="Path_1532" data-name="Path 1532" d="M811.71,365.59H595.624c-12.442,0-22.612,11.378-22.612,25.277v.165c0,13.909,10.178,25.277,22.612,25.277h18.618c11.209,1.461,20.026,12.026,20.026,24.927v.185c0,12.963-8.89,23.549-20.173,24.938H570.942c-12.433,0-22.612,11.378-22.612,25.277v.165c0,13.909,10.179,25.277,22.612,25.277H744.059c12.433,0,22.612-11.368,22.612-25.277v-.165c0-13.9-10.178-25.277-22.612-25.277H731.69c-11.062-1.615-19.713-12.15-19.713-24.938v-.185c0-12.726,8.549-23.22,19.529-24.927h80.2c12.442,0,22.612-11.368,22.612-25.277v-.165C834.331,376.968,824.152,365.59,811.71,365.59Z" transform="translate(635.872 -365.59)"/>
      <path id="Path_1533" data-name="Path 1533" d="M745.683,365.59H583.768c-9.323,0-16.943,8.526-16.943,18.94v.123c0,10.422,7.627,18.94,16.943,18.94h13.95c8.4,1.095,15.005,9.011,15.005,18.678v.139c0,9.713-6.661,17.645-15.116,18.686H565.273c-9.316,0-16.943,8.526-16.943,18.94v.123c0,10.422,7.627,18.94,16.943,18.94H694.992c9.316,0,16.943-8.518,16.943-18.94v-.123c0-10.415-7.627-18.94-16.943-18.94h-9.268c-8.289-1.21-14.771-9.1-14.771-18.686v-.139c0-9.536,6.406-17.4,14.633-18.678h60.1c9.323,0,16.943-8.518,16.943-18.94v-.123C762.633,374.116,755.006,365.59,745.683,365.59Z" transform="translate(957.056 -118.771)"/>
      <path id="Path_1534" data-name="Path 1534" d="M811.71,365.59H595.624c-12.442,0-22.612,11.378-22.612,25.277v.165c0,13.909,10.178,25.277,22.612,25.277h18.618c11.209,1.461,20.026,12.026,20.026,24.927v.185c0,12.963-8.89,23.549-20.173,24.938H570.942c-12.433,0-22.612,11.378-22.612,25.277v.165c0,13.909,10.179,25.277,22.612,25.277H744.059c12.433,0,22.612-11.368,22.612-25.277v-.165c0-13.9-10.178-25.277-22.612-25.277H731.69c-11.062-1.615-19.713-12.15-19.713-24.938v-.185c0-12.726,8.549-23.22,19.529-24.927h80.2c12.442,0,22.612-11.368,22.612-25.277v-.165C834.331,376.968,824.152,365.59,811.71,365.59Z" transform="translate(599.98 245.505)"/>
      <path id="Path_1535" data-name="Path 1535" d="M811.71,365.59H595.624c-12.442,0-22.612,11.378-22.612,25.277v.165c0,13.909,10.178,25.277,22.612,25.277h18.618c11.209,1.461,20.026,12.026,20.026,24.927v.185c0,12.963-8.89,23.549-20.173,24.938H570.942c-12.433,0-22.612,11.378-22.612,25.277v.165c0,13.909,10.179,25.277,22.612,25.277H744.059c12.433,0,22.612-11.368,22.612-25.277v-.165c0-13.9-10.178-25.277-22.612-25.277H731.69c-11.062-1.615-19.713-12.15-19.713-24.938v-.185c0-12.726,8.549-23.22,19.529-24.927h80.2c12.442,0,22.612-11.368,22.612-25.277v-.165C834.331,376.968,824.152,365.59,811.71,365.59Z" transform="translate(-385.519 522.005)"/>
      <path id="Path_1536" data-name="Path 1536" d="M745.683,365.59H583.768c-9.323,0-16.943,8.526-16.943,18.94v.123c0,10.422,7.627,18.94,16.943,18.94h13.95c8.4,1.095,15.005,9.011,15.005,18.678v.139c0,9.713-6.661,17.645-15.116,18.686H565.273c-9.316,0-16.943,8.526-16.943,18.94v.123c0,10.422,7.627,18.94,16.943,18.94H694.992c9.316,0,16.943-8.518,16.943-18.94v-.123c0-10.415-7.627-18.94-16.943-18.94h-9.268c-8.289-1.21-14.771-9.1-14.771-18.686v-.139c0-9.536,6.406-17.4,14.633-18.678h60.1c9.323,0,16.943-8.518,16.943-18.94v-.123C762.633,374.116,755.006,365.59,745.683,365.59Z" transform="translate(-64.336 768.824)"/>
      <path id="Path_1538" data-name="Path 1538" d="M811.71,365.59H595.624c-12.442,0-22.612,11.378-22.612,25.277v.165c0,13.909,10.178,25.277,22.612,25.277h18.618c11.209,1.461,20.026,12.026,20.026,24.927v.185c0,12.963-8.89,23.549-20.173,24.938H570.942c-12.433,0-22.612,11.378-22.612,25.277v.165c0,13.909,10.179,25.277,22.612,25.277H744.059c12.433,0,22.612-11.368,22.612-25.277v-.165c0-13.9-10.178-25.277-22.612-25.277H731.69c-11.062-1.615-19.713-12.15-19.713-24.938v-.185c0-12.726,8.549-23.22,19.529-24.927h80.2c12.442,0,22.612-11.368,22.612-25.277v-.165C834.331,376.968,824.152,365.59,811.71,365.59Z" transform="translate(272.272 522.005)"/>
      <path id="Path_1539" data-name="Path 1539" d="M745.683,365.59H583.768c-9.323,0-16.943,8.526-16.943,18.94v.123c0,10.422,7.627,18.94,16.943,18.94h13.95c8.4,1.095,15.005,9.011,15.005,18.678v.139c0,9.713-6.661,17.645-15.116,18.686H565.273c-9.316,0-16.943,8.526-16.943,18.94v.123c0,10.422,7.627,18.94,16.943,18.94H694.992c9.316,0,16.943-8.518,16.943-18.94v-.123c0-10.415-7.627-18.94-16.943-18.94h-9.268c-8.289-1.21-14.771-9.1-14.771-18.686v-.139c0-9.536,6.406-17.4,14.633-18.678h60.1c9.323,0,16.943-8.518,16.943-18.94v-.123C762.633,374.116,755.006,365.59,745.683,365.59Z" transform="translate(593.456 768.824)"/>
      <path id="Path_1541" data-name="Path 1541" d="M811.71,365.59H595.624c-12.442,0-22.612,11.378-22.612,25.277v.165c0,13.909,10.178,25.277,22.612,25.277h18.618c11.209,1.461,20.026,12.026,20.026,24.927v.185c0,12.963-8.89,23.549-20.173,24.938H570.942c-12.433,0-22.612,11.378-22.612,25.277v.165c0,13.909,10.179,25.277,22.612,25.277H744.059c12.433,0,22.612-11.368,22.612-25.277v-.165c0-13.9-10.178-25.277-22.612-25.277H731.69c-11.062-1.615-19.713-12.15-19.713-24.938v-.185c0-12.726,8.549-23.22,19.529-24.927h80.2c12.442,0,22.612-11.368,22.612-25.277v-.165C834.331,376.968,824.152,365.59,811.71,365.59Z" transform="translate(762.791 522.005)"/>
      <path id="Path_1542" data-name="Path 1542" d="M745.683,365.59H583.768c-9.323,0-16.943,8.526-16.943,18.94v.123c0,10.422,7.627,18.94,16.943,18.94h13.95c8.4,1.095,15.005,9.011,15.005,18.678v.139c0,9.713-6.661,17.645-15.116,18.686H565.273c-9.316,0-16.943,8.526-16.943,18.94v.123c0,10.422,7.627,18.94,16.943,18.94H694.992c9.316,0,16.943-8.518,16.943-18.94v-.123c0-10.415-7.627-18.94-16.943-18.94h-9.268c-8.289-1.21-14.771-9.1-14.771-18.686v-.139c0-9.536,6.406-17.4,14.633-18.678h60.1c9.323,0,16.943-8.518,16.943-18.94v-.123C762.633,374.116,755.006,365.59,745.683,365.59Z" transform="translate(1083.975 768.824)"/>
      <path id="Path_1544" data-name="Path 1544" d="M811.71,365.59H595.624c-12.442,0-22.612,11.378-22.612,25.277v.165c0,13.909,10.178,25.277,22.612,25.277h18.618c11.209,1.461,20.026,12.026,20.026,24.927v.185c0,12.963-8.89,23.549-20.173,24.938H570.942c-12.433,0-22.612,11.378-22.612,25.277v.165c0,13.909,10.179,25.277,22.612,25.277H744.059c12.433,0,22.612-11.368,22.612-25.277v-.165c0-13.9-10.178-25.277-22.612-25.277H731.69c-11.062-1.615-19.713-12.15-19.713-24.938v-.185c0-12.726,8.549-23.22,19.529-24.927h80.2c12.442,0,22.612-11.368,22.612-25.277v-.165C834.331,376.968,824.152,365.59,811.71,365.59Z" transform="translate(1044.322 245.889)"/>
      <path id="Path_1545" data-name="Path 1545" d="M745.683,365.59H583.768c-9.323,0-16.943,8.526-16.943,18.94v.123c0,10.422,7.627,18.94,16.943,18.94h13.95c8.4,1.095,15.005,9.011,15.005,18.678v.139c0,9.713-6.661,17.645-15.116,18.686H565.273c-9.316,0-16.943,8.526-16.943,18.94v.123c0,10.422,7.627,18.94,16.943,18.94H694.992c9.316,0,16.943-8.518,16.943-18.94v-.123c0-10.415-7.627-18.94-16.943-18.94h-9.268c-8.289-1.21-14.771-9.1-14.771-18.686v-.139c0-9.536,6.406-17.4,14.633-18.678h60.1c9.323,0,16.943-8.518,16.943-18.94v-.123C762.633,374.116,755.006,365.59,745.683,365.59Z" transform="translate(1365.505 492.708)"/>
    </g>
  </g>
</svg>
