<svg xmlns="http://www.w3.org/2000/svg" width="232.462" height="96.466" viewBox="0 0 232.462 96.466"><g transform="translate(0 461)"><path d="M79.7-411.6,64.321-381.425l-20.9,10.49V-391.38l17.906-8.989c.022-.011.043-.025.064-.038l.02-.009.013-.01a1.07,1.07,0,0,0,.186-.152l.015-.012.012-.016a1.077,1.077,0,0,0,.14-.191l.009-.012.008-.02a1.083,1.083,0,0,0,.09-.225l0-.008,0-.018a1.072,1.072,0,0,0,.033-.256V-424.2a1.02,1.02,0,0,0-.04-.286l0-.012-.034-.077-.061-.151-.015-.02-.009-.021-.057-.069-.079-.108-.029-.024-.022-.027-.072-.05-.091-.074-.047-.021a1.054,1.054,0,0,0-1-.026l-1.925.966-7.9,3.967-2.153,1.08-4.963,2.492V-437.1l20.09-10.085L79.7-432.3ZM32.039-385.665l9.233-4.635v19.365l-9.233-4.635Zm-18.5-1.063,9.828,4.934.019.008c.022.011.044.019.066.028l.062.023c.022.007.045.013.067.019s.043.011.065.016l.067.01.067.007h.135l.067-.007.067-.01c.022,0,.044-.01.066-.016s.044-.011.065-.018.043-.016.064-.024.043-.017.064-.027l.02-.008,5.558-2.79v9.015l-16.349,8.207Zm-1.595-2.689-.047.021-.091.074-.072.05-.022.027-.029.024-.079.108-.057.069-.009.021-.015.021-.061.151-.034.077,0,.012a1.017,1.017,0,0,0-.04.286v21.114L2.152-372V-415.3l20.618,10.35v20.446l-7.9-3.967-1.925-.967a1.054,1.054,0,0,0-1,.026m7.634-35.716L39.941-414.91l-7.711,3.871-8.384,4.208L3.483-417.053Zm21.347-33.579,20.364,10.223L42.348-438.98,21.984-449.2Zm7.463,50.993-4.963,2.492v-9.015l4.963-2.492Zm11.385,4.635-9.233-4.635v-10.1l9.233-4.635ZM39.855-437.816l1.416.711v20.446L20.654-427.009v-20.446Zm9.609,31.973,8.979,4.507L43.424-393.8v-9.015ZM24.923-384.509v-20.446l1.914-.961,14.434-7.246v20.446l-1.33.668L29.886-387ZM81.5-433.567,64.424-449.284a1.072,1.072,0,0,0-.125-.1c-.016-.011-.033-.02-.05-.03s-.047-.03-.072-.043L41.406-460.886a1.072,1.072,0,0,0-.963,0L19.1-450.169c-.012.006-.022.013-.033.02s-.035.017-.052.027l-.025.018c-.017.011-.033.023-.049.035s-.044.034-.065.052l-.045.042q-.029.029-.056.059c-.014.016-.027.031-.039.048s-.032.043-.047.066-.023.034-.033.051-.026.048-.038.073-.018.036-.026.054-.02.053-.029.08-.013.036-.018.054-.014.062-.02.092-.007.032-.009.048a1.091,1.091,0,0,0-.01.145v22.194L.595-418.02.562-418c-.017.009-.035.017-.051.027l-.025.018-.049.035c-.023.017-.045.035-.066.053l-.044.041c-.02.019-.039.04-.057.06l-.039.046c-.017.022-.033.044-.048.067l-.032.05c-.014.024-.026.049-.039.074s-.018.035-.025.054-.02.054-.029.081-.013.035-.018.054-.014.062-.02.093c0,.016-.007.032-.009.048a1.094,1.094,0,0,0-.01.145v45.724a1.081,1.081,0,0,0,.595.966l11.385,5.716.085.03.082.037.048.008.045.016.087.007.086.015.048,0,.048,0,.086-.015.087-.007.045-.016.048-.008.082-.037.085-.03,18.02-9.046,10.9,5.474.02.008c.021.01.042.018.063.027s.042.017.064.025.044.012.065.018l.067.016.067.01c.023,0,.045.006.068.007s.045,0,.068,0,.045,0,.068,0,.045,0,.067-.007.045-.006.068-.01l.065-.016c.022-.006.045-.011.067-.018l.062-.024c.022-.009.045-.018.066-.028l.019-.008L65.6-379.65a1.078,1.078,0,0,0,.477-.474l15.654-30.721a1.079,1.079,0,0,0,.118-.492v-21.433a1.084,1.084,0,0,0-.349-.8" fill-rule="evenodd"/><path d="M441.942-284.9h9.731c6.152,0,9.172-3.412,9.172-9.675v-19.8c0-6.264-3.02-9.675-9.172-9.675h-9.731Zm9.619-33.556c1.957,0,3.132,1.007,3.132,3.8v20.357c0,2.8-1.175,3.8-3.132,3.8h-3.468v-27.963Z" transform="translate(-349.464 -108.298)"/><path d="M557.139-318.451h10.626v-5.593H550.987V-284.9h16.778v-5.593H557.139v-11.465h8.445v-5.593h-8.445Z" transform="translate(-435.691 -108.298)"/><path d="M647.8-324.044h-6.208l6.04,39.149H656.8l6.04-39.149h-5.649l-4.642,31.934h-.112Z" transform="translate(-507.336 -108.298)"/><path d="M765.843-324.044h-9.06V-284.9h6.152V-299.6h2.908c6.152,0,9.172-3.411,9.172-9.675v-5.089C775.015-320.632,771.995-324.044,765.843-324.044Zm0,5.593c1.957,0,3.02.895,3.02,3.691v5.872c0,2.8-1.063,3.691-3.02,3.691h-2.908v-13.255Z" transform="translate(-598.423 -108.298)"/><path d="M857.542-284.894h6.152v-39.149h-6.152Z" transform="translate(-678.098 -108.298)"/><path d="M927.45-284.9a11.53,11.53,0,0,1-.671-4.754v-6.04c0-4.083-1.007-6.991-4.083-8.277v-.112c2.74-1.286,4.027-3.859,4.027-7.886v-3.076c0-6.04-2.74-9-9.116-9h-9.284V-284.9h6.152v-15.939H916.6c2.8,0,4.027,1.342,4.027,4.978v6.152c0,3.188.224,3.8.559,4.81Zm-10.011-33.556c2.181,0,3.132,1.23,3.132,4.027v3.859c0,3.132-1.4,4.139-3.691,4.139h-2.4v-12.024Z" transform="translate(-718.253 -108.298)"/><path d="M1023.279-324.044h-9L1008.01-284.9h5.65l1.063-7.1h7.55l1.063,7.1h6.206Zm-4.865,6.935h.111l2.909,19.8h-5.928Z" transform="translate(-797.08 -108.298)"/></g></svg>