<?xml version="1.0" encoding="utf-8"?>
<!-- Generator: Adobe Illustrator 25.0.0, SVG Export Plug-In . SVG Version: 6.00 Build 0)  -->
<svg version="1.1" id="Layer_1" xmlns="http://www.w3.org/2000/svg" xmlns:xlink="http://www.w3.org/1999/xlink" x="0px" y="0px"
	 viewBox="0 0 540 155.7" style="enable-background:new 0 0 540 155.7;" xml:space="preserve">
<style type="text/css">
	.st0{fill:#FFCE00;}
	.st1{enable-background:new    ;}
	.st2{fill:#263238;}
</style>
<g transform="translate(-405 -274.628)">
	<g transform="translate(405 274.628)">
		<g>
			<path d="M347.8,121.1l21.5,12.5L348,146L347.8,121.1z"/>
		</g>
		<g>
			<path class="st0" d="M57.6,155.6L58.1,0L0.5,0.1L0,155.7L57.6,155.6z"/>
		</g>
		<g transform="translate(34.389 20.945)">
			<g>
				<path d="M18.8,10.9c3.8,0,6.1,2,6.1,7.4v39.7c0,5.5-2.3,7.4-6.1,7.4H12V10.9H18.8z M0,76.4h19c12,0,17.9-6.7,17.9-18.9V18.9
					C36.9,6.7,31,0,19,0H0L0,76.4z"/>
			</g>
			<g>
				<path d="M56.5,10.9h20.7V0H44.5v76.4h32.8V65.5H56.5V43.1H73V32.2H56.5V10.9z"/>
			</g>
			<g>
				<path d="M93.7,0H81.5l11.8,76.4h17.9L123,0h-11l-9.1,62.3h-0.2L93.7,0z"/>
			</g>
			<g>
				<path d="M146.3,10.9c3.8,0,5.9,1.7,5.9,7.2v11.5c0,5.5-2.1,7.2-5.9,7.2h-5.7V10.9H146.3z M146.3,0h-17.7v76.4h12V47.7h5.7
					c12,0,17.9-6.7,17.9-18.9v-9.9C164.2,6.7,158.3,0,146.3,0z"/>
			</g>
			<g>
				<rect x="169.7" y="0" width="12" height="76.4"/>
			</g>
			<g>
				<path d="M208.3,10.9c4.3,0,6.1,2.4,6.1,7.9v7.5c0,6.1-2.7,8.1-7.2,8.1h-4.7V10.9H208.3z M227.8,76.4c-1.2-2.8-1.3-5.6-1.3-9.3
					V55.3c0-8-2-13.6-8-16.2V39c5.3-2.5,7.9-7.5,7.9-15.4v-6c0-11.8-5.3-17.6-17.8-17.6h-18.1v76.4h12V45.3h4.1
					c5.5,0,7.9,2.6,7.9,9.7v12c0,6.2,0.4,7.4,1.1,9.4L227.8,76.4z"/>
			</g>
			<g>
				<path d="M251.5,13.5h0.2l5.7,38.6h-11.6L251.5,13.5z M261,0h-17.6l-12.2,76.4h11l2.1-13.9H259l2.1,13.9h12.1L261,0z"/>
			</g>
		</g>
		<g transform="translate(19.885 93.56)">
			<g transform="translate(0 0.831)">
				
					<image style="overflow:visible;opacity:0.1;enable-background:new    ;" width="69" height="68" xlink:href="89BAB3F3ABD1F3D2.png"  transform="matrix(0.8311 0 0 0.8311 0 3.004661e-05)">
				</image>
				<g transform="translate(13.374 12.577)">
					<g>
						<path d="M7.8,30.5h-9.1L5.2-1h24.9l-1.6,7.5H12.7l-1.2,5.8h14L24,19.7H10L7.8,30.5z M1.2,28.5h5l2.2-10.7h13.9l0.7-3.5h-14
							l1.8-8.9L11,4.5h15.9L27.6,1H6.9L1.2,28.5z"/>
					</g>
				</g>
			</g>
			<g transform="translate(28.256 0.831)">
				
					<image style="overflow:visible;opacity:0.1;enable-background:new    ;" width="68" height="68" xlink:href="89BAB3F3ABD1F3D6.png"  transform="matrix(0.8311 0 0 0.8311 0 0)">
				</image>
				<g transform="translate(12.667 12.577)">
					<g>
						<path d="M24.2,30.5H-1.2L5.2-1h24.9l-1.6,7.5H12.7l-0.9,4.4h14l-1.5,7.3H10.3l-1,4.8h16.5L24.2,30.5z M1.2,28.5h21.3l0.7-3.5
							H6.8l1.8-8.8h14.1l0.7-3.3h-14l1.5-7.5V4.5h16L27.6,1H6.9L1.2,28.5z"/>
					</g>
				</g>
			</g>
			<g transform="translate(54.85)">
				
					<image style="overflow:visible;opacity:0.1;enable-background:new    ;" width="68" height="70" xlink:href="89BAB3F3ABD1F3D1.png"  transform="matrix(0.8311 0 0 0.8311 5.792346e-05 0)">
				</image>
				<g transform="translate(13.424 12.909)">
					<g>
						<path d="M12.5,31.5c-0.1,0-0.3,0-0.4,0c-2.4,0-4.7-0.3-7-0.9C3,30,1.1,29.2-0.6,28l-0.7-0.5l3.8-7l0.9,0.6
							c1.3,0.9,2.8,1.7,4.4,2.1c1.6,0.5,3.3,0.8,5,0.8c0,0,0,0,0,0c1.5,0.1,2.9-0.2,4.1-0.8c0.7-0.3,1.1-0.9,1.1-1.6
							c0-0.5-0.3-0.9-0.7-1.1c-1.4-0.6-2.7-1.1-4.1-1.5c-1.7-0.5-3.3-1-4.9-1.7c-1.4-0.6-2.6-1.5-3.6-2.6C3.6,13.4,3,11.7,3.1,9.9
							c0-2,0.6-4.1,1.9-5.8C6.4,2.3,8.2,1,10.3,0.3c2.4-0.9,5-1.3,7.6-1.3c2,0,4,0.2,6,0.7c1.7,0.4,3.4,1.1,4.9,2l0.8,0.5l-3.6,7.1
							l-0.9-0.6C24,7.9,22.9,7.3,21.6,7c-1.4-0.4-2.7-0.5-4.1-0.5c-1.5-0.1-3,0.2-4.2,0.9c-0.7,0.3-1.2,1-1.2,1.8
							c0,0.3,0.1,0.6,0.4,0.8c0.5,0.4,1,0.7,1.5,0.9c0.7,0.3,1.8,0.6,3.1,0.9c1.6,0.4,3.3,0.9,4.9,1.6c1.4,0.6,2.6,1.4,3.5,2.5
							c1.1,1.3,1.6,3,1.6,4.6c0,2.1-0.6,4.2-1.9,5.8c-1.4,1.8-3.2,3.1-5.3,3.8C17.4,31,15,31.5,12.5,31.5z M12.1,29.5
							c2.4,0.1,4.8-0.3,7-1.2c1.8-0.6,3.3-1.7,4.4-3.2c1-1.3,1.5-3,1.5-4.6c0.1-1.3-0.3-2.4-1.1-3.3c-0.7-0.8-1.7-1.5-2.8-2
							c-1.5-0.6-3-1.1-4.6-1.5c-1.4-0.4-2.5-0.7-3.2-1c-0.8-0.3-1.5-0.7-2.2-1.2C10.4,10.9,10,10,10,9.1c0-1.5,0.9-2.9,2.3-3.5
							c1.6-0.8,3.4-1.2,5.2-1.1c1.5,0,3.1,0.2,4.6,0.6c1.1,0.3,2.1,0.7,3.1,1.2L27,2.9c-1.1-0.6-2.3-1-3.5-1.3
							C21.6,1.2,19.8,1,17.9,1c-2.4-0.1-4.7,0.3-6.9,1.2C9.2,2.8,7.7,3.9,6.6,5.3c-1,1.3-1.5,3-1.5,4.6c-0.1,1.3,0.3,2.5,1.1,3.5
							C7,14.3,8,15.1,9,15.5c1.5,0.6,3.1,1.1,4.7,1.6c1.5,0.4,3,0.9,4.4,1.6c1.1,0.5,1.9,1.6,1.9,2.9c0,1.5-0.9,2.8-2.3,3.4
							c-1.5,0.7-3.3,1.1-5,1c0,0,0,0,0,0c-1.8,0-3.7-0.3-5.5-0.8c-1.4-0.4-2.7-1-4-1.8l-1.9,3.5c1.3,0.8,2.7,1.4,4.2,1.7l0,0
							C7.7,29.2,9.8,29.5,12.1,29.5z"/>
					</g>
				</g>
			</g>
			<g transform="translate(85.599 0.831)">
				
					<image style="overflow:visible;opacity:0.1;enable-background:new    ;" width="66" height="68" xlink:href="89BAB3F3ABD1F3D3.png"  transform="matrix(0.8311 0 0 0.8311 5.747278e-05 0)">
				</image>
				<g transform="translate(12.817 12.585)">
					<g>
						<path d="M12.6,30.5h-9L8.4,6.6h-9.7L0.4-1h28.4l-1.6,7.6h-9.6L12.6,30.5z M6,28.5H11l4.9-23.9h9.6L26.2,1H2L1.2,4.6h9.7
							L6,28.5z"/>
					</g>
				</g>
			</g>
			<g transform="translate(110.531 0.831)">
				
					<image style="overflow:visible;opacity:0.1;enable-background:new    ;" width="49" height="68" xlink:href="89BAB3F3ABD1F3D0.png"  transform="matrix(0.8311 0 0 0.8311 5.767932e-05 0)">
				</image>
				<g transform="translate(13.074 12.585)">
					<g>
						<path d="M7.8,30.5h-9.1L5.2-1h9.1L7.8,30.5z M1.2,28.5h5L11.8,1h-5L1.2,28.5z"/>
					</g>
				</g>
			</g>
			<g transform="translate(126.321 0.831)">
				
					<image style="overflow:visible;opacity:0.1;enable-background:new    ;" width="74" height="68" xlink:href="89BAB3F3ABD1F3DE.png"  transform="matrix(0.8311 0 0 0.8311 0 1.616537e-04)">
				</image>
				<g transform="translate(13.332 12.585)">
					<g>
						<path d="M14.4,30.5H6.2L-1.3-1H8l4.5,19.5L25.2-1h9.6L14.4,30.5z M7.8,28.5h5.5L31.2,1h-4.9L11.6,23.5L6.4,1H1.3L7.8,28.5z"/>
					</g>
				</g>
			</g>
			<g transform="translate(150.422 0.831)">
				
					<image style="overflow:visible;opacity:0.1;enable-background:new    ;" width="75" height="68" xlink:href="89BAB3F3ABD1F3D5.png"  transform="matrix(0.8311 0 0 0.8311 0 1.864492e-04)">
				</image>
				<g transform="translate(13.723 12.585)">
					<g>
						<path d="M35.1,30.5h-9.1l-1.4-6.3H11.9L8,30.5h-9.9L19-1h8.2L35.1,30.5z M27.7,28.5h4.9L25.7,1h-5.6L1.9,28.5h5l3.9-6.3h15.4
							L27.7,28.5z M12.8,19l9.4-15l3.3,15L12.8,19z M21.3,9.2L16.4,17l6.6,0L21.3,9.2z"/>
					</g>
				</g>
			</g>
			<g transform="translate(187.819 0.831)">
				
					<image style="overflow:visible;opacity:0.1;enable-background:new    ;" width="62" height="68" xlink:href="89BAB3F3ABD1F3D7.png"  transform="matrix(0.8311 0 0 0.8311 1.759491e-04 0)">
				</image>
				<g transform="translate(13.34 12.585)">
					<g>
						<path d="M22.9,30.5H-1.2L5.2-1h9.1L9.4,22.9h15.1L22.9,30.5z M1.2,28.5h20.1l0.7-3.6H6.9L11.8,1h-5L1.2,28.5z"/>
					</g>
				</g>
			</g>
			<g>
				<path class="st0" d="M246.1,34h12.7l-1.1,5.6h-22.9l0.9-4.4l13.8-10.5c1.3-1,2.5-2.1,3.5-3.3c0.6-0.8,1-1.8,1-2.8
					c0-0.9-0.4-1.8-1.1-2.4c-1-0.6-2.1-1-3.3-0.9c-1.2,0-2.4,0.3-3.5,0.8c-1.1,0.5-2.1,1.3-2.9,2.3l-4.7-3.3
					c1.3-1.7,3.1-3.1,5.1-3.9c2.2-1,4.6-1.5,7.1-1.5c1.9,0,3.8,0.3,5.5,1c1.5,0.6,2.8,1.6,3.7,2.8c0.9,1.2,1.3,2.6,1.3,4.1
					c0,1.8-0.5,3.6-1.6,5.1c-1.5,2.1-3.3,3.8-5.4,5.3L246.1,34z"/>
			</g>
			<g>
				<path class="st0" d="M265.9,37.1c-2-2-2.9-4.7-2.9-8.2c0-3.3,0.6-6.7,2-9.7c1.2-2.8,3.1-5.2,5.6-7c2.4-1.7,5.2-2.6,8.2-2.6
					c3-0.2,5.8,0.9,8,3c2,2,2.9,4.7,2.9,8.2c0,3.3-0.6,6.7-2,9.7c-1.2,2.8-3.1,5.2-5.6,7c-2.4,1.7-5.2,2.6-8.2,2.6
					C271,40.2,268.1,39.1,265.9,37.1z M278.9,32.2c1.3-1.5,2.2-3.3,2.8-5.2c0.6-2,0.9-4,0.9-6c0.1-1.5-0.3-3-1.2-4.2
					c-0.8-0.9-2.1-1.4-3.3-1.4c-1.7,0-3.3,0.8-4.3,2.1c-1.3,1.5-2.2,3.3-2.8,5.2c-0.6,2-0.9,4-0.9,6c-0.1,1.5,0.3,3,1.2,4.2
					c0.8,0.9,2.1,1.4,3.3,1.4C276.2,34.3,277.8,33.5,278.9,32.2L278.9,32.2z"/>
			</g>
			<g>
				<path class="st0" d="M302.3,9c0.7,0.7,1.1,1.7,1.1,2.7c0,0.6-0.1,1.2-0.3,1.7c-0.3,0.7-0.7,1.4-1.1,2l-4.3,6.8h-4.3l3.3-6.8
					c-0.5-0.3-0.9-0.8-1.2-1.3c-0.3-0.6-0.5-1.2-0.4-1.8c0-1.2,0.4-2.3,1.3-3.2c0.9-0.8,2-1.3,3.2-1.2C300.5,7.9,301.5,8.3,302.3,9z
					"/>
			</g>
			<g>
				<path d="M260.1,43h-24.9l1.2-6l14.1-10.7c1.2-0.9,2.3-2,3.3-3.2c0.5-0.6,0.7-1.4,0.7-2.2c0-0.6-0.3-1.2-0.7-1.5
					c-0.7-0.5-1.7-0.8-2.6-0.7c-1.1,0-2.2,0.2-3.1,0.7c-1,0.5-1.9,1.2-2.6,2l-0.6,0.7l-6.3-4.5l0.6-0.8c1.4-1.9,3.3-3.3,5.5-4.2
					c2.4-1,4.9-1.6,7.5-1.5c2,0,4,0.3,5.9,1.1c1.6,0.6,3.1,1.7,4.1,3.1c1,1.4,1.5,3,1.5,4.7c0,2-0.6,4-1.7,5.7
					c-1.6,2.2-3.5,4-5.7,5.6l-5.6,4.3h10.9L260.1,43z M237.6,41h20.8l0.7-3.6h-14.4l10.4-7.9c2-1.4,3.8-3.1,5.2-5.1
					c0.9-1.3,1.4-2.9,1.4-4.5c0-1.3-0.4-2.5-1.1-3.5c-0.8-1.1-2-2-3.3-2.5c-1.7-0.7-3.4-1-5.2-0.9c-2.4,0-4.6,0.4-6.7,1.4
					c-1.5,0.7-2.9,1.6-4,2.8l3.1,2.2c0.8-0.8,1.7-1.4,2.6-1.8c1.2-0.6,2.6-0.9,3.9-0.9c1.3-0.1,2.7,0.3,3.9,1c1,0.8,1.6,2,1.6,3.2
					c0,1.2-0.4,2.4-1.2,3.4c-1.1,1.3-2.3,2.5-3.7,3.5l-13.5,10.3L237.6,41z"/>
			</g>
			<g>
				<path d="M275,43.6c-3,0-5.9-1.2-8.1-3.3l0,0c-2.1-2.2-3.2-5.2-3.2-8.9c0-3.5,0.7-6.9,2.1-10.1c1.3-2.9,3.3-5.5,5.9-7.4
					c2.5-1.8,5.6-2.8,8.8-2.8c3.2-0.2,6.3,1,8.7,3.2c2.2,2.2,3.2,5.2,3.2,8.9c0,3.5-0.7,7-2.1,10.1c-1.3,2.9-3.3,5.5-5.9,7.4
					c-2.5,1.8-5.6,2.8-8.8,2.8C275.4,43.6,275.2,43.6,275,43.6z M268.3,38.9c1.9,1.8,4.6,2.8,7.2,2.7c2.8,0,5.4-0.8,7.6-2.4
					c2.3-1.7,4.1-4,5.3-6.6c1.3-2.9,2-6.1,1.9-9.3c0-3.2-0.9-5.7-2.6-7.5c-1.9-1.8-4.6-2.8-7.2-2.7c-2.8,0-5.4,0.8-7.6,2.4
					c-2.3,1.7-4.1,4-5.3,6.6c-1.3,3-2,6.1-1.9,9.3C265.7,34.6,266.5,37.1,268.3,38.9z M275.9,37.8c-1.4,0-2.8-0.6-3.8-1.7l-0.1-0.1
					c-1-1.4-1.5-3.1-1.4-4.9c0-2.1,0.3-4.2,1-6.3c0.6-2,1.6-3.9,3-5.6c1.2-1.5,3.1-2.4,5.1-2.5c1.5-0.1,3,0.5,4.1,1.7l0.1,0.1
					c1,1.4,1.5,3.1,1.4,4.9c0,2.1-0.3,4.2-1,6.3c-0.6,2-1.6,3.9-3,5.6l0,0c-1.2,1.6-3.1,2.5-5.1,2.5C276.1,37.8,276,37.8,275.9,37.8
					z M273.7,34.8c0.6,0.7,1.5,1,2.5,1c1.5,0,2.7-0.6,3.6-1.7l0.3,0.2l-0.3-0.2c1.2-1.4,2.1-3.1,2.6-4.9c0.6-1.9,0.9-3.8,0.9-5.8
					c0.1-1.3-0.2-2.5-1-3.6c-0.6-0.7-1.6-1.1-2.5-1c-1.4,0-2.7,0.6-3.6,1.7c-1.2,1.5-2.1,3.1-2.6,4.9c-0.6,1.9-0.9,3.8-0.9,5.8
					C272.6,32.5,272.9,33.8,273.7,34.8z"/>
			</g>
			<g>
				<path d="M299.9,25.8h-6.4l3.6-7.5c-0.3-0.3-0.6-0.7-0.9-1.1c-0.4-0.7-0.6-1.5-0.6-2.3c0-1.4,0.5-2.9,1.6-3.9
					c1.1-1,2.5-1.5,3.9-1.5c1.3,0,2.5,0.4,3.5,1.3l0,0c0.9,0.9,1.5,2.2,1.4,3.5c0,0.7-0.1,1.4-0.4,2c-0.3,0.8-0.8,1.6-1.3,2.3
					L299.9,25.8z M296.7,23.8h2.1l4-6.3c0.4-0.6,0.8-1.3,1.1-1.9c0.2-0.4,0.2-0.8,0.2-1.3c0-0.8-0.3-1.5-0.8-2
					c-0.6-0.5-1.3-0.8-2.1-0.8c-1,0-1.9,0.3-2.5,0.9c-0.7,0.6-1,1.5-1,2.4c0,0.5,0.1,1,0.3,1.4c0.2,0.4,0.5,0.7,0.9,1l0.7,0.5
					L296.7,23.8z"/>
			</g>
		</g>
	</g>
	<g transform="translate(627 292.541)">
		<g transform="translate(186)">
			<g transform="translate(-1)">
				<g transform="translate(0)">
					<g>
						<path class="st0" d="M12.6,72c-4-2.2-7.2-5.6-9.3-9.7C1,57.6-0.2,52.4,0,47.2C-0.1,38.9,1.5,30.6,4.8,23
							c2.8-6.7,7.4-12.5,13.3-16.9c5.5-4,12.3-6.2,19.1-6.1c4.9-0.1,9.7,1,14.1,3.3c4,2.2,7.2,5.6,9.3,9.7c2.3,4.7,3.4,9.9,3.3,15.2
							c0.1,8.3-1.5,16.5-4.8,24.1c-2.9,6.7-7.4,12.5-13.3,16.9c-5.5,4-12.3,6.2-19.1,6.1C21.7,75.5,16.9,74.3,12.6,72z M35.4,51.4
							c1.9-3.4,3.2-7,4-10.9c0.8-3.8,1.3-7.8,1.3-11.7c0-6.2-1.9-9.4-5.8-9.4c-2.5,0-4.6,1.5-6.4,4.5c-1.9,3.4-3.2,7-4,10.9
							c-0.8,3.8-1.3,7.8-1.3,11.7c0,6.2,1.9,9.4,5.8,9.4C31.5,55.9,33.6,54.4,35.4,51.4L35.4,51.4z"/>
					</g>
					<g transform="translate(61.333 1.658)">
						<g>
							<path class="st0" d="M35.9,18.3L34,25.4h1.8c8.3,0,14.6,1.7,19,5.1c4.4,3.4,6.6,8.5,6.6,15.1c0.1,5.3-1.5,10.6-4.5,14.9
								c-3.1,4.4-7.5,7.7-12.4,9.7c-5.7,2.3-11.8,3.4-17.9,3.3c-4.9,0-9.7-0.6-14.4-1.9C7.8,70.7,3.7,68.8,0,66.2l10.5-16.9
								c2.6,1.7,5.5,3,8.6,3.9c2.9,0.9,6,1.3,9,1.3c3.2,0,5.7-0.5,7.4-1.6c1.6-0.9,2.6-2.6,2.6-4.5c0.1-1.5-0.7-2.8-2-3.5
								c-1.3-0.8-3.5-1.2-6.6-1.2H8.5L20.3,0H66l-3.5,18.3L35.9,18.3L35.9,18.3z"/>
						</g>
					</g>
				</g>
				<g transform="translate(2.845 2.283)">
					<g>
						<path d="M27.8,77.6c-5.1,0.1-10.1-1.1-14.6-3.5l0,0C9,71.8,5.6,68.3,3.4,64C1,59.1-0.1,53.7,0,48.3
							c-0.1-8.5,1.6-16.8,4.9-24.6c2.9-6.9,7.7-12.9,13.7-17.3C24.4,2.2,31.3-0.1,38.4,0C43.5-0.1,48.5,1.1,53,3.5
							c4.2,2.3,7.6,5.9,9.7,10.1c2.4,4.9,3.6,10.3,3.4,15.7c0.1,8.5-1.6,16.8-4.9,24.6c-2.9,6.9-7.7,12.9-13.7,17.3
							C41.8,75.5,34.9,77.7,27.8,77.6z M38.4,2.3c-6.6-0.1-13.1,2-18.5,5.9C14.2,12.4,9.8,18.1,7,24.6c-3.2,7.5-4.8,15.5-4.7,23.7
							c-0.1,5.1,0.9,10.1,3.2,14.7c2,3.9,5,7.1,8.8,9.2l0,0c4.2,2.2,8.8,3.3,13.5,3.2c6.6,0.1,13.1-2,18.5-5.9
							c5.7-4.2,10.2-9.9,12.9-16.4c3.2-7.5,4.8-15.5,4.7-23.7c0.1-5.1-0.9-10.1-3.2-14.7c-2-3.9-5-7.1-8.8-9.2
							C47.7,3.3,43.1,2.2,38.4,2.3z M30.1,58.2c-3.2,0-6.9-1.8-6.9-10.5c0-4,0.5-8,1.4-11.9c0.8-3.9,2.1-7.7,4.1-11.2
							c2-3.4,4.5-5.1,7.4-5.1c3.2,0,6.9,1.8,6.9,10.5c0,4-0.5,8-1.4,11.9c-0.8,3.9-2.1,7.7-4.1,11.2l0,0
							C35.5,56.4,33,58.2,30.1,58.2L30.1,58.2z M36,21.7c-2.1,0-3.8,1.3-5.4,4c-1.8,3.3-3.1,6.8-3.9,10.5c-0.8,3.8-1.3,7.6-1.3,11.4
							c0,8.2,3.5,8.2,4.7,8.2c2.1,0,3.8-1.3,5.4-4l0,0c1.8-3.3,3.1-6.8,3.9-10.5c0.8-3.8,1.3-7.6,1.3-11.4
							C40.7,21.7,37.2,21.7,36,21.7L36,21.7z"/>
					</g>
					<g transform="translate(60.935 1.641)">
						<g>
							<path d="M28.1,76c-5,0-9.9-0.6-14.7-1.9c-4.5-1.2-8.7-3.2-12.5-5.8L0,67.6l11.7-18.8l1,0.6c2.5,1.7,5.3,2.9,8.2,3.8
								c2.8,0.8,5.8,1.3,8.7,1.3c3,0,5.3-0.5,6.8-1.4c1.3-0.7,2.1-2.1,2-3.5c0.1-1.1-0.5-2.1-1.4-2.6c-0.8-0.5-2.4-1-6-1H8.6L21,0
								h48l-4,20.6H38.3L37,25.4h0.3c8.5,0,15.1,1.8,19.7,5.4c4.7,3.6,7.1,9,7.1,16c0.1,5.6-1.5,11-4.7,15.6
								c-3.3,4.5-7.7,8-12.9,10.1C40.6,74.9,34.4,76.1,28.1,76z M3.1,67c3.3,2.2,7,3.9,10.9,4.9c4.6,1.2,9.3,1.8,14.1,1.8
								c6,0.1,11.9-1,17.5-3.3c4.8-1.9,8.9-5.2,11.9-9.3c2.9-4.2,4.4-9.2,4.3-14.3c0-6.3-2-11-6.2-14.2c-4.2-3.3-10.4-4.9-18.3-4.9
								h-3.2l2.5-9.4h26.6l3.1-16.1H22.7L11.6,43.8H31c3.3,0,5.7,0.4,7.2,1.3c1.6,0.9,2.6,2.7,2.5,4.5c0,2.2-1.1,4.3-3.1,5.4
								c-1.9,1.2-4.5,1.8-8,1.8c-3.2,0-6.3-0.5-9.4-1.4c-2.8-0.8-5.4-2-7.9-3.4L3.1,67z"/>
						</g>
					</g>
				</g>
			</g>
			<g class="st1">
				<path class="st2" d="M-0.2,89.8H7c4.5,0,6.7,2.5,6.7,7.1v14.5c0,4.6-2.2,7.1-6.7,7.1h-7.1V89.8z M4.3,93.9v20.5h2.5
					c1.4,0,2.3-0.7,2.3-2.8V96.6c0-2-0.9-2.8-2.3-2.8H4.3z"/>
				<path class="st2" d="M21.1,101.9h6.2v4.1h-6.2v8.4h7.8v4.1H16.6V89.8h12.3v4.1h-7.8V101.9z"/>
				<path class="st2" d="M44.2,89.8v4l-8.6,20.6h8.6v4.1H30.9v-4l8.6-20.6h-8.2v-4.1H44.2z"/>
				<path class="st2" d="M51.3,101.9h6.2v4.1h-6.2v8.4h7.8v4.1H46.8V89.8h12.3v4.1h-7.8V101.9z"/>
				<path class="st2" d="M71.4,110.1L71.4,110.1l3.1-20.4h6.3v28.7h-4.3V97.9h-0.1l-3,20.6h-4.3l-3.3-20.3h-0.1v20.3h-3.9V89.8h6.3
					L71.4,110.1z"/>
				<path class="st2" d="M97.6,96.4v1c0,3-0.9,4.8-2.9,5.7v0.1c2.4,0.9,3.4,3.1,3.4,6.1v2.3c0,4.4-2.3,6.8-6.8,6.8h-7.1V89.8h6.8
					C95.6,89.8,97.6,91.9,97.6,96.4z M88.6,93.9v7.6h1.8c1.7,0,2.7-0.7,2.7-3v-1.6c0-2-0.7-3-2.3-3H88.6z M88.6,105.5v8.8h2.6
					c1.5,0,2.3-0.7,2.3-2.8V109c0-2.7-0.9-3.5-2.9-3.5H88.6z"/>
				<path class="st2" d="M110.2,118.5c-0.2-0.7-0.4-1.2-0.4-3.5v-4.5c0-2.7-0.9-3.6-3-3.6h-1.6v11.7h-4.5V89.8h6.8
					c4.7,0,6.7,2.2,6.7,6.6v2.3c0,3-0.9,4.8-3,5.8v0.1c2.3,0.9,3,3.1,3,6.1v4.4c0,1.4,0,2.4,0.5,3.5H110.2z M105.2,93.9v8.8h1.8
					c1.7,0,2.7-0.7,2.7-3v-2.8c0-2-0.7-3-2.3-3H105.2z"/>
				<path class="st2" d="M116.8,96.6c0-4.6,2.4-7.2,6.8-7.2c4.4,0,6.8,2.6,6.8,7.2v14.9c0,4.6-2.4,7.2-6.8,7.2
					c-4.4,0-6.8-2.6-6.8-7.2V96.6z M121.4,111.9c0,2,0.9,2.8,2.3,2.8c1.4,0,2.3-0.8,2.3-2.8V96.4c0-2-0.9-2.8-2.3-2.8
					c-1.4,0-2.3,0.8-2.3,2.8V111.9z"/>
			</g>
		</g>
	</g>
</g>
</svg>
