<svg xmlns="http://www.w3.org/2000/svg" width="850" height="596.669" viewBox="0 0 850 596.669"><g transform="translate(-1055 -409.332)"><g transform="translate(1055 431.896)"><g transform="translate(400.136)"><path d="M278.1,489.28c3.54,1.191,104.867,1.549,108.748-.885,1.481-.919,2.383-15.674,2.978-33.526.136-3.863.238-7.845.34-11.913l8.2-54.033-67.733-.442-6.4,54.067.255,11.913s-38.853,17.223-42.818,20.337S274.579,488.072,278.1,489.28Z" transform="translate(-206.029 46.348)" fill="#eb9481"/><path d="M278.1,466.975c3.54,1.191,104.867,1.549,108.748-.885,1.787-1.123,2.774-22.668,3.319-45.422l-65.929-.408.255,11.913S285.641,449.4,281.675,452.51,274.579,465.767,278.1,466.975Z" transform="translate(-206.029 68.652)" fill="#fff"/><path d="M278.1,462.077c3.54,1.191,104.867,1.549,108.748-.885,1.481-.919,2.383-15.674,2.978-33.526l-65.334-.425s-38.853,17.223-42.818,20.337S274.579,460.868,278.1,462.077Z" transform="translate(-206.029 73.551)" fill="#ffc727"/><path d="M278.454,445.4c17.018-.357,85.534-.2,102.349.732.136,0,.136.1,0,.119-16.831.715-85.381,0-102.366-.579C278.08,445.658,278.1,445.4,278.454,445.4Z" transform="translate(-204.901 86.174)" fill="#263238"/><path d="M283.434,437.062a13.613,13.613,0,0,1,10.211,4.186,13.27,13.27,0,0,1,3.778,9.088c0,.1-.2.1-.221,0a15.74,15.74,0,0,0-13.615-13.053.135.135,0,0,1-.153-.221Z" transform="translate(-201.252 80.441)" fill="#263238"/><path d="M301.075,428.224c6.807,0,14.67,2.366,18.873,7.931.17.221-.136.443-.34.34a95.063,95.063,0,0,0-18.72-7.437.427.427,0,0,1,.187-.834Z" transform="translate(-189.196 74.235)" fill="#263238"/><path d="M297.96,429.41c6.807,0,14.67,2.366,18.873,7.948.17.2-.136.443-.34.323a93.5,93.5,0,0,0-18.72-7.42.442.442,0,0,1,.187-.851Z" transform="translate(-191.34 75.074)" fill="#263238"/><path d="M294.895,430.614c6.807-.085,14.67,2.349,18.89,7.931.153.2-.153.442-.357.34a92.5,92.5,0,0,0-18.72-7.437.427.427,0,1,1,.187-.834Z" transform="translate(-193.533 75.912)" fill="#263238"/><path d="M291.8,431.8c6.807,0,14.687,2.349,18.89,7.931.153.2-.153.443-.357.34a92.488,92.488,0,0,0-18.72-7.437.427.427,0,0,1,.187-.834Z" transform="translate(-195.702 76.747)" fill="#263238"/><path d="M338.361,436.27c7.641,0,7.573,11.913,0,11.913S330.669,436.219,338.361,436.27Z" transform="translate(-166.679 79.889)" fill="#263238"/><path d="M297.887,427.994c3.642,4.748,9.224,7.76,14.057,11.113a.834.834,0,0,0,1.137-.315.854.854,0,0,0,.088-.23.172.172,0,0,0,.2-.131.21.21,0,0,0,0-.056,35.642,35.642,0,0,0-6.11-17.41c-2.11-2.978-6.433-5.769-9.888-2.927S295.742,425.237,297.887,427.994Zm-.306-5.633c.715-7.386,7.369-1.7,8.833.562a39.733,39.733,0,0,1,2.468,4.595,107.61,107.61,0,0,1,3.8,10.092c-2.263-1.8-4.68-3.4-7.012-5.106C302.89,430.479,297.206,426.446,297.58,422.361Z" transform="translate(-192.781 66.262)" fill="#263238"/><path d="M330.8,429.036c-.51-4.442-5.582-5.412-9.156-4.748a35.852,35.852,0,0,0-16.474,8.3.171.171,0,0,0-.054.235.165.165,0,0,0,.054.055.819.819,0,0,0,.235,1.132.849.849,0,0,0,.259.111c5.82.919,11.913,2.638,17.852,1.7C326.993,435.35,331.3,433.24,330.8,429.036Zm-16.014,4.68c-2.876-.374-5.7-.9-8.509-1.174A95.828,95.828,0,0,1,316,427.9a39.1,39.1,0,0,1,4.969-1.6c2.621-.6,11.368-.1,6.807,5.718C325.1,435.214,318.211,434.142,314.79,433.716Z" transform="translate(-186.046 71.347)" fill="#263238"/><path d="M482.137,241.94S403.461,375.772,401.35,385.167C398.117,399.615,380.928,542.2,380.928,542.2l-81.858-1.464S313.178,415,326.538,373.594c9.632-29.833,79.05-128.778,79.05-128.778Z" transform="translate(-190.237 -56.499)" fill="#37474f"/><path d="M303.555,410.186c11.76-.085,53.421-.545,69.061.9a.119.119,0,0,1,0,.238h0c-5.378.766-57.3-.442-69.061-.817a.172.172,0,0,1-.121-.322A.2.2,0,0,1,303.555,410.186Z" transform="translate(-187.252 61.487)" fill="#263238"/><path d="M438,249.188c-5.106,8.084-10.6,16-15.878,24.013s-10.517,16.048-15.708,24.132q-15.539,24.2-30.361,48.843A150.441,150.441,0,0,0,363.78,370a146.349,146.349,0,0,0-6.892,25.681c-1.617,8.8-2.672,17.665-3.659,26.532q-1.6,14.16-3.165,28.319-3.234,28.93-6.467,57.965c-.272,2.366-.528,4.748-.766,7.114a.316.316,0,0,0,.63,0c2.4-19.2,4.408-38.445,6.6-57.675l3.268-28.625c1-8.9,1.974-17.8,3.4-26.668a176.734,176.734,0,0,1,5.769-25.766,123.277,123.277,0,0,1,11.249-25.034c9.479-16.355,19.52-32.437,29.561-48.468s20.337-32.335,30.939-48.213c1.293-1.957,2.621-3.914,3.982-5.837C438.422,249.171,438.1,249.035,438,249.188Z" transform="translate(-159.525 -51.46)" fill="#263238"/><path d="M366.862,504.782c3.727.238,104.272-26.259,107.4-29.6a1.4,1.4,0,0,0,.238-.681c.391-3.3-4.748-15.64-8.356-31.45-.221-1-2.11-5.8-4.765-12.287-7.3-17.784-20.32-48.349-20.32-48.349l-65.64,16.848,24.166,48.587,3.267,11.419s-33.2,26.566-36.232,30.633S363.152,504.51,366.862,504.782Z" transform="translate(-144.516 42.095)" fill="#eb9481"/><path d="M366.858,484.843c3.727.238,104.272-26.259,107.4-29.6a1.4,1.4,0,0,0,.238-.681c.391-3.3-4.748-15.64-8.356-31.45-.221-1-2.11-5.8-4.765-12.287L399.6,427.848l3.268,11.419s-33.2,26.566-36.232,30.633S363.148,484.571,366.858,484.843Z" transform="translate(-144.513 62.034)" fill="#fff"/><path d="M366.858,479.759c3.727.272,104.272-26.242,107.4-29.578,1.191-1.259-1.413-14.857-8.118-32.131l-63.274,16.236s-33.2,26.532-36.232,30.633S363.148,479.5,366.858,479.759Z" transform="translate(-144.513 67.101)" fill="#ffc727"/><path d="M366.093,462.24c16.338-4.663,82.675-21.954,99.183-25.34.136,0,.153,0,0,.119-16.082,4.969-82.556,21.732-99.132,25.528C365.821,462.6,365.753,462.343,366.093,462.24Z" transform="translate(-143.356 80.331)" fill="#263238"/><path d="M368.866,442.73a13.619,13.619,0,0,1,10.875,1.464,13.284,13.284,0,0,1,5.956,7.828.1.1,0,0,1-.2,0,15.758,15.758,0,0,0-16.576-9.139.1.1,0,0,1-.141.027.1.1,0,0,1-.029-.141A.1.1,0,0,1,368.866,442.73Z" transform="translate(-141.347 84.048)" fill="#263238"/><path d="M383.54,429.944c6.552-1.8,14.789-1.464,20.269,2.859.221.17,0,.477-.238.425a93.581,93.581,0,0,0-19.929-2.468.426.426,0,0,1-.1-.817Z" transform="translate(-131.141 74.727)" fill="#263238"/><path d="M380.923,431.884c6.552-1.8,14.789-1.464,20.269,2.859.221.17,0,.477-.255.425a93.3,93.3,0,0,0-19.929-2.366.461.461,0,0,1-.085-.919Z" transform="translate(-133.084 76.089)" fill="#263238"/><path d="M378.186,433.824c6.569-1.8,14.789-1.464,20.286,2.859.2.17,0,.46-.255.425a93.35,93.35,0,0,0-19.928-2.451.426.426,0,0,1-.1-.834Z" transform="translate(-134.926 77.45)" fill="#263238"/><path d="M375.536,435.749c6.552-1.787,14.789-1.447,20.269,2.876.221.17,0,.46-.238.409a94.693,94.693,0,0,0-19.929-2.434.428.428,0,1,1-.1-.851Z" transform="translate(-136.836 78.81)" fill="#263238"/><path d="M421.211,428.458c7.386-1.906,10.347,9.581,2.944,11.47S413.808,430.347,421.211,428.458Z" transform="translate(-107.528 74.257)" fill="#263238"/><path d="M380.023,430.684c4.748,3.659,10.909,5.106,16.423,7.165a.832.832,0,0,0,1.055-.834.171.171,0,0,0,.153-.238,35.734,35.734,0,0,0-10.347-15.317c-2.791-2.332-7.692-3.948-10.313-.306S377.267,428.557,380.023,430.684Zm-1.7-5.361c-1.191-7.335,6.688-3.506,8.679-1.7a37.676,37.676,0,0,1,3.557,3.812,102.413,102.413,0,0,1,6.246,8.781c-2.655-1.157-5.395-2.076-8.084-3.148-3.233-1.259-9.751-3.71-10.415-7.743Z" transform="translate(-136.269 67.776)" fill="#263238"/><path d="M411.663,424.8c-1.617-4.169-6.807-3.812-10.058-2.246a35.583,35.583,0,0,0-13.819,12.219.172.172,0,0,0,.022.24.185.185,0,0,0,.063.032.835.835,0,0,0,.562,1.038.859.859,0,0,0,.238.034c5.871-.6,12.2-.494,17.7-2.859C409.587,431.875,413.211,428.726,411.663,424.8Zm-14.3,8.611c-2.859.357-5.735.579-8.509,1.038a106.484,106.484,0,0,1,8.22-6.961,39.764,39.764,0,0,1,4.391-2.808c2.383-1.259,10.977-3,7.982,3.8C407.732,432.232,400.805,432.981,397.367,433.406Z" transform="translate(-128 69.495)" fill="#263238"/><path d="M409.963,550.946l73.553-19.3S413.094,393.066,413.741,383.5c.511-8.509,51.583-82.846,54.459-96.767,4.612-22.788-6.484-43.142-17.24-55.735l-76.072,21.443s6.059,13.155,17.189,21.46c0,0-47.8,79.816-49.03,106.093S409.963,550.946,409.963,550.946Z" transform="translate(-159.384 -64.177)" fill="#37474f"/><path d="M381.591,417.843c10.654-3.046,7.556-2.314,18.261-5.259,5.242-1.43,39.67-10.841,44.775-11.334.119,0,.17.17,0,.221-4.7,2.11-39.278,10.926-44.537,12.253-10.756,2.723-7.709,1.821-18.5,4.442C381.472,418.183,381.387,417.843,381.591,417.843Z" transform="translate(-132.408 55.311)" fill="#263238"/><path d="M365.175,254.451a135.854,135.854,0,0,1,21.052,9.939.228.228,0,1,1-.2.408h0c-7.1-3.1-14.347-6.059-21.256-9.53a.46.46,0,0,1,.408-.817Z" transform="translate(-144.276 -47.738)" fill="#263238"/><path d="M370.741,253.524a34.16,34.16,0,0,1,1.361,4.1,8.752,8.752,0,0,1,.528,3.4.255.255,0,0,1-.349.094.247.247,0,0,1-.094-.094,12.01,12.01,0,0,1-1.43-3.285c-.459-1.276-.953-2.536-1.361-3.812C369.107,253.115,370.452,252.707,370.741,253.524Z" transform="translate(-140.908 -48.682)" fill="#263238"/><path d="M373.414,252.269c-.306-1.174-.613-2.332-.936-3.506s-.766-2.383-1-3.608c0-.187-.34-.1-.289,0,.289,1.174.425,2.4.63,3.591s.442,2.383.681,3.557a63.988,63.988,0,0,0,1.7,6.6,8.035,8.035,0,0,1-3.4-1.038,6.3,6.3,0,0,1-2.076-3.251c-.476-1.327-.9-2.672-1.4-3.982a27.7,27.7,0,0,1-1.464-4.442c0-.2-.34-.119-.306,0a48.838,48.838,0,0,0,2.706,9.377c.528,1.191.919,2.417,2.093,3a10.137,10.137,0,0,0,4.084.8c.153,0,.391,0,.357-.221C374.435,256.966,373.992,254.567,373.414,252.269Z" transform="translate(-143.58 -54.32)" fill="#263238"/><path d="M390.444,257.8c-2.893,5.225-6.195,10.211-9.292,15.317s-5.888,10.075-8.713,15.18c-5.684,10.313-10.96,20.9-15.776,31.654q-3.574,7.982-6.807,16.15a121.728,121.728,0,0,0-5.531,16.678,45.678,45.678,0,0,0-.749,17.325,118.43,118.43,0,0,0,4.561,17.427A308.989,308.989,0,0,0,362.5,425.682c.187.408.868.1.715-.323-4.016-11.334-8.169-22.634-11.794-34.037-3.489-11.13-7.641-22.668-5.718-34.5a89.764,89.764,0,0,1,4.833-16.593q3.1-8.271,6.6-16.355c4.629-10.637,9.8-20.967,15.112-31.263,2.961-5.769,6.076-11.47,9.088-17.223s5.973-11.709,9.36-17.291C390.8,257.779,390.6,257.643,390.444,257.8Z" transform="translate(-159.351 -45.415)" fill="#263238"/><path d="M414.964,258.988c-1.379-.221-3.4.255-9.343-.153a33.861,33.861,0,0,1-4.9-.8,10.779,10.779,0,0,1-4.544-1.838,23.979,23.979,0,0,1-5.191-7.148,36.166,36.166,0,0,1-3.625-8.815c0-.187-.323-.1-.289.085.323,1.7.493,3.4.953,5.208a30.927,30.927,0,0,0,1.7,4.731,19.288,19.288,0,0,0,5.327,7.862c2.689,2.025,6.45,2.4,9.7,2.638,1.889.136,9.292,0,10.211-1.123C415.236,259.447,415.219,259.039,414.964,258.988Z" transform="translate(-128.477 -57.771)" fill="#263238"/><path d="M439.465,513.41q-13.92-28.285-27.229-56.927T386.4,398.775a75.427,75.427,0,0,1-5.5-14.244c-1.14-5.395.528-10.211,2.808-15.1a258.229,258.229,0,0,1,14.21-25.783c5.105-8.373,10.619-16.559,16.014-24.779a257.026,257.026,0,0,0,15.317-25.051c4.186-8.356,6.518-17.257,5.327-26.617s-5.225-18.005-9.53-26.225c-1.14-2.161-2.315-4.306-3.4-6.484-.085-.153-.34,0-.238.153,4.8,8.611,9.411,17.648,11.658,27.229a44.425,44.425,0,0,1,1.055,14.6A46.317,46.317,0,0,1,430,290.725c-4,8.781-9.581,16.882-14.84,24.932s-10.858,16.423-16.1,24.762a287.816,287.816,0,0,0-14.653,25.817c-1.94,3.965-4.067,8.1-4.544,12.543-.511,4.884,1.242,9.547,3.131,13.955,8.169,19.163,16.78,38.172,25.528,57.08s17.818,37.883,27.025,56.671l3.4,7.1C439.176,513.972,439.6,513.7,439.465,513.41Z" transform="translate(-133.594 -61.768)" fill="#263238"/><path d="M360.76,156.828c1.7-7.777,10.347-25.374,27.417-21.937,24.37,4.918,27.893,51.872,40.027,66.508,21.971,26.515,22.685,52.757,4.68,56.96-20.184,4.7-39.823-17.018-39.142-63.819.459-29.306-7.794-42.291-13.615-41.423s-9.037,8.271-9.037,8.271Z" transform="translate(-146.941 -131.939)" fill="#263238"/><path d="M361.24,154.954a47.343,47.343,0,0,1,4.884-10.33,28.084,28.084,0,0,1,7.965-8.373,19.112,19.112,0,0,1,11.266-3.268,24.579,24.579,0,0,1,11.317,3.148,27.425,27.425,0,0,1,8.509,7.982,50.651,50.651,0,0,1,5.463,10.211,102.213,102.213,0,0,1,5.65,22.124,150.75,150.75,0,0,0-7.182-21.426,54.127,54.127,0,0,0-5.565-9.649,25.856,25.856,0,0,0-8-7.318,22.835,22.835,0,0,0-10.33-2.978,17.78,17.78,0,0,0-10.211,2.655,28.692,28.692,0,0,0-8.016,7.556,48.7,48.7,0,0,0-3.114,4.7A54.982,54.982,0,0,0,361.24,154.954Z" transform="translate(-146.604 -132.975)" fill="#263238"/><path d="M380.988,160.27c.255,4.646,0,9.309-.1,13.955s-.289,9.275-.306,13.9a128.844,128.844,0,0,0,.613,13.819,70.253,70.253,0,0,0,2.485,13.462,35.731,35.731,0,0,0,5.939,12.083,38.767,38.767,0,0,0,10.211,8.833,28.937,28.937,0,0,0,12.849,4.118,26.381,26.381,0,0,0,6.807-.357,25.508,25.508,0,0,0,3.4-.885,11.954,11.954,0,0,0,3.131-1.447,17.2,17.2,0,0,1-6.348,2.876,26.872,26.872,0,0,1-6.995.868,28.989,28.989,0,0,1-7.046-1,30.818,30.818,0,0,1-6.586-2.706,36.663,36.663,0,0,1-5.888-4.016l-1.344-1.157-1.293-1.208a25.835,25.835,0,0,1-2.451-2.655,37.541,37.541,0,0,1-6.4-12.73,89.573,89.573,0,0,1-2.689-27.927c.136-4.663.494-9.309.9-13.938S380.834,164.916,380.988,160.27Z" transform="translate(-134.272 -113.818)" fill="#263238"/><path d="M359.955,150.025c-.272-2.161,1.038-5.106,2.4-5.633s12.219,2.961,13.359,5.565-3.251,5.378-3.251,5.378Z" transform="translate(-147.531 -125)" fill="#ffc727"/><path d="M431.032,197.77c-6.688,9.547-55.054,49.047-81.433,50.511-11.913.647-58.509-4.425-68.89-8.7-12.747-5.242,12.457-36.811,20.422-35.466,9.973,1.7,45.337,5.429,52.383,5.616,11.3.289,45.95-18.72,69.282-23.673C434.861,183.525,436.206,190.418,431.032,197.77Z" transform="translate(-205.607 -96.093)" fill="#eb9481"/><path d="M388.964,200.542c-7.386,12.883-33.458,34.973-33.458,34.973l-4.442-8.2-14.7-27.076s24.711-9.837,41.1-14.619a37.061,37.061,0,0,1,5.888-1.293C393.933,182.962,395.312,189.48,388.964,200.542Z" transform="translate(-164.066 -97.062)" fill="#dbdbdb"/><path d="M388.971,200.518c-7.386,12.883-33.458,34.973-33.458,34.973l-4.442-8.2-3.029-5.582L336.35,200.228s24.728-9.871,41.116-14.653a39.76,39.76,0,0,1,5.888-1.276,4.311,4.311,0,0,1,.63,0C393.991,183.21,395.217,189.677,388.971,200.518Z" transform="translate(-164.073 -97.037)" fill="#dbdbdb"/><path d="M353.511,192.147a15.237,15.237,0,0,1,0,7.148A15.194,15.194,0,0,1,353.511,192.147Zm-6.995,14.023a13.334,13.334,0,0,0-3.557.425,15.152,15.152,0,0,0,7.131,0,13.466,13.466,0,0,0-3.574-.425Zm36.147-19.98a13.464,13.464,0,0,0-3.574.425,13.463,13.463,0,0,0,3.574.425,14.235,14.235,0,0,0,3.557-.425A14.239,14.239,0,0,0,382.664,186.191Zm-13.921,17.767a13.942,13.942,0,0,0,2.825,2.212,13.939,13.939,0,0,0-2.212-2.825,14.332,14.332,0,0,0-2.825-2.212,14.333,14.333,0,0,0,2.212,2.825Zm-13.734,17.018a13.929,13.929,0,0,0,2.825,2.229,13.319,13.319,0,0,0-2.212-2.825,13.93,13.93,0,0,0-2.825-2.229,13.389,13.389,0,0,0,2.144,2.825Z" transform="translate(-159.434 -95.627)" fill="#fff"/><path d="M357.007,222.929c-2.468-4.986-13.359-25.068-16-29.255-.187-.289-.408-.255-.272,0A309.168,309.168,0,0,0,356.8,222.929C356.871,223.133,357.075,223.065,357.007,222.929Z" transform="translate(-161.023 -90.517)" fill="#263238"/><path d="M384.149,200.529c-7.386,12.883-33.458,34.973-33.458,34.973l-4.442-8.2-3.029-5.582c14.142-13.955,31.178-31.127,35.943-37.44C389.17,183.221,390.4,189.688,384.149,200.529Z" transform="translate(-159.251 -97.049)" fill="#a6a6a6"/><path d="M357.217,261.1l3.863,42.546a143.663,143.663,0,0,0,15.538-1.566,365.074,365.074,0,0,0,40.283-8.39c13.155-3.4,28.574-8.1,46.2-14.363,0,0-39.874-71.92-67.393-91.763-.63-.459-1.242-.885-1.872-1.276-.119-.1-.238-.153-.357-.238-12.509-7.914-23.826-1.7-30.088,7.114-1.583,2.212-16.9,37.032-16.133,48.707C347.959,252.132,357.217,261.1,357.217,261.1Z" transform="translate(-156.434 -98.277)" fill="#dbdbdb"/><path d="M373.834,212.931a15.154,15.154,0,0,1,0,7.131,13.464,13.464,0,0,1-.425-3.574A14.079,14.079,0,0,1,373.834,212.931Zm9.275,44.554a14.213,14.213,0,0,0,.426,3.574,12.8,12.8,0,0,0,.425-3.574,13.469,13.469,0,0,0-.425-3.574,14.213,14.213,0,0,0-.426,3.574Zm29.7-25.357a13.467,13.467,0,0,0,.425,3.574,15.192,15.192,0,0,0,0-7.148A13.467,13.467,0,0,0,412.806,232.127Zm-54.459,19.929a13.462,13.462,0,0,0,.425,3.574,15.193,15.193,0,0,0,0-7.148A13.462,13.462,0,0,0,358.348,252.056Zm34.309-31.365a14.214,14.214,0,0,0-3.574.425,15.237,15.237,0,0,0,7.148,0,14.239,14.239,0,0,0-3.557-.425ZM417.98,252.43a12.789,12.789,0,0,0-3.574.425,15.238,15.238,0,0,0,7.148,0A13.47,13.47,0,0,0,418,252.43Zm-38.5,25.153a13.332,13.332,0,0,0-3.557.425,15.151,15.151,0,0,0,7.131,0,14.239,14.239,0,0,0-3.557-.425Zm44.843-4.9a14.082,14.082,0,0,0-3.557.425,15.167,15.167,0,0,0,7.131,0A14.215,14.215,0,0,0,424.328,272.682Zm-50.17-86.521a13.466,13.466,0,0,0-3.574.425,13.465,13.465,0,0,0,3.574.425,14.239,14.239,0,0,0,3.557-.425,14.217,14.217,0,0,0-3.557-.374Zm18.21,7.88a13.93,13.93,0,0,0,2.825,2.229,12.89,12.89,0,0,0-2.212-2.825,13.931,13.931,0,0,0-2.825-2.229,13.9,13.9,0,0,0,2.229,2.876Zm37.185,39.806a13.928,13.928,0,0,0,2.825,2.229,13.416,13.416,0,0,0-2.212-2.825,14.485,14.485,0,0,0-2.825-2.229,13.863,13.863,0,0,0,2.212,2.876ZM370.09,238.1a13.929,13.929,0,0,0,2.825,2.229,15.321,15.321,0,0,0-5.105-5.106,13.975,13.975,0,0,0,2.28,2.927ZM404.3,266.913a13.928,13.928,0,0,0,2.825,2.229,15.321,15.321,0,0,0-5.105-5.105A13.943,13.943,0,0,0,404.3,266.913Zm-43.975-62.968a13.942,13.942,0,0,0,2.825,2.212,13.94,13.94,0,0,0-2.212-2.825,14.333,14.333,0,0,0-2.825-2.212,14.318,14.318,0,0,0,2.127,2.859Zm-2.417,22.362a14.48,14.48,0,0,0,2.229-2.825,13.276,13.276,0,0,0-2.825,2.212,13.929,13.929,0,0,0-2.229,2.825,14.521,14.521,0,0,0,2.74-2.178ZM438.657,256.7a13.315,13.315,0,0,0,2.212-2.825,15.106,15.106,0,0,0-5.105,5.105,13.969,13.969,0,0,0,2.808-2.246Zm-76.345,12.185a13.942,13.942,0,0,0,2.212-2.825,15.106,15.106,0,0,0-5.106,5.105,13.97,13.97,0,0,0,2.808-2.246Zm45.575-58.662a13.931,13.931,0,0,0,2.229-2.825,13.507,13.507,0,0,0-2.825,2.229,13.926,13.926,0,0,0-2.229,2.825,13.972,13.972,0,0,0,2.74-2.2Zm-11.3,76.413a13.505,13.505,0,0,0,2.229-2.825,13.508,13.508,0,0,0-2.825,2.229,13.931,13.931,0,0,0-2.229,2.825,13.91,13.91,0,0,0,2.74-2.2Zm0-45.95a12.921,12.921,0,0,0,2.229-2.825,15.32,15.32,0,0,0-5.105,5.106,13.494,13.494,0,0,0,2.825-2.3Z" transform="translate(-150.927 -95.648)" fill="#fff"/><path d="M379.056,195.37c-.238,1.7-7.012,12.764-14.4,13.053-2.417.085-3.489-13.019-3.489-13.019l-.306-.953-4.2-13.291L371.7,169.639l2.2-1.549s.9,3.727,1.991,8.356l.153.664a4.018,4.018,0,0,0,.187.749l.51,2.093c.119.545.238,1.072.34,1.7l.357,1.7A88.722,88.722,0,0,1,379.056,195.37Z" transform="translate(-149.819 -108.33)" fill="#eb9481"/><path d="M375.931,176.446A27.926,27.926,0,0,1,360.9,194.537l-4.2-13.291,14.976-11.607,2.2-1.549S374.774,171.732,375.931,176.446Z" transform="translate(-149.791 -108.33)" fill="#263238"/><path d="M345.7,176.5c-.119,24.472,14.534,27.315,19.809,27.332,4.782,0,21.1-.528,23.826-24.864s-8.7-32.114-19.639-32.743S345.819,151.979,345.7,176.5Z" transform="translate(-157.511 -123.703)" fill="#eb9481"/><path d="M388.018,181.794c-4,.408-5.105-7.982-5.105-7.982s-8.152.238-11.13-11.436a18.057,18.057,0,0,0,3.846,9.615s-14.449-1.123-20.814-13.036c0,0,2.57,6.076,4.884,8.2a17.013,17.013,0,0,1-9.139-6.365s-2.349,7.012-4.238,8.969c0,0-2.791-12.321,2.332-18.72,10.79-13.615,28.506-1.7,28.506-1.7s9.9,1.5,13.444,8.918C396.068,169.608,388.018,181.794,388.018,181.794Z" transform="translate(-157.606 -124.876)" fill="#263238"/><path d="M369.323,169.251s4.7-8.05,8.322-6.433.511,12.985-3.4,14.823a4.138,4.138,0,0,1-5.633-1.574c-.024-.043-.046-.085-.068-.128Z" transform="translate(-141.481 -112.18)" fill="#eb9481"/><path d="M375.743,164.749a10.482,10.482,0,0,0-4.85,6.961,2.281,2.281,0,0,1,3.4-.9c.085,0,0,.17,0,.153a2.518,2.518,0,0,0-2.706,1.123,11.755,11.755,0,0,0-1.157,2.366c-.119.255-.579.17-.511-.136h0c-.459-3.693,1.957-9.054,5.82-9.683Z" transform="translate(-140.549 -110.758)" fill="#263238"/><path d="M347.9,162.234a13.913,13.913,0,0,0,1.7-.408,2.761,2.761,0,0,0,1.6-.749.869.869,0,0,0,0-1.072,2.2,2.2,0,0,0-2.161-.425,3.221,3.221,0,0,0-1.957,1.208.936.936,0,0,0,.817,1.447Z" transform="translate(-156.647 -114.387)" fill="#263238"/><path d="M358.362,163.3a14.407,14.407,0,0,1-1.7-.272,2.752,2.752,0,0,1-1.7-.63.851.851,0,0,1,0-1.072,2.127,2.127,0,0,1,2.11-.579,3.3,3.3,0,0,1,2.059,1.038.937.937,0,0,1-.766,1.515Z" transform="translate(-151.146 -113.542)" fill="#263238"/><path d="M355.051,165.15s.119,0,.119.153c0,1.7.221,3.608,1.7,4.135m0,.1c-1.821-.238-2.178-2.791-1.821-4.391Z" transform="translate(-151.035 -110.393)" fill="#263238"/><path d="M356.47,164.114c2.689-.255,3,5.105.494,5.395S354.206,164.318,356.47,164.114Z" transform="translate(-151.041 -111.127)" fill="#263238"/><path d="M356.583,164.366c.494.289.987.8,1.566.834s1.123-.579,1.532-1.14h.085c0,1.038-.272,2.127-1.361,2.349s-1.7-.681-2.11-1.7C356.243,164.554,356.4,164.264,356.583,164.366Z" transform="translate(-150.082 -111.158)" fill="#263238"/><path d="M350.129,165.2s-.136.085-.119.153c.153,1.7,0,3.625-1.43,4.272h0C350.435,169.335,350.537,166.766,350.129,165.2Z" transform="translate(-155.489 -110.358)" fill="#263238"/><path d="M349.356,164.23c-2.706,0-2.57,5.378,0,5.412S351.636,164.264,349.356,164.23Z" transform="translate(-156.334 -111.039)" fill="#263238"/><path d="M349.076,164.534c-.425.306-.834.834-1.344.885s-1.055-.528-1.447-1.089H346.2c0,1.038.374,2.11,1.378,2.28s1.549-.749,1.7-1.787C349.4,164.7,349.263,164.415,349.076,164.534Z" transform="translate(-157.16 -110.969)" fill="#263238"/><g transform="translate(201.445 68.156)"><path d="M359.66,173.077c-.7.868-1.368,2-2.568,2.2a8.369,8.369,0,0,1-3.6-.466m0,.2a4.336,4.336,0,0,0,4.3,1.334,3.338,3.338,0,0,0,2.3-3.135.287.287,0,0,0-.434-.134Z" transform="translate(-353.489 -173.023)" fill="#263238"/></g><path d="M352.34,176.3s-.238,2.451-.238,3.693a25.4,25.4,0,0,1,6.807.715c.528.153.494-.289-.1-.613a10.206,10.206,0,0,0-5.8-1.174c-.085-.323.443-3.863.255-3.863a9.975,9.975,0,0,0-2.655.715c.34-5.259,1.532-10.432,1.787-15.674a.153.153,0,0,0-.306,0,85.726,85.726,0,0,0-2.655,16.78C349.481,177.512,351.881,176.525,352.34,176.3Z" transform="translate(-154.893 -114.042)" fill="#263238"/><path d="M352.63,171.884a6.475,6.475,0,0,0,3.4,2.315c2.059.2,2.2-1.7-.1-2.57A6.13,6.13,0,0,0,352.63,171.884Z" transform="translate(-152.647 -105.929)" fill="#263238"/><path d="M355.513,173.86a4.26,4.26,0,0,1-2.093-.987c.374-.664,1.327-1.413,3.574-.34C357.351,173.315,356.824,174,355.513,173.86Z" transform="translate(-152.093 -105.591)" fill="#ff99ba"/><path d="M375.416,182.4c3,0,8.033.749,14.84,5.922,0,0-14.193,11.419-27.4,11.419-4.714,0-6.127-6.586-6.127-6.586S363.078,182.5,375.416,182.4Z" transform="translate(-149.77 -98.287)" fill="#eb9481"/><path d="M591.331,639.1h-55.6c-40.4,0-65.112-27.927-69.554-78.625-2.2-25-3.54-55.259-4.952-87.287-4.357-98.417-10.33-233.152-48.639-233.152H368.56V229.83h44.027c48.06,0,53.54,123.5,58.833,242.937,1.413,31.926,2.757,62.083,4.935,86.794,2.774,31.62,15.317,69.316,59.377,69.316h55.6Z" transform="translate(-141.467 -64.999)" fill="#ffc727"/><path d="M400.895,229.81l-2.178,10.211H368.56V229.81Z" transform="translate(-141.467 -65.013)" opacity="0.2" style="isolation:isolate"/><rect width="17.801" height="124.387" transform="translate(126.31 108.79)" fill="#ffc727"/><rect width="67.682" height="104.731" transform="translate(58.645 117.98)" fill="#ffc727"/><path d="M319.383,202.31V307.041H302.569L295.03,202.31Z" transform="translate(-193.073 -84.313)" opacity="0.2" style="isolation:isolate"/><path d="M241.825,213.35h51.923v15.657H241.825a6.705,6.705,0,0,1-6.705-6.705h0v-2.229a6.705,6.705,0,0,1,6.688-6.722Z" transform="translate(-235.12 -76.565)" fill="#dbdbdb"/><rect width="18.227" height="15.64" transform="translate(40.402 136.785)" fill="#a6a6a6"/><path d="M241.825,243.6h51.923v15.657H241.825a6.705,6.705,0,0,1-6.705-6.705h0v-2.229a6.705,6.705,0,0,1,6.688-6.722Z" transform="translate(-235.12 -55.334)" fill="#dbdbdb"/><rect width="18.227" height="15.64" transform="translate(40.402 188.266)" fill="#a6a6a6"/><rect width="52.876" height="20.882" transform="translate(196.426 160.356)" fill="#ffc727"/><rect width="52.876" height="20.882" transform="translate(196.426 160.373)" fill="#ffc727"/><path d="M369.107,227.21l-1.736,20.882H350.54V227.21Z" transform="translate(-154.114 -66.837)" opacity="0.2" style="isolation:isolate"/><path d="M319.8,204.62h41.848a10.465,10.465,0,0,1,10.466,10.466v75.919a10.465,10.465,0,0,1-10.466,10.466H319.8V204.62Z" transform="translate(-175.688 -82.692)" fill="#ffc727"/><path d="M342.053,204.62l-7.539,96.852h-14.7V204.62Z" transform="translate(-175.681 -82.692)" opacity="0.2" style="isolation:isolate"/><g transform="translate(159.139 141.499)" opacity="0.2"><rect width="3.336" height="57.692"/><rect width="3.336" height="57.692" transform="translate(9.462)"/><rect width="3.336" height="57.692" transform="translate(18.924)"/></g><path d="M415.861,195.011c5.854,16.423-2.536,76.583-12.457,89.33-14.738,18.89-43.856,36.266-54.986,41.695-4.867,2.366-26.668-32.488-21.92-35.739,10.211-6.995,42.733-23.69,45.49-27.008s17.6-35.194,23.536-53.114C403.505,186.11,412.916,186.723,415.861,195.011Z" transform="translate(-171.46 -93.079)" fill="#eb9481"/><path d="M369.164,286.055c-15.436,8.815-46.154,7.522-50.34,6.246l-5.412-1.7c-6.45-1.821-8.186-5.378-8.186-5.378s-8.067.1-8.952-4.765c-.987-5.463,10.534-4.544,17.189-7.914,15.316-7.709,34.751-22.958,38.921-25.613Z" transform="translate(-192.241 -52.997)" fill="#eb9481"/><path d="M331.4,263.847a106.849,106.849,0,0,1-13.734,6.008,111.994,111.994,0,0,1-16.048,3.4.135.135,0,0,0-.08.175.133.133,0,0,0,.08.08,58.292,58.292,0,0,0,29.969-9.258C331.807,264.119,331.62,263.745,331.4,263.847Z" transform="translate(-188.513 -41.136)" fill="#263238"/><path d="M334.033,268.859c-4.527,1.872-12.508,5.106-27.723,6.229v.1a52.218,52.218,0,0,0,27.893-5.871C334.475,269.115,334.339,268.74,334.033,268.859Z" transform="translate(-185.156 -37.622)" fill="#263238"/><path d="M327.342,262.393c1.583-1.7.647-2.621-3.54-1.872s-20.1,7.318-21.92,1.583,20.779-14.687,27.842-15.419a118.125,118.125,0,0,1,19.129.562C344.8,249.868,335.2,257.151,327.342,262.393Z" transform="translate(-188.336 -53.28)" fill="#eb9481"/><path d="M376.807,200.942c10.3-21.664,19.69-15.929,20.592,5.5a341.205,341.205,0,0,1-2.008,44.554L358.07,240.306S370.221,214.812,376.807,200.942Z" transform="translate(-148.829 -94.875)" fill="#dbdbdb"/><path d="M382.948,187.88a15.321,15.321,0,0,1,5.106,5.106A15.321,15.321,0,0,1,382.948,187.88Zm-14.789,27.434a13.467,13.467,0,0,0,.426,3.574,15.153,15.153,0,0,0,0-7.131A14.084,14.084,0,0,0,368.159,215.314Zm19.265,4.2a14.212,14.212,0,0,0-3.574.425,15.238,15.238,0,0,0,7.148,0,14.227,14.227,0,0,0-3.574-.46ZM364.84,236.944a13.93,13.93,0,0,0,2.825,2.229,15.321,15.321,0,0,0-5.105-5.106A13.944,13.944,0,0,0,364.84,236.944Zm26.447,2.519a12.923,12.923,0,0,0,2.229-2.825,15.32,15.32,0,0,0-5.105,5.106A13.5,13.5,0,0,0,391.287,239.463Z" transform="translate(-145.678 -94.441)" fill="#fff"/><path d="M373.45,199.192c-1.4,2.842-2.859,5.633-4.323,8.509q.375-1.991.613-4.033m-.1,0c-.2,1.055-.46,2.11-.664,3.165-.085.511-.187,1.021-.289,1.532v.323c-1.14,2.178-2.263,4.374-3.4,6.586-1.293,2.655-2.5,5.327-3.727,8s-2.366,5.939-3.744,8.645a18.349,18.349,0,0,0,3.642,1.089c.323.119.494-.2.153-.255s-3.131-1.157-3.165-1.174c1.225-2.706,2.74-5.259,4.033-7.914s2.621-5.276,3.863-7.948c2.519-5.412,4.731-10.977,7.233-16.406,0-.136-.119-.187-.119-.119Z" transform="translate(-149.011 -86.522)" fill="#263238"/><path d="M384.855,210.621c-.34,1.106-.732,2.212-1.021,3.4-.1.477-.221.936-.34,1.413q.2-5.82.374-11.607h0c-.528,6.331-1.072,12.645-1.481,18.975a176.478,176.478,0,0,0-.834,18.244,21.88,21.88,0,0,0-3.4-.528,16.414,16.414,0,0,0,3.863,1.106c.936-6.127,1-12.9,1.31-19.061.085-1.7.136-3.4.2-5.225.2-1.072.51-2.127.8-3.182s.511-2.28.749-3.4C384.991,210.587,384.872,210.553,384.855,210.621Z" transform="translate(-134.736 -85.051)" fill="#263238"/><path d="M392.379,225.491c-5.259-1.872-27.042-8.747-31.841-9.922-.34-.085-.477.1-.136.221a302.5,302.5,0,0,0,31.892,9.888C392.43,225.729,392.515,225.525,392.379,225.491Z" transform="translate(-147.331 -75.023)" fill="#263238"/><path d="M276.095,235.124c5.106,1.566,4.067-5.412,4.067-5.412s4,9.666,9.939,9.241,4.1-8.816,4-9.428c.2.511,4.118,9.292,10.041,8.254s3.08-9.241,2.876-9.752c.357.408,5.105,5.837,9.462,4.016,7.42-3.131-4.425-17.359-3.557-23.826l10.432.306a9.423,9.423,0,0,0,1.021-.153l.391-5.327a67.842,67.842,0,0,1-9.632-4.833c-3.931-2.212-7.726-4.221-10.551-4.289a5.906,5.906,0,0,0-5.871,3.9s-3.063-4.833-7.76-4.152c-2.4.357-3.965,4.527-3.965,4.527a7.065,7.065,0,0,0-6.807-2.91c-3.3.681-4.357,4.765-4.357,4.765s-4.186-2.468-7.335-.664C262.174,202.891,265.067,231.72,276.095,235.124Z" transform="translate(-214.012 -90.425)" fill="#eb9481"/><path d="M294,208.228l9.088.834a9.423,9.423,0,0,0,1.021-.153c11.47-2.076,18.618-15.214,10.211-16.15-6.314-.732-13.155,7.658-19.537,5.973h0Z" transform="translate(-193.796 -91.048)" fill="#eb9481"/><path d="M271.43,197.7a50.126,50.126,0,0,0,4.731,29.442c.153.289.681.153.579-.187a102.4,102.4,0,0,1-5.157-29.255Z" transform="translate(-209.994 -87.549)" fill="#263238"/><path d="M278.266,196.207c0-.119-.187-.119-.2,0a46.955,46.955,0,0,0,7.012,31.807c.221.323.749.391.511,0C281.806,221.445,278.266,205.55,278.266,196.207Z" transform="translate(-205.292 -88.659)" fill="#263238"/><path d="M294.157,226.6c-5.871-9.258-8.2-19.469-9.071-30.293,0-.136-.2-.1-.238,0-1,5.412.272,12.253,1.7,17.495a28.943,28.943,0,0,0,7.267,12.985C293.987,226.94,294.293,226.8,294.157,226.6Z" transform="translate(-200.471 -88.589)" fill="#263238"/></g><g transform="translate(0 10.75)"><path d="M251.654,483.528c-3.523,1.174-104.391.885-108.237-1.549-1.447-.919-2.263-15.623-2.74-33.407-.119-3.829-.187-7.794-.255-11.828,0-4.765-.136-9.6-.17-14.3-.119-21.069.17-39.619.17-39.619H206.1v53.914l-.34,11.828S244.319,465.965,248.3,469.1,255.177,482.439,251.654,483.528Z" transform="translate(98.414 31.633)" fill="#ad6359"/><path d="M251.642,467.189c-3.523,1.174-104.391.885-108.237-1.549-1.447-.919-2.263-15.623-2.74-33.407-.119-3.829-.187-7.794-.255-11.828,0-4.765-.136-9.6-.17-14.3h65.81v14.3l-.34,11.828s38.564,17.393,42.546,20.524S255.165,466.1,251.642,467.189Z" transform="translate(98.426 47.971)" fill="#fff"/><path d="M252.033,461.536c-2.3.766-45.252.919-76.583.272-7.25-.17-13.87-.357-19.2-.6-7.369-.34-12.3-.732-13.1-1.242-1.787-1.14-2.621-22.72-3.029-45.49H206.1l-.34,11.913s38.785,17.495,42.733,20.643S255.641,460.345,252.033,461.536Z" transform="translate(98.342 53.846)" fill="#ffc727"/><path d="M247.293,439.936c-17.018-.477-85.6-.749-102.451.085-.136,0-.136.085,0,.1,16.848.834,85.449.545,102.451.085C247.7,440.191,247.718,439.936,247.293,439.936Z" transform="translate(101.584 71.395)" fill="#263238"/><path d="M188.421,419.465c-6.688-1.259-14.874-.255-20,4.493-.2.187,0,.459.289.391a93.212,93.212,0,0,1,19.69-4.033.426.426,0,0,0,.017-.851Z" transform="translate(118.148 56.995)" fill="#263238"/><path d="M191.285,421.209c-6.688-1.276-14.874-.272-20.014,4.493-.187.17,0,.459.289.391a93.446,93.446,0,0,1,19.724-4.067.426.426,0,0,0,0-.817Z" transform="translate(120.152 58.213)" fill="#263238"/><path d="M194.091,422.909c-6.688-1.276-14.874-.272-20,4.476-.2.187,0,.477.272.408a94.811,94.811,0,0,1,19.69-4.05.426.426,0,0,0,.034-.834Z" transform="translate(122.128 59.406)" fill="#263238"/><path d="M196.921,424.629c-6.688-1.276-14.874-.272-20,4.476-.2.187,0,.477.289.409a93.278,93.278,0,0,1,19.673-4.05.426.426,0,0,0,.034-.834Z" transform="translate(124.114 60.613)" fill="#263238"/><path d="M195.956,411.068c-2.621-3.625-7.522-2.008-10.313.323A35.734,35.734,0,0,0,175.3,426.708a.17.17,0,0,0,.153.238c0,.511.477,1.055,1.038.834,5.531-2.025,11.709-3.506,16.44-7.182C195.7,418.454,198.441,414.506,195.956,411.068Zm-11.709,11.913c-2.689,1.055-5.429,1.991-8.084,3.148a105.306,105.306,0,0,1,6.246-8.8,35.875,35.875,0,0,1,3.557-3.812c1.991-1.821,9.888-5.65,8.679,1.7-.664,4.033-7.182,6.484-10.4,7.76Z" transform="translate(123.019 49.957)" fill="#263238"/><path d="M167.644,423.185c5.5,2.366,11.913,2.264,17.7,2.859a.851.851,0,0,0,.846-.856.838.838,0,0,0-.029-.216.171.171,0,0,0,.034-.238.159.159,0,0,0-.034-.034,35.738,35.738,0,0,0-13.751-12.253c-3.3-1.566-8.509-1.906-10.075,2.263S164.427,421.806,167.644,423.185Zm-3.012-4.765c-3-6.807,5.6-5.106,7.982-3.829a41.055,41.055,0,0,1,4.408,2.825,103.638,103.638,0,0,1,8.237,6.961c-2.859-.46-5.735-.681-8.611-1.038C173.209,422.912,166.282,422.164,164.632,418.42Z" transform="translate(113.67 51.659)" fill="#263238"/><path d="M245.821,538.28l-81.382,1.464s-11.079-72-18.363-116.78c-2.757-16.831-4.935-29.833-5.82-33.747-2.11-9.343-43.346-157.641-43.346-157.641l59.156-.085h20.218s-1.293,24.8-.528,27.4c10.551,35.892,32.114,99.54,38.853,121.715C224.939,414.693,245.821,538.28,245.821,538.28Z" transform="translate(68.015 -74.584)" fill="#a6a6a6"/><path d="M208.4,404.486c-11.675-.085-53.1-.545-68.652.9a.119.119,0,0,0-.066.155.116.116,0,0,0,.066.066c5.361.766,56.978-.425,68.669-.8a.17.17,0,0,0,.088-.328A.16.16,0,0,0,208.4,404.486Z" transform="translate(98.03 46.736)" fill="#263238"/><path d="M161.584,460.616q-4.22-27.927-9.411-55.718c-1.7-9.1-3.557-18.193-5.939-27.229s-5.412-17.971-8.509-26.838q-9.139-26.446-17.376-53.182-8.194-26.753-15.317-53.8c-.613-2.28-1.208-4.561-1.872-6.807,0-.187-.323-.1-.289,0,1.855,9.088,4.255,18.091,6.552,27.076s4.765,17.937,7.335,26.855q7.76,26.855,16.831,53.336c3.012,8.781,6.144,17.546,8.816,26.447s4.748,17.92,6.6,27.008c3.761,18.448,6.961,37.015,9.922,55.582s5.5,37.44,7.982,56.161c.323,2.366.63,4.748.936,7.131.085.664,1.14.664,1.072,0C167,497.971,164.358,479.268,161.584,460.616Z" transform="translate(72.197 -70.762)" fill="#263238"/><path d="M156.066,231.47l-9.99,191.508c-2.757-16.831-4.935-29.833-5.82-33.747-2.11-9.343-43.346-157.641-43.346-157.641Z" transform="translate(68.015 -74.598)" fill="#263238"/><path d="M192.344,493.008c-3.523,1.174-104.391.885-108.237-1.566-1.447-.9-2.263-15.606-2.74-33.39-.119-3.846-.187-7.794-.255-11.828,0-4.782-.136-9.6-.17-14.3-.119-21.069.17-39.619.17-39.619h65.657v53.931l-.34,11.828s38.564,17.393,42.546,20.524S195.867,491.85,192.344,493.008Z" transform="translate(56.788 38.286)" fill="#ad6359"/><path d="M192.332,476.669c-3.523,1.174-104.391.885-108.237-1.566-1.447-.9-2.263-15.606-2.74-33.39-.119-3.846-.187-7.794-.255-11.828,0-4.782-.136-9.6-.17-14.3h65.81V429.9l-.34,11.828s38.564,17.393,42.546,20.524S195.855,475.512,192.332,476.669Z" transform="translate(56.8 54.625)" fill="#fff"/><path d="M192.716,470.976c-2.3.749-45.269.9-76.583.255-7.233-.153-13.853-.357-19.2-.579-7.352-.34-12.287-.749-13.1-1.259-1.7-1.14-2.621-22.7-3.012-45.473H146.8l-.34,11.913s38.819,17.478,42.767,20.558S196.256,469.785,192.716,470.976Z" transform="translate(56.723 60.471)" fill="#ffc727"/><path d="M188.013,449.364c-17.018-.46-85.619-.749-102.451.085-.136,0-.136.1,0,.119,16.831.817,85.449.545,102.451.085C188.37,449.636,188.37,449.381,188.013,449.364Z" transform="translate(59.979 78.016)" fill="#263238"/><path d="M129.111,428.909c-6.688-1.276-14.874-.272-20,4.476-.2.187,0,.477.272.409a94.805,94.805,0,0,1,19.69-4.05.426.426,0,0,0,.034-.834Z" transform="translate(76.522 63.617)" fill="#263238"/><path d="M131.941,430.629c-6.688-1.276-14.874-.272-20,4.476-.2.187,0,.477.289.408a93.24,93.24,0,0,1,19.69-4.05.426.426,0,0,0,.017-.834Z" transform="translate(78.509 64.824)" fill="#263238"/><path d="M134.785,432.335c-6.688-1.259-14.874-.255-20.014,4.493-.187.187,0,.46.289.391a94.554,94.554,0,0,1,19.69-4.033.426.426,0,1,0,.034-.851Z" transform="translate(80.498 66.028)" fill="#263238"/><path d="M137.611,434.055c-6.688-1.259-14.874-.255-20,4.493-.2.187,0,.46.272.391a94.8,94.8,0,0,1,19.69-4.033.426.426,0,1,0,.034-.851Z" transform="translate(82.488 67.235)" fill="#263238"/><path d="M136.65,420.513c-2.621-3.642-7.522-2.025-10.33.323a35.733,35.733,0,0,0-10.347,15.317.187.187,0,0,0,.129.231.175.175,0,0,0,.041.007.815.815,0,0,0,.768.863.768.768,0,0,0,.271-.029c5.531-2.025,11.692-3.506,16.44-7.182C136.446,427.95,139.118,423.934,136.65,420.513Zm-11.709,11.913c-2.706,1.072-5.429,1.991-8.084,3.165,2.025-2.978,3.914-6.024,6.229-8.8a40.028,40.028,0,0,1,3.557-3.829c2.008-1.8,9.888-5.633,8.7,1.7-.6,4.033-7.182,6.484-10.4,7.743Z" transform="translate(81.389 56.577)" fill="#263238"/><path d="M108.338,432.618c5.514,2.366,11.913,2.263,17.716,2.859a.834.834,0,0,0,.841-.827.851.851,0,0,0-.041-.262.185.185,0,0,0,.117-.237l-.015-.036A35.9,35.9,0,0,0,113.121,421.9c-3.3-1.566-8.509-1.906-10.075,2.263S105.088,431.239,108.338,432.618Zm-3-4.782c-3-6.807,5.6-5.105,7.982-3.812a38.541,38.541,0,0,1,4.408,2.808,107.654,107.654,0,0,1,8.237,6.978c-2.876-.477-5.752-.681-8.628-1.038-3.455-.425-10.381-1.174-12.032-4.935Z" transform="translate(72.056 58.291)" fill="#263238"/><path d="M157.839,553.425H78.21s17.308-246.9,14.517-260.738c-4.578-22.651-1.532-48.673,9.19-61.266h70.848s1.413,19.877-5.905,31.756c0,0-6.654,4.2-9.871,6.059Z" transform="translate(54.891 -74.633)" fill="#a6a6a6"/><path d="M147.417,413.365c-11.028-.272-7.845-.357-18.89-.51-5.395-.085-40.844-.579-45.95.221-.119,0-.119.2,0,.221,5.105.868,40.538.749,45.95.715,11.028,0,7.862-.153,18.89-.323a.171.171,0,0,0,.109-.214A.173.173,0,0,0,147.417,413.365Z" transform="translate(57.893 52.544)" fill="#263238"/><path d="M141.164,248.276a136.134,136.134,0,0,0-19.928,11.794.229.229,0,0,0,.238.391c6.807-3.727,13.615-7.335,20.15-11.419a.447.447,0,0,0-.46-.766Z" transform="translate(85.01 -62.847)" fill="#263238"/><path d="M128.1,247.861a34.889,34.889,0,0,0-.953,4.187,9.032,9.032,0,0,0-.221,3.4c0,.221.357.2.459,0a11.752,11.752,0,0,0,1.089-3.4c.34-1.31.715-2.6,1-3.914C129.686,247.3,128.376,247.011,128.1,247.861Z" transform="translate(89.034 -63.453)" fill="#263238"/><path d="M127.529,246.669c.187-1.191.374-2.366.6-3.54s.528-2.451.647-3.676c0-.2.34-.136.306,0-.187,1.191-.2,2.417-.306,3.608s-.2,2.4-.323,3.591q-.36,3.37-1.055,6.688A8.026,8.026,0,0,0,130.661,252a6.293,6.293,0,0,0,1.7-3.4c.34-1.361.647-2.723,1-4.084a25.776,25.776,0,0,0,1.038-4.527c0-.2.34-.136.306,0a48.06,48.06,0,0,1-1.8,9.547,5.242,5.242,0,0,1-1.787,3.165,10.3,10.3,0,0,1-3.965,1.174c-.153,0-.391,0-.374-.187Q126.979,250.158,127.529,246.669Z" transform="translate(88.979 -69.085)" fill="#263238"/><path d="M99.424,286.248c-.511-5.208-1.361-10.381-1.923-15.589a97.011,97.011,0,0,1,1.872-31.178c0-.187-.255-.272-.289,0a115.691,115.691,0,0,0-2.791,27.366c.459,9.19,2.093,18.244,2.229,27.451s-.579,18.635-1.174,27.927-1.208,18.72-1.8,28.063c-2.417,37.594-4.646,75.187-6.944,112.8q-.952,15.725-1.838,31.484c-.613,10.671-1.361,21.358-1.7,32.063,0,.919,1.327.851,1.413,0,1.6-18.874,2.519-37.815,3.727-56.688s2.28-37.44,3.4-56.161,2.263-37.44,3.4-56.161q.817-14.022,1.7-28.046c.545-9.309,1.225-18.635,1.361-27.961A135.865,135.865,0,0,0,99.424,286.248Z" transform="translate(59.698 -69.097)" fill="#263238"/><path d="M117.516,239.033a.171.171,0,0,0-.235-.054.166.166,0,0,0-.054.054,12.325,12.325,0,0,0-.664,3.829,28.44,28.44,0,0,1-.97,4.118,16.421,16.421,0,0,1-4.255,7.148c-4.459,4.17-10.432,5.718-16.184,7.114a.187.187,0,0,0-.123.235.191.191,0,0,0,.123.122,25.615,25.615,0,0,0,10.041-1.566,20.878,20.878,0,0,0,7.743-4.34,14.4,14.4,0,0,0,4.187-7.573,24.366,24.366,0,0,0,.477-4.595v-2.212A5.815,5.815,0,0,0,117.516,239.033Z" transform="translate(66.691 -69.346)" fill="#263238"/><path d="M127.911,187.122c1.464,11.573,24.132,54.6,48.264,73.656,8.85,6.995,55.769,11.13,67.512,10.211,13.734-1.055,15.793-33.747,8.1-36.3-9.615-3.182-54.1-7.114-62.832-10.211-10.619-3.846-29.952-28.54-48.332-43.822C131.178,172.741,126.788,178.221,127.911,187.122Z" transform="translate(89.652 -112.942)" fill="#ad6359"/><path d="M199.814,250.776c4.34-.119,24.2-2.4,29.595-4.272s20.422-8.373,19.469-12.645-5.582-2.723-5.582-2.723,5.939-3.761,4.527-7.965-8.509-1.549-8.509-1.549,5.82-4.306,4.1-8.407-8.339-.238-8.339-.238,5.514-3.693,2.689-6.484c-3.4-3.4-12.8,4.612-18.89,6.229-1.4.374-28.625,5.463-28.625,5.463Z" transform="translate(133.525 -92.712)" fill="#ad6359"/><path d="M225.2,209.817c-6.926,5.82-10.96,7.182-19.775,8.39a.152.152,0,0,0-.094.2.151.151,0,0,0,.094.094c8.73-.408,14.04-1.379,20.065-8.356C225.742,209.8,225.47,209.545,225.2,209.817Z" transform="translate(144.101 -89.875)" fill="#263238"/><path d="M228.186,214.794c-7.709,5.514-12.066,6.927-21.154,8.918-.119,0-.085.255,0,.238,9.122-1.174,14.4-2.263,21.392-8.7C228.713,214.93,228.543,214.539,228.186,214.794Z" transform="translate(145.249 -86.359)" fill="#263238"/><path d="M230.151,220.739c-7.845,4.714-12.56,6.569-21.681,7.335a.17.17,0,0,0,0,.34,30.374,30.374,0,0,0,21.784-7.42C230.713,220.636,230.644,220.449,230.151,220.739Z" transform="translate(146.194 -82.229)" fill="#263238"/><path d="M186.55,214.591a111.716,111.716,0,0,1,14.346-7.845c4.8-1.7,25.051-1.7,25.272,2.689.306,5.65-11.385,7.914-17.257,8.288,0,0,.732,13.053-7.318,16.508S186.55,214.591,186.55,214.591Z" transform="translate(130.928 -92.691)" fill="#ad6359"/><path d="M219.442,208.828c-3.4,5.344-11.181,5.327-16.848,6.11a.509.509,0,0,0-.483.536.491.491,0,0,0,.058.213c0,5.5-1.7,13.223-6.552,16.474-.153.1,0,.323.119.238,5.633-2.791,7.914-10.211,7.59-16.287,5.82-.7,13.615-1.021,16.167-7.267C219.51,208.811,219.459,208.794,219.442,208.828Z" transform="translate(137.246 -90.502)" fill="#263238"/><path d="M203.481,270.773s-24.03-6.569-26.957-8.867a105.206,105.206,0,0,1-9.122-8.067c-21.869-21.494-35.075-50.8-38.649-61.011-3.778-10.875-.306-21.29,9.82-14.278a28.678,28.678,0,0,1,2.349,1.855c11.913,10.381,43.771,41.95,47.651,43.567s22.583,4.067,22.583,4.067Z" transform="translate(89.32 -113.339)" fill="#455a64"/><path d="M167.4,253.839c-21.869-21.494-35.075-50.8-38.649-61.011-3.778-10.875-.306-21.29,9.82-14.278Z" transform="translate(89.32 -113.339)" fill="#263238"/><path d="M175.537,206.293a89.3,89.3,0,0,0-2.774,10.024c-.834,3.4-1.7,6.807-2.4,10.211a181.627,181.627,0,0,0-3.4,20.235.153.153,0,0,0,.306,0c1.838-6.671,3.2-13.5,4.595-20.269.7-3.4,1.327-6.705,2.025-10.041s1.532-6.807,1.906-10.109a.13.13,0,0,0-.255-.051Z" transform="translate(117.179 -92.341)" fill="#263238"/><path d="M141.625,196.763c.562,2.519,1,5.106,1.344,7.76a1.836,1.836,0,0,1,0-.306c.136-1.447.238-2.927.494-4.357,0,0,.136-.085.136,0a22.455,22.455,0,0,1-.17,4.408c-.085.7-.17,1.4-.272,2.076.119,1.174.221,2.349.289,3.506.136,2.212.562,11.658.511,13.274,0,.34-.391.374-.477,0-.323-1.7-1.174-11.385-1.413-13.615a118.607,118.607,0,0,1-.647-12.8C141.454,196.661,141.591,196.678,141.625,196.763Z" transform="translate(99.254 -99.012)" fill="#263238"/><path d="M181.577,281.9c-3.4,3.063-7.556,7.539-31.45,9.207-1.5,0-3.029.119-4.561,0-23.009-.647-55.293-18.72-57.216-20.15,0,0,24.8-67.086,57.59-92.835,4.68-3.693,14.721-1.872,21,1.923,2.246,1.361,9.666,13.768,11.164,25.068S184.963,278.836,181.577,281.9Z" transform="translate(62.007 -113.454)" fill="#455a64"/><path d="M139.114,204.866c-5.786.477-14.074-9.53-16.8-17.018-.187-.511,1.31-5.395,2.842-11.419.919-3.659,1.855-7.743,2.434-11.538.119-.783,2.553,1.055,2.553,1.055l4.731,1.94,15.657,6.433a60.984,60.984,0,0,0-4.544,14.227,8.375,8.375,0,0,0,0,1.6,1.6,1.6,0,0,1,0,.255C145.938,193.413,144.7,204.356,139.114,204.866Z" transform="translate(85.835 -121.462)" fill="#ad6359"/><path d="M143.332,189.332a1.6,1.6,0,0,1,0,.255,14.831,14.831,0,0,1-2.468-.238c-16-2.808-14.857-23.519-14.857-23.519l6.3,1.242,15.657,6.433a60.985,60.985,0,0,0-4.544,14.227A8.531,8.531,0,0,0,143.332,189.332Z" transform="translate(88.424 -120.666)" fill="#263238"/><path d="M124.941,155.441c-3.046,8.407.2,33.288,5.99,39.142,8.39,8.509,22.771,9.922,30.071-.323,7.1-9.9,2.28-42.274-4.238-47.651C147.15,138.729,129.433,143.034,124.941,155.441Z" transform="translate(86.87 -136.945)" fill="#ad6359"/><path d="M138.306,160.28s-.119.1-.1.17c.255,1.7.289,3.625-1.174,4.374v.085C138.885,164.415,138.834,161.812,138.306,160.28Z" transform="translate(96.173 -124.561)" fill="#263238"/><path d="M137.529,159.361c-2.723.136-2.246,5.565.272,5.446S139.809,159.242,137.529,159.361Z" transform="translate(95.232 -125.208)" fill="#263238"/><path d="M143.856,159.62a.133.133,0,0,1,.136.136c.1,1.7.494,3.608,2.059,4.05h0C144.128,163.79,143.669,161.237,143.856,159.62Z" transform="translate(100.937 -125.025)" fill="#263238"/><path d="M145.22,158.52c2.689-.425,3.4,4.986.868,5.395S142.957,158.894,145.22,158.52Z" transform="translate(100.934 -125.814)" fill="#263238"/><path d="M136.19,158.663c.715-.255,1.344-.613,2.042-.936a3.574,3.574,0,0,0,1.889-1.327,1.139,1.139,0,0,0-.289-1.378,2.914,2.914,0,0,0-2.91,0,4.153,4.153,0,0,0-2.246,2.025,1.226,1.226,0,0,0,1.515,1.617Z" transform="translate(94.46 -128.526)" fill="#263238"/><path d="M147.547,158.861a19.488,19.488,0,0,1-2.212-.374,3.626,3.626,0,0,1-2.178-.817,1.159,1.159,0,0,1,0-1.4,2.807,2.807,0,0,1,2.791-.783,4.217,4.217,0,0,1,2.706,1.378,1.243,1.243,0,0,1-1.106,1.991Z" transform="translate(100.309 -127.993)" fill="#263238"/><path d="M136.665,169c.917.769,1.909,1.87,3.23,1.87a9.737,9.737,0,0,0,3.669-1.247m.184.184a4.951,4.951,0,0,1-4.44,2.349,3.891,3.891,0,0,1-3.157-2.936.374.374,0,0,1,.514-.22Z" transform="translate(95.556 -118.475)" fill="#263238"/><path d="M145.282,171.743a36.269,36.269,0,0,1,.323,3.693,25.51,25.51,0,0,0-6.807.953c-.511.17-.511-.272,0-.613a9.954,9.954,0,0,1,5.752-1.378,32.246,32.246,0,0,1-.391-3.863,10.606,10.606,0,0,1,2.672.63c-.528-5.242-1.889-10.364-2.349-15.589,0-.187.255-.255.306-.085a84.229,84.229,0,0,1,3.251,16.7C148.192,172.849,145.758,171.93,145.282,171.743Z" transform="translate(97.145 -127.992)" fill="#263238"/><path d="M129.2,178.015c4.289-.306,3.744-10.79,3.744-10.79s6.535-1.259,9.615-10.211c0,0,8.509,5.106,15.538,3.812,11.028-2.144,10.551-16.525,6.382-19.4-5.922-4.084-16.3,2.093-16.3,2.093s-15.861-4.2-20.422,6.552a8.119,8.119,0,0,0-7.454,8.186C119.89,166,126.016,178.236,129.2,178.015Z" transform="translate(84.416 -138.774)" fill="#263238"/><path d="M126.882,162.7a14.494,14.494,0,0,0,8.2-4.629,10.81,10.81,0,0,0,2.4-9.7.152.152,0,0,1,.2-.094.15.15,0,0,1,.094.094,12.491,12.491,0,0,1-1.7,10.517,10.213,10.213,0,0,1-9.224,4.187C126.746,162.991,126.695,162.736,126.882,162.7Z" transform="translate(88.962 -132.991)" fill="#263238"/><path d="M120.551,149.315c2.144-2.791,5.463-3.251,8.747-3.182.187,0,.187.306,0,.289a9.154,9.154,0,0,0-8.135,4.544c-1.7,2.621-1.208,5.871-.511,8.73A23.1,23.1,0,0,0,130,173.311m0,.119a22.941,22.941,0,0,1-10.483-14.857c-.664-3-.936-6.637,1.038-9.258Z" transform="translate(83.533 -134.495)" fill="#263238"/><path d="M136.43,144.513a10.856,10.856,0,0,1,6.025-4.731,12.922,12.922,0,0,1,9.19.817,7.318,7.318,0,0,1,3.914,6.178,12.954,12.954,0,0,1-2.808,8.2h-.1a12.757,12.757,0,0,0,2.161-7.454,6.687,6.687,0,0,0-4.016-5.888c-4.561-1.957-11.2-1.549-14.125,3.1C136.583,144.837,136.328,144.667,136.43,144.513Z" transform="translate(95.735 -139.292)" fill="#263238"/><path d="M131.331,164.82s-5.327-8.152-9.02-6.263.17,13.615,4.374,15.317a4.323,4.323,0,0,0,5.781-1.986c.026-.053.049-.106.073-.158Z" transform="translate(84.802 -125.97)" fill="#ad6359"/><path d="M122.35,160.39v.119a10.909,10.909,0,0,1,5.429,7.012,2.382,2.382,0,0,0-3.223-.98,2.222,2.222,0,0,0-.334.214v.153a2.655,2.655,0,0,1,2.893,1.021,12.834,12.834,0,0,1,1.327,2.417c.136.272.613.136.528-.17h0C129.208,166.312,126.417,160.9,122.35,160.39Z" transform="translate(85.87 -124.484)" fill="#263238"/><path d="M55.6,639.1H0V628.887H55.6c44.044,0,56.6-37.7,59.377-69.316,2.178-24.762,3.506-54.918,4.918-86.794,5.293-119.435,10.773-242.937,58.833-242.937h44.044v10.211H178.693c-38.291,0-44.248,134.769-48.622,233.152-1.43,32.046-2.774,62.3-4.952,87.3C120.694,611.171,96,639.1,55.6,639.1Z" transform="translate(0 -75.742)" fill="#ffc727"/><path d="M146.284,229.81v10.211H111.158L108.98,229.81Z" transform="translate(76.486 -75.763)" opacity="0.2" style="isolation:isolate"/><rect width="18.754" height="131.007" transform="translate(375.562 94.109)" fill="#ffc727"/><rect width="71.273" height="117.223" transform="translate(304.289 100.32)" fill="#ffc727"/><path d="M231.257,198.24V315.463h-17.7L205.61,198.24Z" transform="translate(144.305 -97.92)" opacity="0.2" style="isolation:isolate"/><rect width="52.876" height="20.882" transform="translate(196.324 148.704)" fill="#ffc727"/><rect width="52.876" height="20.882" transform="translate(196.324 148.721)" fill="#ffc727"/><path d="M135.52,247.545l1.736-20.865h16.831v20.865Z" transform="translate(95.113 -77.959)" opacity="0.2" style="isolation:isolate"/><path d="M201.519,305.108H156.9a10.465,10.465,0,0,1-10.466-10.466V213.566A10.465,10.465,0,0,1,156.9,203.1h44.622V305.108Z" transform="translate(102.77 -94.509)" fill="#ffc727"/><path d="M165.02,305.1l7.948-101.991h15.5V305.1Z" transform="translate(115.817 -94.502)" opacity="0.2" style="isolation:isolate"/><g transform="translate(265.01 129.218)" opacity="0.2"><rect width="3.523" height="60.756" transform="translate(19.929)"/><rect width="3.523" height="60.756" transform="translate(9.973)"/><rect width="3.523" height="60.756"/></g><path d="M114,195.545c-1.7,24.575-3.642,74.626,7.216,89.312,14.244,19.265,54.459,30.956,66.372,34.462,5.106,1.515,17.342-32.335,14.313-37.2s-44.537-15.317-47.8-18.176-13.615-42.75-18.533-63.07C129.2,175.242,114.7,185.845,114,195.545Z" transform="translate(79.076 -107.291)" fill="#ad6359"/><path d="M202.61,257.37c6.552,1.566,16.491-1.8,16.814,3.216.289,4.459-6.807,6.11-6.807,6.11s8.611.732,7.556,5.616-9.224,5.105-9.224,5.105,7.9,1.072,6.484,5.871-8.986,5.463-8.986,5.463,1.991,1.481-.528,4.425c-3.591,4.221-15.572,3.727-21.749,1.991s-27.57-12.7-30.82-14.449L166.191,240.9s12.44-1.974,18.873-2.212,27.825,4.867,26.923,10.211-15.963,1.532-19.86,1.4-4.578.732-2.876,2.161C190.357,253.455,199.7,256.672,202.61,257.37Z" transform="translate(109.031 -69.541)" fill="#ad6359"/><path d="M198.757,256.5c-10.058,1.7-14.755.579-23.979-3.4-.187-.085-.34.17-.153.272,8.679,4.68,14.381,6.807,24.234,3.591C199.353,256.824,199.251,256.433,198.757,256.5Z" transform="translate(122.499 -59.431)" fill="#263238"/><path d="M198.9,262.884c-10.6.766-15.691-.306-25.664-3.744-.136,0-.238.187-.1.255,9.513,4.169,15.231,6.195,25.732,4.033C199.345,263.344,199.4,262.85,198.9,262.884Z" transform="translate(121.469 -55.178)" fill="#263238"/><path d="M196.983,270.342c-10.33,0-15.963-.953-25.221-5.514a.187.187,0,0,0-.187.323c8.986,5.582,16.014,6.807,25.374,5.514C197.578,270.563,197.629,270.342,196.983,270.342Z" transform="translate(120.359 -51.199)" fill="#263238"/><path d="M156.624,312.618s-32.454-16.3-37.44-28.8c-6.127-15.589-8.628-61.045-6.246-84.36s18.618-20.422,23.826.187c5.106,20.116,16.627,60.3,17.818,62.185,1.515,2.434,20.031,7.012,20.031,7.012" transform="translate(78.638 -108.571)" fill="#455a64"/><path d="M141.736,243.668c-.562-1.923-1.549-6.263-2.11-8.135-1.14-3.744-2.28-7.505-3.4-11.249s-2.332-7.505-3.574-11.232c-.221-.63-.425-1.276-.63-1.906.1-.408-.357-5.344-.323-6.552,0-.187-.306-.2-.289,0a25.768,25.768,0,0,1-.119,3.625v.681c-.783-2.451-1.566-4.884-2.366-7.267,0-.17-.34-.1-.289,0,1.532,5.106,2.28,8.322,3.4,12.457s2.28,7.982,3.4,11.913,2.434,7.931,3.676,11.913a72.888,72.888,0,0,0,2.451,6.961C142.281,246.408,142.315,245.693,141.736,243.668Z" transform="translate(90.275 -95.611)" fill="#263238"/><path d="M117.979,256.131c-.664-4.2-1.327-8.509-1.838-12.662-1.038-8.509-1.7-16.882-2.076-25.391-.221-4.867-.579-9.7-.851-14.551a.187.187,0,1,0-.374,0h0c0,4.323-.153,8.628,0,12.951v1.889l-.2-.885c-.63-2.468-1.515-4.884-2.059-7.386a.136.136,0,0,0-.255.085c.613,2.485.936,5.105,1.515,7.539.306,1.242.613,2.485.953,3.727l.17.528c.1,2.485.221,4.969.391,7.454a209.142,209.142,0,0,0,2.944,25.425,100.31,100.31,0,0,0,4.442,16.15.135.135,0,0,0,.175.08.133.133,0,0,0,.08-.08C119.987,266.8,118.66,260.335,117.979,256.131Z" transform="translate(77.426 -94.34)" fill="#263238"/><path d="M152.155,233.478a88.015,88.015,0,0,0-4.765,9.462c-1.5,3.2-3.012,6.4-4.425,9.632a187.181,187.181,0,0,0-7.505,19.537.17.17,0,0,0,.151.187.168.168,0,0,0,.155-.068c3.165-6.3,5.871-12.849,8.628-19.333,1.361-3.2,2.672-6.433,4.016-9.632s2.876-6.416,3.914-9.717C152.36,233.444,152.207,233.393,152.155,233.478Z" transform="translate(95.071 -73.219)" fill="#263238"/></g><g transform="translate(369.139 57.292)"><path d="M250.511,192.287a.851.851,0,0,1-.851-.851V167.491a.851.851,0,1,1,1.7,0v23.945a.851.851,0,0,1-.851.851Z" transform="translate(-193.919 -166.64)" fill="#263238"/><path d="M229.989,197.738a.87.87,0,0,1-.749-.425l-11.913-20.745a.851.851,0,0,1,1.377-1,.818.818,0,0,1,.087.15L230.7,196.462a.834.834,0,0,1-.284,1.145l-.022.012A.787.787,0,0,1,229.989,197.738Z" transform="translate(-216.725 -160.621)" fill="#263238"/><path d="M217.712,298.035a.8.8,0,0,1-.425-.119.835.835,0,0,1-.247-1.154l.026-.037L228.979,276a.854.854,0,0,1,1.481.851l-11.913,20.728A.853.853,0,0,1,217.712,298.035Z" transform="translate(-216.906 -90.19)" fill="#263238"/><path d="M250.191,308.113a.851.851,0,0,1-.851-.851V283.351a.851.851,0,0,1,.851-.851.867.867,0,0,1,.851.851V307.3A.851.851,0,0,1,250.191,308.113Z" transform="translate(-194.143 -85.325)" fill="#263238"/><path d="M287.6,298.181a.849.849,0,0,1-.732-.425l-11.913-20.728a.854.854,0,0,1,1.481-.851l11.913,20.728a.834.834,0,0,1-.284,1.145l-.022.012A.8.8,0,0,1,287.6,298.181Z" transform="translate(-176.244 -90.064)" fill="#263238"/><path d="M275.931,197.836a.8.8,0,0,1-.425-.119.832.832,0,0,1-.318-1.135l.012-.022,11.913-20.745a.851.851,0,0,1,1.464.851l-11.913,20.745A.887.887,0,0,1,275.931,197.836Z" transform="translate(-176.078 -160.447)" fill="#263238"/></g></g><g transform="translate(1167.242 409.332)"><g transform="translate(555.14)"><path d="M1435.47,217.75" transform="translate(-1379.615 -196.398)" fill="#22bcb9"/><path d="M1395.85,181.17" transform="translate(-1363.122 -181.17)" fill="#22bcb9"/><path d="M1359.383,229.214a21.477,21.477,0,0,1,14.873-26.092,21.48,21.48,0,0,0-23.88,35.438l-.041,7.711,6.824-3.888a21.438,21.438,0,0,0,9.217,1.057l.018-3.175A21.465,21.465,0,0,1,1359.383,229.214Z" transform="translate(-1340.98 -189.253)" fill="#fff"/><path d="M1396.354,218.427a21.426,21.426,0,0,0-10.665-13.507,21.478,21.478,0,0,0-7.863,37.136l-.018,3.175a21.506,21.506,0,0,0,18.545-26.8Z" transform="translate(-1352.407 -191.057)" fill="#ffce00"/><path d="M1363.147,197.71c-.747.117-5.324.56-6.071.753a23.157,23.157,0,0,0-9.585,39.652l-.041,6.94a1.677,1.677,0,0,0,2.5,1.471l6.181-3.52a23.185,23.185,0,0,0,23.763-6.363,1.677,1.677,0,1,0-2.457-2.282,19.808,19.808,0,0,1-20.938,5.23,1.677,1.677,0,0,0-1.378.128l-4.3,2.452.029-4.8a1.677,1.677,0,0,0-.6-1.3,19.795,19.795,0,1,1,32.414-13.35,1.677,1.677,0,1,0,3.339.315,23.139,23.139,0,0,0-.66-8.026c-.2-.747-2.054-4.95-2.317-5.662" transform="translate(-1339.782 -188.055)"/><path d="M1399.7,209.348a23.234,23.234,0,0,0-19.881-11.628" transform="translate(-1356.449 -188.059)" fill="#42474c"/><path d="M1411.438,249.6a1.68,1.68,0,1,0,1.272.175A1.69,1.69,0,0,0,1411.438,249.6Z" transform="translate(-1369.091 -209.635)"/></g><g transform="translate(0 11.66)"><g transform="translate(13.665)"><path d="M1082.937,272.35a21.67,21.67,0,0,0-7.116,41.257,21.578,21.578,0,0,0,10.589-3.911l7.559,2.026-2.055-7.67-.07.07a21.669,21.669,0,0,0-8.907-31.772Z" transform="translate(-1033.011 -269.11)" fill="#0af"/><path d="M1024.768,339.463a15.938,15.938,0,0,1,15.585-15.936,15.942,15.942,0,0,0-23.81,20.95l-1.483,5.528,5.633-1.506a15.955,15.955,0,0,0,6.421,2.493l.607-2.277A15.908,15.908,0,0,1,1024.768,339.463Z" transform="translate(-1012.346 -288.65)" fill="#fff"/><path d="M1053.444,338.254a15.909,15.909,0,0,0-5.119-11.7,15.942,15.942,0,0,0-12.632,25.182l-.607,2.276a15.7,15.7,0,0,0,2.417.181A15.935,15.935,0,0,0,1053.444,338.254Z" transform="translate(-1020.318 -291.673)" fill="#f8afae"/><path d="M1070.7,312.74a6.344,6.344,0,0,0,6.345,6.345h0a6.344,6.344,0,0,0,6.345-6.345Z" transform="translate(-1036.12 -285.924)" fill="#fff"/><g transform="translate(32.286 19.315)"><path d="M1096.09,299.989c.052-.035.105-.064.163-.1" transform="translate(-1078.975 -299.89)" fill="#ffdcdc"/><path d="M1066.77,299.989c.053-.035.1-.064.163-.1" transform="translate(-1066.77 -299.89)" fill="#ffdcdc"/></g><path d="M1071.7,301.928a22.924,22.924,0,0,0-31.358-31.766,1.243,1.243,0,0,0,1.3,2.119,20.431,20.431,0,0,1,27.61,28.83,1.245,1.245,0,0,0,.035,1.442l1.366,5.1-5.475-1.465a1.255,1.255,0,0,0-1.045.187,20.448,20.448,0,0,1-18.9,2.51,17.255,17.255,0,0,0-12.089-12.089,20.46,20.46,0,0,1,1.8-17.833,1.246,1.246,0,1,0-2.119-1.313,22.952,22.952,0,0,0-2.475,18.632c-.56-.052-1.126-.082-1.7-.082a17.188,17.188,0,0,0-14.336,26.664l-1.331,4.973a1.243,1.243,0,0,0,1.524,1.524l5.1-1.366a17.186,17.186,0,0,0,18.253-.1,1.248,1.248,0,0,0-1.337-2.107,14.707,14.707,0,0,1-16.017-.181,1.248,1.248,0,0,0-1.016-.169l-3.549.952.922-3.444a1.252,1.252,0,0,0-.187-1.045,14.691,14.691,0,1,1,25.778-3.485,1.246,1.246,0,1,0,2.341.858,17.093,17.093,0,0,0,1.033-5.89c0-.572-.029-1.144-.082-1.7a22.942,22.942,0,0,0,19.344-2.936l7,1.88a1.243,1.243,0,0,0,1.523-1.523Z" transform="translate(-1011.46 -266.8)"/><path d="M1082.5,310.61h-12.684a1.244,1.244,0,0,0-1.243,1.243,7.588,7.588,0,1,0,15.177,0A1.246,1.246,0,0,0,1082.5,310.61Zm-6.339,6.339a5.108,5.108,0,0,1-4.944-3.853h9.888A5.109,5.109,0,0,1,1076.158,316.949Z" transform="translate(-1035.234 -285.037)"/><path d="M1095.2,300.339a1.226,1.226,0,0,0,.654-.187l.157-.1a1.247,1.247,0,0,0-1.307-2.125l-.164.1a1.251,1.251,0,0,0,.66,2.312Z" transform="translate(-1045.799 -279.681)"/><path d="M1065.393,297.94l-.163.1a1.246,1.246,0,0,0,.66,2.306,1.225,1.225,0,0,0,.654-.187l.157-.1a1.245,1.245,0,1,0-1.307-2.119Z" transform="translate(-1033.598 -279.687)"/><path d="M1027.4,344.828a1.24,1.24,0,1,0,.882-.368A1.271,1.271,0,0,0,1027.4,344.828Z" transform="translate(-1017.941 -299.128)" fill="#42474c"/><path d="M1039.128,344.828a1.24,1.24,0,1,0,.881-.368A1.309,1.309,0,0,0,1039.128,344.828Z" transform="translate(-1022.825 -299.128)" fill="#42474c"/><path d="M1050.857,344.828a1.24,1.24,0,1,0,.882-.368A1.309,1.309,0,0,0,1050.857,344.828Z" transform="translate(-1027.707 -299.128)" fill="#42474c"/><path d="M1061.289,361.58a1.255,1.255,0,1,0,.881.368A1.256,1.256,0,0,0,1061.289,361.58Z" transform="translate(-1031.683 -306.255)" fill="#42474c"/><path d="M1054.369,280.107a1.275,1.275,0,0,0,.881-.362,1.243,1.243,0,0,0-.881-2.125,1.276,1.276,0,0,0-.882.362,1.243,1.243,0,0,0,.882,2.125Z" transform="translate(-1028.802 -271.304)" fill="#42474c"/></g><g transform="translate(0 12.632)"><path d="M1039.91,288.44" transform="translate(-1009.638 -288.44)" fill="#22bcb9"/><path d="M988.05,308.76" transform="translate(-988.05 -296.899)" fill="#22bcb9"/><path d="M1021.561,344.185A22.187,22.187,0,0,1,1004.02,318.6a22.184,22.184,0,0,0,22.158,38.169l7.145,3.52-.537-8.1a22.065,22.065,0,0,0,5.137-8.09l-2.942-1.448A22.069,22.069,0,0,1,1021.561,344.185Z" transform="translate(-990.892 -300.995)" fill="#fff"/><path d="M1027.67,311.746a22.134,22.134,0,0,0-17.36,3.823,22.185,22.185,0,0,0,30.966,24.049l2.942,1.448a22.187,22.187,0,0,0-16.548-29.32Z" transform="translate(-997.176 -297.965)" fill="#ffce00"/><path d="M994.41,321.683c-.228.747-1.879,5.2-2.037,5.983a23.921,23.921,0,0,0,32.525,26.787l6.432,3.164a1.733,1.733,0,0,0,2.492-1.669l-.484-7.332a23.925,23.925,0,0,0,4.8-24.942,1.732,1.732,0,0,0-3.228,1.255,20.466,20.466,0,0,1-4.582,21.819,1.726,1.726,0,0,0-.5,1.337l.339,5.1-4.454-2.195a1.723,1.723,0,0,0-1.477-.023,20.448,20.448,0,1,1,2.206-36.144,1.734,1.734,0,0,0,1.8-2.965,23.891,23.891,0,0,0-7.757-3.006c-.782-.158-5.522-.327-6.3-.4" transform="translate(-989.659 -296.77)"/><path d="M1015.96,308.45a24.009,24.009,0,0,0-19.771,13.233" transform="translate(-991.438 -296.77)" fill="#42474c"/><path d="M1059.077,323.323a1.738,1.738,0,1,0,.736-1.1A1.74,1.74,0,0,0,1059.077,323.323Z" transform="translate(-1017.604 -302.379)" fill="#42474c"/></g><path d="M1010.109,348.3a2.114,2.114,0,1,0,1.494-.619A2.1,2.1,0,0,0,1010.109,348.3Z" transform="translate(-996.975 -300.469)"/><path d="M1030.019,348.3a2.114,2.114,0,1,0,1.494-.619A2.112,2.112,0,0,0,1030.019,348.3Z" transform="translate(-1005.263 -300.469)"/><path d="M1049.929,348.3a2.114,2.114,0,1,0,1.494-.619A2.136,2.136,0,0,0,1049.929,348.3Z" transform="translate(-1013.551 -300.469)"/></g><g transform="translate(559.519 68.291)"><path d="M1369.02,655.44" transform="translate(-1343.558 -585.445)" fill="#22bcb9"/><path d="M1427.82,628.34" transform="translate(-1368.035 -574.163)" fill="#22bcb9"/><path d="M1349.658,556.875a25.786,25.786,0,0,1,22.088,28.5,25.789,25.789,0,0,0-28.3-42.792l-8.534-3.6,1.173,9.357a25.608,25.608,0,0,0-5.411,9.736l3.514,1.483A25.624,25.624,0,0,1,1349.658,556.875Z" transform="translate(-1327.593 -536.969)" fill="#fff"/><path d="M1351.1,603.563a25.723,25.723,0,0,0,19.888-5.615,25.787,25.787,0,0,0-37.563-25.812l-3.514-1.482a25.8,25.8,0,0,0,21.189,32.91Z" transform="translate(-1326.831 -549.544)" fill="#0af"/><path d="M1378.787,574.877c.21-.887,1.827-6.158,1.955-7.081a27.808,27.808,0,0,0-39.565-28.877l-7.676-3.234a2,2,0,0,0-2,.251,2.022,2.022,0,0,0-.782,1.856l1.062,8.47a27.812,27.812,0,0,0-3.876,29.273,2.013,2.013,0,0,0,3.66-1.675,23.784,23.784,0,0,1,3.829-25.631,1.993,1.993,0,0,0,.49-1.588l-.736-5.9,5.318,2.242a2.009,2.009,0,0,0,1.716-.07,23.766,23.766,0,1,1-.111,42.08,2.017,2.017,0,1,0-1.885,3.567,27.624,27.624,0,0,0,9.205,2.959c.922.128,6.432,0,7.343.035" transform="translate(-1325.399 -535.527)"/><path d="M1379.09,619.644a27.911,27.911,0,0,0,22.047-16.694" transform="translate(-1347.749 -563.594)"/><path d="M1341.446,613.464a2.023,2.023,0,1,0-.782,1.331A2.014,2.014,0,0,0,1341.446,613.464Z" transform="translate(-1330.407 -567.016)"/><path d="M1389.716,579.3a2.443,2.443,0,0,0,1.278-.362l.309-.193a2.431,2.431,0,0,0-2.551-4.139l-.315.2a2.427,2.427,0,0,0,1.278,4.495Z" transform="translate(-1351.161 -551.646)"/><path d="M1353.613,574.612l-.315.2a2.436,2.436,0,0,0,2.563,4.144l.309-.193a2.437,2.437,0,0,0-2.557-4.15Z" transform="translate(-1336.533 -551.646)"/><path d="M1373.455,590.351a5.58,5.58,0,0,1-7.892,0,1.86,1.86,0,1,0-2.633,2.627,9.3,9.3,0,0,0,13.145,0,1.855,1.855,0,0,0-2.621-2.627Z" transform="translate(-1340.796 -558.122)"/></g></g></g></svg>