<svg xmlns="http://www.w3.org/2000/svg" xmlns:xlink="http://www.w3.org/1999/xlink" width="445" height="325.45" viewBox="0 0 445 325.45"><defs><clipPath id="a"><path d="M483.03,285.967a41.006,41.006,0,0,1-14.676,31.513,41.531,41.531,0,0,1-10.084,6.264c-.424.193-.862.373-1.286.54l-.707.27a37.393,37.393,0,0,1-7.2,1.942,38.086,38.086,0,0,1-7.2.656,39.551,39.551,0,0,1-4.3-.232,17.722,17.722,0,0,1-1.827-.231c-.72-.1-1.441-.219-2.161-.386a3.719,3.719,0,0,1-.656-.141c-1.08-.219-2.161-.5-3.216-.823s-2.264-.759-3.37-1.209l-.27-.129a3.675,3.675,0,0,1-.617-.257,34.564,34.564,0,0,1-3.962-1.994,41.16,41.16,0,0,1-5.441-67.888c.424-1.582.862-3.1,1.286-4.489-7.113-4.823-3.962-13.956-2.7-15.885s5.711,2.753,5.711,2.753,1.428-5.685,3.061-6.045,2.791,3.383,2.791,3.383,12.181-2.187,22.7-.322,14.149,13.274,14.149,13.274,5.466,2.019,6.688,6.238a7.1,7.1,0,0,1,0,2.868A41.16,41.16,0,0,1,483.03,285.967Z" transform="translate(-400.662 -230.171)" fill="none"/></clipPath><clipPath id="b"><path d="M216.059,348.745A41.919,41.919,0,1,1,152.8,312.73c1.942-6.251,7-12.206,18.239-15.023,22.02-5.505,26.908,10.38,27.371,12.1v.064h0a.141.141,0,0,1,0,.064,60.142,60.142,0,0,1,1.968,6.213A41.777,41.777,0,0,1,216.059,348.745Z" transform="translate(-132.216 -296.553)" fill="none"/></clipPath><clipPath id="c"><path d="M215.11,217.39h-3.717c-.373-4.746-3.383-12-2.572-8.335a36.313,36.313,0,0,1,.489,8.335H197.733a43.218,43.218,0,0,1-11.576,7.074,41.426,41.426,0,0,1-7.64,2.354,42.329,42.329,0,0,1-9.081.978,43.747,43.747,0,0,1-10.54-1.288,42.639,42.639,0,0,1-12.188-5.143,39.268,39.268,0,0,1-5.531-4h-3.859a20.092,20.092,0,0,1-.116-3.859c-.386-.45-.759-.875-1.132-1.286-.412,1.878-.707,3.756-.913,5.145h-6.8a39.024,39.024,0,0,1,2.187-13.557,43.591,43.591,0,0,1,8.592-50.935c3.769-6.663,9.119-9.827,10.38-11h.064c8.168-11.846,22.432-13.724,33.314-9.685l.283.09c11.7,4.039,19.937,15.371,21.416,24.632.09.656.18,1.286.27,1.9a43.449,43.449,0,0,1,6.959,35.68C215.689,204.991,215.11,217.39,215.11,217.39Z" transform="translate(-125.869 -130.26)" fill="none"/></clipPath></defs><g transform="translate(-118.732 -130.191)"><g transform="translate(225.719 175.388)"><path d="M238.67,346.688H417.008V272.15H238.67v74.538Z" transform="translate(-191.388 -134.753)" fill="#455a64"/><path d="M377.32,294.132V272.15H400.2Z" transform="translate(-151.7 -134.753)" fill="#455a64"/><rect width="151.134" height="1.415" transform="translate(60.878 150.285)" fill="#fff"/><rect width="107.504" height="1.415" transform="translate(60.878 157.925)" fill="#fff"/><rect width="133.859" height="1.415" transform="translate(60.878 173.231)" fill="#fff"/><rect width="151.134" height="1.415" transform="translate(60.878 180.872)" fill="#fff"/><rect width="151.134" height="1.415" transform="translate(60.878 188.525)" fill="#fff"/><rect width="92.918" height="1.415" transform="translate(60.878 196.178)" fill="#fff"/><rect width="178.338" height="62.897" transform="translate(22.895)" fill="#ffc727"/><path d="M224.825,187.325V165.33h-22.9Z" transform="translate(-201.904 -165.33)" fill="#ffc727"/><rect width="116.006" height="1.415" transform="translate(36.761 11.615)" fill="#fff"/><rect width="151.134" height="1.415" transform="translate(36.761 19.268)" fill="#fff"/><rect width="151.134" height="1.415" transform="translate(36.761 26.921)" fill="#fff"/><rect width="134.49" height="1.415" transform="translate(36.761 34.561)" fill="#fff"/><rect width="151.134" height="1.415" transform="translate(36.761 42.215)" fill="#fff"/><rect width="96.25" height="1.415" transform="translate(36.761 49.868)" fill="#fff"/><rect width="178.338" height="46.639" transform="translate(22.895 73.072)" fill="#ffc727"/><path d="M224.825,244.122V222.14h-22.9Z" transform="translate(-201.904 -149.068)" fill="#ffc727"/><rect width="150.761" height="1.415" transform="translate(36.761 84.686)" fill="#fff"/><rect width="113.64" height="1.415" transform="translate(36.761 92.339)" fill="#fff"/><rect width="130.991" height="1.415" transform="translate(36.761 99.98)" fill="#fff"/><rect width="87.542" height="1.415" transform="translate(36.761 107.633)" fill="#fff"/><rect width="178.338" height="43.025" transform="translate(22.895 226.43)" fill="#ffc727"/><path d="M224.805,363.352V341.37h-22.9Z" transform="translate(-201.91 -114.94)" fill="#ffc727"/><rect width="139.455" height="1.415" transform="translate(36.761 238.045)" fill="#fff"/><rect width="103.337" height="1.415" transform="translate(36.761 245.685)" fill="#fff"/><rect width="129.756" height="1.415" transform="translate(36.761 253.339)" fill="#fff"/></g><g transform="translate(481.348 258.79)"><circle cx="41.186" cy="41.186" r="41.186" transform="translate(0 14.61)" fill="#a6a6a6"/><path d="M441.84,283.91h0" transform="translate(-388.86 -214.789)" fill="none" stroke="#f5a79e" stroke-linecap="round" stroke-linejoin="round" stroke-width="0"/><g transform="translate(0.016)" clip-path="url(#a)"><path d="M425.694,295.477l3.64,16.515L455.985,292.3l9.557,8.8s-21.4,24.966-38.767,24.966c-9.107,0-10.894-20.9-10.894-20.9Z" transform="translate(-396.306 -212.387)" fill="#ffc727"/><path d="M427.952,319.208c6.7,2.084,19.114-7.512,24.31-15.628.347-.553-.116-6.714-.322-14.213-.116-4.553-.129-9.634.193-14.264.077-.952-29.584,5.042-29.584,5.042a73.65,73.65,0,0,1,1.569,18.007,9.654,9.654,0,0,1-.334,1.891v.309C422.936,303.889,421.482,317.189,427.952,319.208Z" transform="translate(-394.397 -217.339)" fill="#dd6a57"/><path d="M450.436,275.06c-2.019,8.078-8.386,26.445-23.68,25.725a18.163,18.163,0,0,1-2.971-.373V300.1a8.653,8.653,0,0,0,.334-1.891v-.077a54.02,54.02,0,0,0-.206-9,87.78,87.78,0,0,0-1.363-8.862h0l.193-.129C425.071,279.639,444.493,275.729,450.436,275.06Z" transform="translate(-394.397 -217.322)" fill="#263238"/><path d="M458.2,249.9c3.576,10.187-.6,40.208-7.653,47.167-10.226,10.084-27.6,11.743-36.324-.695-8.463-12.052-2.328-51.09,5.608-57.482C431.539,229.486,452.9,234.863,458.2,249.9Z" transform="translate(-397.945 -229.011)" fill="#dd6a57"/><path d="M455.555,276.244c-7.036-1.068-6.508-14.046-6.508-14.046s-11.795-3.782-12.206-13.133c0,0-12.554,5.621-21.082,1.016s-5.145-14.522-3.859-16.554,5.711,2.753,5.711,2.753,1.428-5.685,3.061-6.045,2.791,3.383,2.791,3.383,12.194-2.174,22.689-.322S460.3,246.571,460.3,246.571s5.454,2.032,6.7,6.251S460.031,276.875,455.555,276.244Z" transform="translate(-397.947 -230.16)" fill="#263238"/><path d="M441.84,283.91h0" transform="translate(-388.875 -214.789)" fill="none" stroke="#f5a79e" stroke-linecap="round" stroke-linejoin="round" stroke-width="0"/><path d="M425.081,262.594c0-.077.141.116.129.193-.334,2.019-.386,4.386,1.363,5.3v.116C424.4,267.585,424.489,264.408,425.081,262.594Z" transform="translate(-393.776 -220.895)" fill="#263238"/><path d="M427.189,261.131c3.293.193,2.675,6.753-.373,6.586S424.437,260.964,427.189,261.131Z" transform="translate(-393.75 -221.31)" fill="#263238"/><path d="M416.47,262c0-.077-.167.077-.167.167-.129,2.032-.617,4.348-2.572,4.849v.116C416.058,267.008,416.65,263.934,416.47,262Z" transform="translate(-396.922 -221.065)" fill="#263238"/><path d="M415.27,260.2c-3.254-.553-4.129,5.981-1.119,6.5S417.984,260.673,415.27,260.2Z" transform="translate(-397.33 -221.586)" fill="#263238"/><path d="M429.985,260.093a26.655,26.655,0,0,1-2.457-1.132,4.374,4.374,0,0,1-2.29-1.646,1.389,1.389,0,0,1,.386-1.659,3.473,3.473,0,0,1,3.5,0,5.145,5.145,0,0,1,2.714,2.47,1.492,1.492,0,0,1-1.852,1.968Z" transform="translate(-393.664 -223.012)" fill="#263238"/><path d="M413.23,258.368a23.653,23.653,0,0,0,2.675-.437,4.322,4.322,0,0,0,2.637-.952,1.376,1.376,0,0,0,.077-1.7,3.447,3.447,0,0,0-3.357-.978,5.145,5.145,0,0,0-3.28,1.646,1.492,1.492,0,0,0,1.248,2.418Z" transform="translate(-397.515 -223.294)" fill="#263238"/><path d="M426.013,277.406c-.527.424-1.08,1.029-1.826,1.029a5.609,5.609,0,0,1-2.135-.72s-.129,0-.09.09a2.727,2.727,0,0,0,2.47,1.35,2.174,2.174,0,0,0,1.775-1.646C426.245,277.393,426.09,277.342,426.013,277.406Z" transform="translate(-394.567 -216.658)" fill="#263238"/><path d="M426.524,277.718a6.946,6.946,0,0,1-4.952,2.572,9.119,9.119,0,0,1-2.508-.141l-.476-.1-.437-.116a.527.527,0,0,1-.36-.5h0a.966.966,0,0,1,0-.206h0v-.167c.116-1.582.527-3.949.527-3.949-.6.232-3.666,1.286-3.537.424,1.132-6.74,2.38-14.226,4.913-20.683a.193.193,0,0,1,.373.09c-.823,6.508-2.791,12.862-3.717,19.371a12.155,12.155,0,0,1,3.37-.656c.219.09-.862,4.566-.862,5.274V279c2.573.617,4.669,0,7.409-1.466C426.511,277.409,426.64,277.564,426.524,277.718Z" transform="translate(-396.622 -223.144)" fill="#263238"/><path d="M418.91,274.614a8.219,8.219,0,0,0,3.151,2.765,3.653,3.653,0,0,0,2.238.283c1.659-.334,1.788-1.827,1.569-3.126a9.235,9.235,0,0,0-.6-2.007,10.714,10.714,0,0,1-6.354,2.084Z" transform="translate(-395.439 -218.046)" fill="#263238"/><path d="M421.36,276.933a3.653,3.653,0,0,0,2.238.283c1.659-.334,1.788-1.826,1.569-3.126a3.859,3.859,0,0,0-3.807,2.843Z" transform="translate(-394.738 -217.6)" fill="#ff99ba"/><path d="M443.7,267.244s6.521-9.788,10.946-7.486-.322,16.4-5.415,18.432a5.235,5.235,0,0,1-7.061-2.663Z" transform="translate(-388.781 -221.802)" fill="#dd6a57"/><path d="M452.57,262.88c.077,0,.09.1,0,.141-3.576,1.531-5.389,4.913-6.637,8.412,1.042-1.363,2.482-2.122,4.3-.888.09.064,0,.219-.09.193a3.2,3.2,0,0,0-3.512,1.209,14.56,14.56,0,0,0-1.633,2.894c-.167.322-.746.167-.63-.206a.245.245,0,0,1,0-.09C444.222,269.954,447.643,263.459,452.57,262.88Z" transform="translate(-388.157 -220.808)" fill="#263238"/><path d="M425.379,294.235l3.576,17.081,24.58-21.956,6.123,6.894s-23.976,34.729-24.13,33.172l-7.28-14.7-10.1,10.393L422.2,299.29Z" transform="translate(-395.656 -213.229)" fill="#fff"/><path d="M422.14,297.616c0-.154.3-.232.3,0-.232,5.274-3.589,20.4-3.524,24.31h0c.424-.45,9.351-9.158,9.454-9,1.556,2.328,6.868,13.03,7.229,14.007,3.4-5,19.165-25.571,23.011-30.793a.147.147,0,1,1,.257.141c-2.855,5.814-22.779,32.825-23.037,32.748a163.779,163.779,0,0,1-7.473-15.654c-1.505,1.891-10.509,11.7-10.547,11.074C417.483,320.177,420.7,302.9,422.14,297.616Z" transform="translate(-395.762 -211.31)" fill="#263238"/></g></g><g transform="translate(118.731 337.113)"><circle cx="41.906" cy="41.906" r="41.906" transform="translate(0 59.264) rotate(-45)" fill="#a6a6a6"/><path d="M155.49,347.68h0" transform="translate(-108.21 -274.858)" fill="none" stroke="#f5a79e" stroke-linecap="round" stroke-linejoin="round" stroke-width="0"/><g transform="translate(17.344 7.06)" clip-path="url(#b)"><path d="M182.006,358.879,178.289,375.6,152.95,358.21l-6.29,9.287s16.58,22.432,34.24,22.432c9.274,0,11.087-21.262,11.087-21.262Z" transform="translate(-128.081 -278.904)" fill="#ffc727"/><path d="M176.374,383.636c-6.817,2.122-19.448-7.64-24.734-15.9-.36-.566.116-6.83.334-14.47.1-4.63.129-9.788-.206-14.5-.064-.978,3.344.579,3.344.579l6.2,1.042,20.5,3.511s-2.212,10.071-1.595,18.278a9.89,9.89,0,0,0,.334,1.929v.309C181.467,368.06,183.011,381.6,176.374,383.636Z" transform="translate(-126.694 -284.56)" fill="#eb9481"/><path d="M180.141,363.755v.322a18.841,18.841,0,0,1-3.023.373c-19.937.939-24.169-24.194-24.169-24.194l7.885-.206,20.5,3.5s-2.212,10.084-1.595,18.29a9.594,9.594,0,0,0,.4,1.916Z" transform="translate(-126.281 -284.102)" fill="#263238"/><path d="M150.016,313.08c-3.64,10.354.6,40.9,7.782,47.99,10.406,10.29,28.079,11.949,36.967-.707,8.6-12.271,2.354-51.99-5.724-58.486C177.143,292.308,155.405,297.774,150.016,313.08Z" transform="translate(-127.501 -296.389)" fill="#eb9481"/><path d="M155.49,347.68h0" transform="translate(-125.554 -281.918)" fill="none" stroke="#f5a79e" stroke-linecap="round" stroke-linejoin="round" stroke-width="0"/><path d="M172.918,326c0-.077-.141.116-.129.193.334,2.058.386,4.463-1.389,5.389v.116C173.664,331.072,173.574,327.869,172.918,326Z" transform="translate(-121 -288.128)" fill="#263238"/><path d="M171.428,324.511c-3.344.193-2.714,6.868.386,6.688S174.232,324.343,171.428,324.511Z" transform="translate(-121.632 -288.551)" fill="#263238"/><path d="M181.918,325.376c0-.09.18.077.18.167.129,2.071.63,4.425,2.573,4.939v.116C182.343,330.495,181.712,327.357,181.918,325.376Z" transform="translate(-117.999 -288.31)" fill="#263238"/><path d="M183.569,323.558c3.306-.566,4.193,6.084,1.132,6.611S180.752,324.034,183.569,323.558Z" transform="translate(-118.004 -288.833)" fill="#263238"/><path d="M169.092,323.442c.888-.322,1.659-.759,2.508-1.158a4.438,4.438,0,0,0,2.315-1.672,1.415,1.415,0,0,0-.386-1.685,3.524,3.524,0,0,0-3.563,0,5.145,5.145,0,0,0-2.753,2.508,1.518,1.518,0,0,0,1.878,2.006Z" transform="translate(-122.229 -290.286)" fill="#263238"/><path d="M186.278,321.694a27.092,27.092,0,0,1-2.714-.437,4.463,4.463,0,0,1-2.688-.978,1.428,1.428,0,0,1-.09-1.736,3.524,3.524,0,0,1,3.434-.978,5.068,5.068,0,0,1,3.318,1.659,1.518,1.518,0,0,1-1.261,2.47Z" transform="translate(-118.385 -290.57)" fill="#263238"/><path d="M172.564,341.056c.54.437,1.093,1.055,1.852,1.055a5.517,5.517,0,0,0,2.174-.733.068.068,0,1,1,.1.09,2.791,2.791,0,0,1-2.572,1.376,2.212,2.212,0,0,1-1.8-1.672A.164.164,0,0,1,172.564,341.056Z" transform="translate(-120.736 -283.821)" fill="#263238"/><path d="M173.563,342.154c2.109,1.711,9.158,1.711,9.184,1.479l-.579-4.952c.617.244,3.7,1.286,3.576.463-1.055-6.843-2.238-14.457-4.746-21.056a.193.193,0,0,0-.373.09c.759,6.624,2.675,13.068,3.55,19.705a12.538,12.538,0,0,0-3.421-.695c-.219.09.823,4.643.823,5.364a21.658,21.658,0,0,1-7.589-1.016C173.177,341.279,173,341.7,173.563,342.154Z" transform="translate(-120.475 -290.425)" fill="#263238"/><path d="M154.093,337.929c2.572-.656,5.068-9.21,5.145-17.519,0-5.338,2.187-12.078,8.142-14.084,3.962-1.286,10.856,1.929,14.792.965s4.669-3.216,7-3.151,4.926,5.788,4.926,5.788-4.155-18.085-27.41-12.271c-24.439,6.135-19.577,27.114-17.223,33.841C151.289,336.694,154.093,337.929,154.093,337.929Z" transform="translate(-127.861 -296.567)" fill="#263238"/><path d="M156.878,330.774s-6.65-9.956-11.152-7.615.334,16.721,5.518,18.741a5.3,5.3,0,0,0,7.177-2.688Z" transform="translate(-128.859 -289.039)" fill="#eb9481"/><path d="M146.45,326.28a.077.077,0,0,0,0,.142c3.64,1.569,5.492,5.016,6.766,8.566-1.068-1.376-2.572-2.161-4.373-.9-.1,0,0,.219.09.193a3.293,3.293,0,0,1,3.576,1.222,16.978,16.978,0,0,1,1.659,2.945c.154.334.759.18.643-.206a.18.18,0,0,1,0-.09C154.888,333.483,151.454,326.872,146.45,326.28Z" transform="translate(-128.155 -288.044)" fill="#263238"/></g></g><g transform="translate(127.913 130.191)"><circle cx="43.591" cy="43.591" r="43.591" transform="translate(0.014 10.379)" fill="#a6a6a6"/><path d="M214.561,217.289h-3.717c-.386-4.746-3.4-12-2.572-8.348a36.349,36.349,0,0,1,.476,8.348H145.773c-.733-7.139,2.457-18.882,2.457-18.882-3.64,5.9-5.042,14.277-5.569,18.882h-5.942c-.617-4.27.9-11.576.9-11.576-1.634,2.868-2.572,8.258-3.048,11.576H127.8c-.257-7.139,2.174-16.528,7.872-25.043,4.566-6.83-1.093-10.8-.978-24.1.116-17.7,12.258-24.439,14.277-26.342,27.461-25.442,52.389-1.826,55.064,14.985,2.572,16.438-2.148,18.612,5.492,33.545C215.307,201.481,214.561,217.289,214.561,217.289Z" transform="translate(-125.321 -130.07)" fill="#263238"/><path d="M137.7,207.8a1.283,1.283,0,0,1,.18.129c9.132,6.225,27.165,17.171,36.812,13.7,7.422-2.675,11.769-10.29,12.271-12.747-3.859-3.473-9.454-6.637-11.924-8.283C160.8,191.131,147.977,196.8,137.7,207.8Z" transform="translate(-122.483 -111.411)" fill="#455a64"/><path d="M148.493,209.164c.643,2.109,11.795,15.319,21.545,14.213,3.177-.373,1.942-17.8,1.942-17.8l.206-1.286,2.83-18.3L152.93,173.8l-3.19-1.595s-.437,5.055-.926,11.358l-.077.9c0,.36-.077.695-.09,1.029-.09.939-.167,1.9-.232,2.855,0,.733-.1,1.441-.129,2.212s-.077,1.518-.116,2.29a119.862,119.862,0,0,0,.322,16.31Z" transform="translate(-119.526 -118.163)" fill="#ad6359"/><path d="M148.64,183.528a37.185,37.185,0,0,0,23.371,20.721l2.83-18.3-22.085-12.181-3.19-1.595S149.1,177.264,148.64,183.528Z" transform="translate(-119.352 -118.175)" fill="#263238"/><path d="M199.792,167.146c5.145,32.156-13.544,38.78-20.477,39.874-6.277.99-27.809,3.576-36.195-27.834s4.926-43.912,19.178-46.948S194.7,135.054,199.792,167.146Z" transform="translate(-121.678 -129.808)" fill="#ad6359"/><path d="M146.878,181.832c8.039-.965,8.335-25.944,8.335-29.018.09,1.942.656,12.168,1.479,12.515a8.026,8.026,0,0,0,2.482-.695h0a25.015,25.015,0,0,1,0-3.679c0-.566.322,1.209.81,3.4.45-.167.926-.36,1.453-.54a29.4,29.4,0,0,1,.129-7.833c.154-.978.772,3.344,2.007,7.049a98.38,98.38,0,0,1,20.811-5.467c1.994-.244,3.743-.36,5.286-.412-.244-3.023-.862-6.2-.579-5.531a29.584,29.584,0,0,1,1.724,5.492h2.3c-.141-4.27-2.727-10.895-1.968-9.917a30.176,30.176,0,0,1,4.991,10.136c2.945.322,3.859.823,3.859.064,0-1.363-2.572-13.133-12.618-21.107-10.869-8.644-31.179-9.364-41.3,6.2,0,0-8.824,6.869-9.48,16.811S142.273,182.373,146.878,181.832Z" transform="translate(-122.811 -130.191)" fill="#263238"/><path d="M177.867,174.052a9.081,9.081,0,0,1-3,3.473,4.154,4.154,0,0,1-2.405.643c-1.852-.116-2.225-1.711-2.174-3.164a10.135,10.135,0,0,1,.36-2.264,11.7,11.7,0,0,0,7.216,1.312Z" transform="translate(-113.155 -118.011)" fill="#fff"/><path d="M182.447,156.91a18.756,18.756,0,0,1-2.225-.27,3.64,3.64,0,0,1-2.212-.707,1.158,1.158,0,0,1-.129-1.415,2.868,2.868,0,0,1,2.753-.913,4.193,4.193,0,0,1,2.765,1.286,1.286,1.286,0,0,1-.952,2.019Z" transform="translate(-111.034 -123.507)" fill="#263238"/><path d="M165.508,159.059c.746-.154,1.415-.424,2.135-.643a3.7,3.7,0,0,0,2.071-1.093,1.158,1.158,0,0,0-.129-1.4,2.868,2.868,0,0,0-2.868-.424,4.219,4.219,0,0,0-2.508,1.724,1.286,1.286,0,0,0,1.3,1.839Z" transform="translate(-114.932 -123.007)" fill="#263238"/><path d="M169.5,164.284c0-.077-.167.129-.154.219.322,2.187.309,4.746-1.595,5.7-.064,0,0,.141,0,.129C170.164,169.712,170.139,166.3,169.5,164.284Z" transform="translate(-113.891 -120.437)" fill="#263238"/><path d="M167.916,162.66c-3.563.129-3.048,7.254.257,7.139S170.913,162.557,167.916,162.66Z" transform="translate(-114.537 -120.897)" fill="#263238"/><path d="M167.233,163.006c-.592.437-1.145,1.2-1.891,1.286a3,3,0,0,1-2.187-1.222c0-.077-.129,0-.116.09.077,1.363.695,2.727,2.174,2.83s2.225-1.2,2.47-2.572C167.722,163.225,167.478,162.878,167.233,163.006Z" transform="translate(-115.23 -120.806)" fill="#263238"/><path d="M178.646,162.724c0-.077.18.1.18.193,0,2.212.527,4.733,2.572,5.338v.116C178.929,168.229,178.35,164.834,178.646,162.724Z" transform="translate(-110.783 -120.884)" fill="#263238"/><path d="M180.414,160.836c3.537-.5,4.283,6.611,1,7.074S177.507,161.26,180.414,160.836Z" transform="translate(-110.789 -121.426)" fill="#263238"/><path d="M181.3,161.25c.6.309,1.286.939,1.9.913s1.286-.862,1.7-1.646c0-.077.116,0,.129.064.167,1.351-.129,2.817-1.4,3.216s-2.161-.72-2.572-2.032C180.911,161.52,181.065,161.147,181.3,161.25Z" transform="translate(-110.089 -121.519)" fill="#263238"/><path d="M169.78,177.386c.54.514,1.08,1.209,1.891,1.286a5.955,5.955,0,0,0,2.367-.63.077.077,0,0,1,.09.116,2.945,2.945,0,0,1-2.765,1.286,2.354,2.354,0,0,1-1.8-1.9A.14.14,0,0,1,169.78,177.386Z" transform="translate(-113.365 -116.689)" fill="#263238"/><path d="M178.046,175.354s.733,3.254.862,4.8c0,.154-.347.257-.875.322h-.064a7.409,7.409,0,0,1-7.409-2.161c-.116-.141,0-.322.219-.232a11.113,11.113,0,0,0,6.907,1.363c.077-.437-1.441-5.531-1.2-5.569a13.917,13.917,0,0,1,3.6.5c-1.286-6.83-3.743-13.377-4.965-20.194a.219.219,0,0,1,.4-.141c3.01,6.7,4.708,14.522,6.264,21.532C181.995,176.461,178.689,175.56,178.046,175.354Z" transform="translate(-113.09 -123.391)" fill="#263238"/><path d="M168.361,177.171a9.685,9.685,0,1,1,9.467-12.014h0a9.7,9.7,0,0,1-7.074,11.731A10.134,10.134,0,0,1,168.361,177.171Zm.116-18.072a8.206,8.206,0,0,0-2.071.244,8.4,8.4,0,1,0,2.071-.244Z" transform="translate(-116.46 -122.288)" fill="#ffc727"/><path d="M185.09,175.16c-3.7,0-7.036-3.859-7.589-8.862a11.473,11.473,0,0,1,1.286-6.946,6.045,6.045,0,0,1,10.29-1.145,11.576,11.576,0,0,1,2.778,6.508c.579,5.3-2.148,9.981-6.1,10.419a3.585,3.585,0,0,1-.669.026Zm-.862-18.007a3.039,3.039,0,0,0-.489,0,5.145,5.145,0,0,0-3.859,2.817,10.29,10.29,0,0,0-1.132,6.161c.514,4.6,3.563,8.052,6.8,7.717s5.467-4.4,4.965-9a10.367,10.367,0,0,0-2.457-5.775,5.325,5.325,0,0,0-3.833-1.916Z" transform="translate(-111.118 -122.85)" fill="#ffc727"/><path d="M173.626,165.09l-.926-.887c1.286-1.389,4.515-3.409,7.139-1.158l-.849.978C176.649,161.99,173.755,164.974,173.626,165.09Z" transform="translate(-112.464 -121.076)" fill="#ffc727"/><path d="M140.569,171.738l-1.209-.463c.219-.553,2.2-5.518,5.016-6.3s20.065-1.029,20.811-1.042v1.286c-4.991.077-18.432.424-20.477.99S141.1,170.451,140.569,171.738Z" transform="translate(-122.008 -120.533)" fill="#ffc727"/><path d="M149.855,171.494s-7.795-9.621-12.206-6.766,1.955,17.146,7.486,18.766a5.505,5.505,0,0,0,7.139-3.473Z" transform="translate(-122.92 -120.456)" fill="#ad6359"/><path d="M138.83,167.76a.077.077,0,0,0,0,.141c3.859,1.286,6.135,4.63,7.717,8.168-1.222-1.286-2.8-1.981-4.579-.514a.118.118,0,1,0,.116.206,3.37,3.37,0,0,1,3.859.913,15.81,15.81,0,0,1,1.981,2.868c.206.322.8.1.643-.27v-.09C148.258,174.358,144.04,167.876,138.83,167.76Z" transform="translate(-122.173 -119.437)" fill="#263238"/><g transform="translate(0 0.089)" clip-path="url(#c)"><path d="M186.963,207.408c-.5,2.418-4.849,10.058-12.271,12.721-9.647,3.486-27.693-7.46-36.825-13.673l-.167-.129a51.061,51.061,0,0,1,5.647-5.248,42.639,42.639,0,0,0,12.194,5.145,43.732,43.732,0,0,0,10.534,1.286,42.33,42.33,0,0,0,9.081-.978,41.427,41.427,0,0,0,7.64-2.354A44.414,44.414,0,0,1,186.963,207.408Z" transform="translate(-122.483 -109.988)" fill="#455a64"/><path d="M171.185,205.349c-.09,4.27-.617,8.451-2.161,8.618-6.3.72-13.184-4.54-17.454-8.927a43.735,43.735,0,0,0,10.534,1.286,42.333,42.333,0,0,0,9.081-.978Z" transform="translate(-118.513 -108.854)" fill="#dd6a57"/></g></g></g></svg>