<svg xmlns="http://www.w3.org/2000/svg" width="445" height="362.708" viewBox="0 0 445 362.708"><g transform="translate(-2206 -1071)"><g transform="translate(2206 1071)"><g transform="translate(144.026 0)"><path d="M290.18,271.782c1.31,3.8-.119,9.926,2.869,9.8,2.66-.089,3.236-4.4,3.236-4.4s.923,5.063,3.752,4.159,2.511-5.757,2.511-5.757.576,4.249,3.335,3.147,3.246-5.281,3.246-5.281.993,1.1,2.6-.556c2.293-2.372,1.32-9.44-.07-13.013s-9.093-15.614-10.3-17.441l-22.99,8.7s-.467,7.484-.238,11.306,4.467,16.21,7.614,15.366,0-9.539-.308-11.842.179-2.76,1.122-1.826C287.172,264.774,289.6,270.135,290.18,271.782Z" transform="translate(-171.198 -79.357)" fill="#ad6359"/><path d="M296.325,277.145c.377-6.055-.5-8.775-3.365-14.026-.06-.1.079-.208.149-.1,3.276,4.874,4.874,8.13,3.5,14.165C296.553,277.473,296.305,277.433,296.325,277.145Z" transform="translate(-171.308 -79.508)" fill="#263238"/><path d="M302.623,276.008c-.149-6.333-1.082-9.291-3.673-15.009,0-.079.089-.149.139-.069,2.978,5.39,4.536,8.676,3.851,15.019C302.911,276.236,302.633,276.3,302.623,276.008Z" transform="translate(-171.352 -79.493)" fill="#263238"/><path d="M309.265,273.53c-.586-6.115-1.469-9.4-4.7-14.622a.11.11,0,0,1,.179-.129c3.822,4.963,4.963,9.093,4.705,14.721C309.434,273.888,309.3,273.888,309.265,273.53Z" transform="translate(-171.393 -79.477)" fill="#263238"/><path d="M262.746,170.105c15.5,19.178,36.47,66.179,38.981,72.87,1.707,4.546-22.116,14.105-22.831,10.84-.893-4.169-16.468-56.084-20.131-75.441C256.77,167.633,259.539,166.145,262.746,170.105Z" transform="translate(-171.051 -78.81)" fill="#ad6359"/><path d="M258.573,183.242c2.551,17.719,17.778,66.874,17.778,66.874l18.056-6.869,9.112-3.474s-25.809-49.086-36.658-65.346c-.844-1.251-1.618-2.333-2.333-3.236C257.68,162.476,256.608,169.594,258.573,183.242Z" transform="translate(-171.048 -78.805)" fill="#455a64"/><path d="M294.788,235.182a7.515,7.515,0,0,1,0-3.832,7.514,7.514,0,0,1,0,3.832Z" transform="translate(-171.319 -79.276)" fill="#fff"/><path d="M261.748,172.742a6.751,6.751,0,0,1-.248-1.926,6.683,6.683,0,0,1,.248-1.916,7.557,7.557,0,0,1,0,3.842Z" transform="translate(-171.076 -78.816)" fill="#fff"/><path d="M282.1,225.328a7.514,7.514,0,0,1,3.832,0A7.515,7.515,0,0,1,282.1,225.328Z" transform="translate(-171.228 -79.229)" fill="#fff"/><path d="M272.66,200.628a7.554,7.554,0,0,1,3.842,0,6.392,6.392,0,0,1-1.916.248A6.75,6.75,0,0,1,272.66,200.628Z" transform="translate(-171.158 -79.048)" fill="#fff"/><path d="M287.31,214.78a6.947,6.947,0,0,1-1.529-1.181,6.62,6.62,0,0,1-1.181-1.529,7.594,7.594,0,0,1,2.71,2.71Z" transform="translate(-171.246 -79.134)" fill="#fff"/><path d="M268.16,184.45a6.948,6.948,0,0,1-1.529-1.181,6.62,6.62,0,0,1-1.181-1.529,6.619,6.619,0,0,1,1.529,1.181A6.948,6.948,0,0,1,268.16,184.45Z" transform="translate(-171.105 -78.911)" fill="#fff"/><path d="M273.9,234.36a7.524,7.524,0,0,1-2.72-2.71,6.679,6.679,0,0,1,1.539,1.181,7.218,7.218,0,0,1,1.181,1.529Z" transform="translate(-171.147 -79.278)" fill="#fff"/><path d="M274.58,214a7.275,7.275,0,0,1-1.181,1.539,6.948,6.948,0,0,1-1.539,1.181A7.445,7.445,0,0,1,274.58,214Z" transform="translate(-171.152 -79.148)" fill="#fff"/><path d="M286.6,241a7.524,7.524,0,0,1-2.71,2.72,6.739,6.739,0,0,1,1.181-1.539A6.95,6.95,0,0,1,286.6,241Z" transform="translate(-171.241 -79.347)" fill="#fff"/><path d="M266.79,191.32a7.594,7.594,0,0,1-2.71,2.71,7.593,7.593,0,0,1,2.71-2.71Z" transform="translate(-171.095 -78.981)" fill="#fff"/><path d="M275.48,245.319c10.721-5.053,22.741-8.725,24.816-9.519a.083.083,0,1,1,.05.159c-2.055.675-15.336,6.363-24.816,9.529C275.42,245.528,275.38,245.369,275.48,245.319Z" transform="translate(-171.179 -79.308)" fill="#263238"/><path d="M292.651,243.913l-16.3,6.2s-15.227-49.156-17.778-66.874c-1.29-8.934-1.271-15.088.824-15.793Z" transform="translate(-171.048 -78.805)" fill="#263238"/><path d="M245.56,381.23v36.648c0,7,.06,13.143.4,16.309a.129.129,0,0,0,0,.06,4.963,4.963,0,0,0,.506,2.164h0c2.075,1.429,58.04,3.345,60.015,2.75s.447-6.264-1.668-8.07-23.218-12.12-23.218-12.12l-.357-36.609Z" transform="translate(-170.959 -80.378)" fill="#dd6a57"/><path d="M245.57,410.57v7.524c0,7,.06,13.143.4,16.309a.129.129,0,0,0,0,.06,9.438,9.438,0,0,0,.506,2.164h0c2.075,1.429,58.04,3.345,60.015,2.75s.447-6.264-1.668-8.07-23.218-12.12-23.218-12.12l.1-7.633Z" transform="translate(-170.959 -80.594)" fill="#455a64"/><path d="M306.548,439.47c-1.985.6-57.931-1.32-60.015-2.75-.8-.526-.993-8.7-.993-18.572v-.308l36.112.824v.615s21.094,10.314,23.218,12.12S308.533,438.894,306.548,439.47Z" transform="translate(-170.959 -80.648)" fill="#455a64"/><path d="M306.008,437.417c-9.43-.556-47.5-1.906-56.849-1.737-.079,0-.079.05,0,.06,9.331.754,47.409,1.787,56.849,1.826C306.2,437.566,306.207,437.427,306.008,437.417Z" transform="translate(-170.985 -80.779)" fill="#263238"/><path d="M284.917,419.507c-3.683-.824-8.239-.407-11.167,2.134-.119.1,0,.258.149.228a51.621,51.621,0,0,1,10.959-1.876.245.245,0,1,0,.059-.486Z" transform="translate(-171.166 -80.657)" fill="#263238"/><path d="M287.537,421.217c-3.693-.814-8.249-.4-11.177,2.144-.109.1,0,.258.149.228a51.549,51.549,0,0,1,11-1.9.239.239,0,0,0,.03-.476Z" transform="translate(-171.185 -80.67)" fill="#263238"/><path d="M290.177,422.937c-3.683-.814-8.249-.4-11.177,2.144-.109.1,0,.258.159.228a51.346,51.346,0,0,1,10.989-1.9.239.239,0,1,0,.03-.476Z" transform="translate(-171.205 -80.683)" fill="#263238"/><path d="M242.33,244.265l1.4,109.459.824,64.522,39.17-.774-7.663-175.39L275.673,222H242.6Z" transform="translate(-170.935 -79.207)" fill="#dbdbdb"/><path d="M282.113,412.329c-6.115-.05-4.368-.119-10.482-.109-2.978,0-22.662.079-25.451.576a.06.06,0,1,0,0,.119c2.8.437,22.463,0,25.451,0,6.115-.139,4.358-.169,10.472-.367a.109.109,0,1,0,.01-.218Z" transform="translate(-170.963 -80.607)" fill="#263238"/><path d="M264.8,251.24a.065.065,0,0,1,.129,0c0,10.234.318,20.478.566,30.712s.546,20.478.824,30.722c.556,20.458,1.38,40.917,2.134,61.375q.635,17.212,1.588,34.415c0,.069-.109.069-.119,0-1.479-20.438-2.908-40.877-3.712-61.355s-1.4-40.927-1.5-61.4C264.66,274.219,264.819,262.734,264.8,251.24Z" transform="translate(-171.1 -79.421)" fill="#263238"/><path d="M242.33,244.265l1.4,109.459L269.985,222H242.6Z" transform="translate(-170.935 -79.207)" fill="#263238"/><path d="M237.215,382.323s-4.675,34.911-4.675,34.931c0,7.008-.208,13.143-.586,16.319a.109.109,0,0,1,0,.05,4.963,4.963,0,0,1-.526,2.154v.05c-2.094,1.4-58.079,2.67-60.045,2.055s-.377-6.264,1.757-8.05S196.5,417.979,196.5,417.979l5.876-36.579Z" transform="translate(-170.406 -80.38)" fill="#dd6a57"/><path d="M233.135,410c-.367,4.378-.615,7.475-.615,7.494,0,7.008-.208,13.143-.586,16.319a.109.109,0,0,1,0,.05,9.4,9.4,0,0,1-.526,2.154v.05c-2.094,1.4-58.079,2.67-60.045,2.055s-.377-6.264,1.757-8.05,23.357-11.852,23.357-11.852l.695-7.723Z" transform="translate(-170.406 -80.59)" fill="#455a64"/><path d="M171.313,438.145c1.985.615,57.94-.655,60.045-2.055.8-.526,1.092-8.686,1.161-18.572v-.308l-36.122.417v.615s-21.213,10.065-23.357,11.852S169.338,437.539,171.313,438.145Z" transform="translate(-170.406 -80.643)" fill="#455a64"/><path d="M171.909,436.092c9.43-.447,47.508-1.35,56.859-1.082.079,0,.079.06,0,.06-9.341.645-47.428,1.251-56.868,1.181C171.71,436.241,171.71,436.1,171.909,436.092Z" transform="translate(-170.416 -80.774)" fill="#263238"/><path d="M192.538,417.828c3.7-.774,8.259-.308,11.157,2.273.109.1,0,.258-.159.218a52.1,52.1,0,0,0-10.969-1.985.254.254,0,0,1-.03-.506Z" transform="translate(-170.567 -80.645)" fill="#263238"/><path d="M189.878,419.517c3.7-.784,8.249-.318,11.147,2.263.119.109,0,.258-.149.228a52.106,52.106,0,0,0-10.969-1.985.254.254,0,1,1-.03-.506Z" transform="translate(-170.547 -80.658)" fill="#263238"/><path d="M187.218,421.207c3.693-.784,8.249-.318,11.147,2.263.109.1,0,.258-.149.228a52.082,52.082,0,0,0-10.979-1.985.253.253,0,1,1-.02-.506Z" transform="translate(-170.528 -80.67)" fill="#263238"/><path d="M271.955,222h0c-.139.685-2.452,11.415-4.854,20.637-1.747,6.73-3.534,12.656-4.566,13.262s-6.849,3.206-8.755,3.971L245.094,343,233.44,417.789l-39.08-2.045L225.7,222Z" transform="translate(-170.582 -79.207)" fill="#dbdbdb"/><path d="M233.253,412.058c-6.1-.4-4.348-.367-10.452-.695-2.978-.159-22.622-1.2-25.441-.864a.06.06,0,1,0,0,.119c2.769.6,22.424,1.29,25.412,1.39,6.115.218,4.368.089,10.472.228a.089.089,0,1,0,.01-.179Z" transform="translate(-170.604 -80.593)" fill="#263238"/><path d="M210.98,389.6q1.429-8.011,2.889-16.021,2.978-16.031,5.956-32.042,6.015-32.062,11.912-64.145c2.2-12.09,2.144-10.919,4.06-23.089,0-.079.149-.069.139,0-1.846,10.78-.993,8.418-2.71,19.218s-3.554,21.372-5.469,32.033c-3.841,21.421-7.872,42.8-11.912,64.184q-1.707,8.993-3.474,17.967c-1.191,6.115-2.551,12.18-3.812,18.275,0,.139-.238.119-.218,0C209.154,400.516,209.988,395.046,210.98,389.6Z" transform="translate(-170.685 -79.444)" fill="#263238"/><path d="M221.619,255c.993-.258,2.114-.347,3.157-.506.844-.139,1.688-.288,2.521-.467a11.067,11.067,0,0,0,4.437-1.866,10.562,10.562,0,0,0,2.879-4.477c.417-.993.844-1.985,1.28-2.908.208-.467.417-.933.635-1.4a16.125,16.125,0,0,0,.794-1.678c0-.089.159,0,.119,0-.159.387-.228.814-.347,1.211s-.278.993-.427,1.41c-.258.844-.516,1.678-.784,2.511a19.944,19.944,0,0,1-1.787,4.4c-1.539,2.462-4.3,3.444-7.058,3.792-.784.1-1.588.159-2.382.208a17.866,17.866,0,0,1-2.978,0C221.5,255.259,221.45,255.041,221.619,255Z" transform="translate(-170.782 -79.351)" fill="#263238"/><path d="M265.993,254.64a73.825,73.825,0,0,0-11.713,5.45.131.131,0,1,0,.109.238c3.971-1.688,7.941-3.315,11.812-5.221a.258.258,0,0,0-.208-.467Z" transform="translate(-171.022 -79.447)" fill="#263238"/><path d="M267.21,227.419c0-.139-.248-.169-.248,0a131.161,131.161,0,0,1-.662,13.147c-.181,2.061-1.819,13.287-5.343,12.473-.586-.139-.883-.715-.993-1.608a14.6,14.6,0,0,1,.467-3.444c.4-2.353.7-4.705.913-7.087a63.88,63.88,0,0,0-.149-13.282.119.119,0,0,0-.228,0,120.479,120.479,0,0,1-1.072,18.344c-.437,2.918-1.906,7.316,1.142,7.772s5.132-6.948,5.509-8.934a67.075,67.075,0,0,0,.665-17.381Z" transform="translate(-171.059 -79.246)" fill="#263238"/><path d="M261.062,253.508a18.994,18.994,0,0,0-.794,2.333,5.29,5.29,0,0,0-.328,1.916c0,.119.179.129.238,0a6.562,6.562,0,0,0,.814-1.777c.268-.715.546-1.429.794-2.154a.4.4,0,0,0-.725-.318Z" transform="translate(-171.065 -79.437)" fill="#263238"/><path d="M220.449,240.161c.139.149,58.943-1.707,59.459-2.323.715-.883-11.912-59.281-21.838-71.649-2.5-3.087-10.919-3.971-14.225-.5-9.579,9.926-11.306,17.054-13.6,23.675-1.7,4.894-3.623,13.212-5.311,21.719C222.117,225.1,219.943,239.625,220.449,240.161Z" transform="translate(-170.774 -78.776)" fill="#455a64"/><path d="M262.088,226.692a6.68,6.68,0,0,1-.248-1.916,6.352,6.352,0,0,1,.248-1.916,7.515,7.515,0,0,1,0,3.832Z" transform="translate(-171.079 -79.213)" fill="#fff"/><path d="M255.2,199.572a7.058,7.058,0,0,1-.248-1.916,7.13,7.13,0,0,1,.248-1.926,6.75,6.75,0,0,1,.248,1.926A6.682,6.682,0,0,1,255.2,199.572Z" transform="translate(-171.028 -79.013)" fill="#fff"/><path d="M236.608,188.842a6.679,6.679,0,0,1-.248-1.916,6.748,6.748,0,0,1,.248-1.926,6.752,6.752,0,0,1,.248,1.926,7.057,7.057,0,0,1-.248,1.916Z" transform="translate(-170.891 -78.935)" fill="#fff"/><path d="M236.858,221.422a7.514,7.514,0,0,1,0-3.832,6.681,6.681,0,0,1,.248,1.916,7.058,7.058,0,0,1-.248,1.916Z" transform="translate(-170.893 -79.174)" fill="#fff"/><path d="M247.75,216.208a7.514,7.514,0,0,1,3.832,0A7.514,7.514,0,0,1,247.75,216.208Z" transform="translate(-170.975 -79.162)" fill="#fff"/><path d="M234,200.178a7.554,7.554,0,0,1,3.842,0,7.554,7.554,0,0,1-3.842,0Z" transform="translate(-170.874 -79.044)" fill="#fff"/><path d="M253.27,182a6.68,6.68,0,0,1,1.916-.248A6.314,6.314,0,0,1,257.1,182a7.514,7.514,0,0,1-3.832,0Z" transform="translate(-171.016 -78.911)" fill="#fff"/><path d="M232.53,233.528a7.553,7.553,0,0,1,3.841,0,7.554,7.554,0,0,1-3.842,0Z" transform="translate(-170.863 -79.29)" fill="#fff"/><path d="M259.12,236.648a7.557,7.557,0,0,1,3.842,0,6.682,6.682,0,0,1-1.916.248A6.75,6.75,0,0,1,259.12,236.648Z" transform="translate(-171.059 -79.313)" fill="#fff"/><path d="M251.03,233.51a6.74,6.74,0,0,1-1.539-1.181,6.948,6.948,0,0,1-1.181-1.529,6.679,6.679,0,0,1,1.539,1.181,7.216,7.216,0,0,1,1.181,1.529Z" transform="translate(-170.979 -79.272)" fill="#fff"/><path d="M230.89,211.98a7.524,7.524,0,0,1-2.72-2.71,6.74,6.74,0,0,1,1.539,1.181A6.948,6.948,0,0,1,230.89,211.98Z" transform="translate(-170.831 -79.113)" fill="#fff"/><path d="M263.09,209.65a7.525,7.525,0,0,1-2.71-2.72,6.95,6.95,0,0,1,1.529,1.181,6.681,6.681,0,0,1,1.181,1.539Z" transform="translate(-171.068 -79.096)" fill="#fff"/><path d="M247.73,190.25a7.524,7.524,0,0,1-2.72-2.71,6.681,6.681,0,0,1,1.539,1.181,7.216,7.216,0,0,1,1.181,1.529Z" transform="translate(-170.955 -78.953)" fill="#fff"/><path d="M273.9,234.36a7.524,7.524,0,0,1-2.72-2.71,6.679,6.679,0,0,1,1.539,1.181,7.218,7.218,0,0,1,1.181,1.529Z" transform="translate(-171.147 -79.278)" fill="#fff"/><path d="M274.58,214a7.275,7.275,0,0,1-1.181,1.539,6.948,6.948,0,0,1-1.539,1.181A7.445,7.445,0,0,1,274.58,214Z" transform="translate(-171.152 -79.148)" fill="#fff"/><path d="M245.98,206.16a7.594,7.594,0,0,1-2.71,2.71,6.621,6.621,0,0,1,1.181-1.529A6.95,6.95,0,0,1,245.98,206.16Z" transform="translate(-170.942 -79.09)" fill="#fff"/><path d="M225.91,224.94a7.594,7.594,0,0,1-2.71,2.71,7.594,7.594,0,0,1,2.71-2.71Z" transform="translate(-170.794 -79.228)" fill="#fff"/><path d="M266.79,191.32a7.594,7.594,0,0,1-2.71,2.71,7.593,7.593,0,0,1,2.71-2.71Z" transform="translate(-171.095 -78.981)" fill="#fff"/><path d="M244.61,175.38a6.948,6.948,0,0,1-1.181,1.539A7.217,7.217,0,0,1,241.9,178.1a6.74,6.74,0,0,1,1.181-1.539A6.948,6.948,0,0,1,244.61,175.38Z" transform="translate(-170.932 -78.864)" fill="#fff"/><path d="M255.365,173.521c-2.432.476-8.219-3.345-10.79-6.948a63.434,63.434,0,0,1-.208-6.482c-.06-2.085-.179-4.387-.447-6.492,0-.437,1.519.179,1.519.179l2.8.318,9.261,1.072a33.8,33.8,0,0,0-.268,8.219,4.477,4.477,0,0,0,.2.854s0,.089,0,.139C257.9,166.027,259.177,172.767,255.365,173.521Z" transform="translate(-170.947 -78.702)" fill="#ad6359"/><path d="M257.435,164.285v.139a8.451,8.451,0,0,1-1.35.238c-8.934.9-11.405-10.234-11.405-10.234l3.524-.288,9.261,1.072a33.8,33.8,0,0,0-.268,8.219,4.478,4.478,0,0,0,.238.854Z" transform="translate(-170.952 -78.707)" fill="#263238"/><path d="M241.457,135.663c-1.429,4.715,1.092,18.314,4.447,21.342,4.874,4.387,12.825,4.785,16.537-1.062,3.613-5.668,0-23.327-3.732-26.077C253.18,125.816,243.561,128.7,241.457,135.663Z" transform="translate(-170.926 -78.515)" fill="#ad6359"/><path d="M253.567,143.11s-.06.06,0,.1c.238.9.347,1.985-.4,2.462v.05C254.1,145.353,253.934,143.924,253.567,143.11Z" transform="translate(-171.015 -78.626)" fill="#263238"/><path d="M252.533,142.34c-1.489.218-.943,3.176.437,2.978S253.784,142.161,252.533,142.34Z" transform="translate(-171.004 -78.621)" fill="#263238"/><path d="M259,141.91s.079,0,.079.07c.139.923.457,1.985,1.34,2.1v.05C259.387,144.183,259,142.813,259,141.91Z" transform="translate(-171.058 -78.617)" fill="#263238"/><path d="M259.635,140.8c1.459-.387,2.114,2.541.774,2.9S258.424,141.117,259.635,140.8Z" transform="translate(-171.058 -78.609)" fill="#263238"/><path d="M251.1,141.183c.387-.179.715-.407,1.072-.615a2.182,2.182,0,0,0,.993-.844.625.625,0,0,0-.238-.735,1.6,1.6,0,0,0-1.6.129,2.3,2.3,0,0,0-1.122,1.231.675.675,0,0,0,.893.834Z" transform="translate(-170.993 -78.595)" fill="#263238"/><path d="M260.44,139.427c-.417,0-.814-.05-1.231-.079A1.985,1.985,0,0,1,258,138.99a.645.645,0,0,1-.109-.774,1.578,1.578,0,0,1,1.489-.576,2.243,2.243,0,0,1,1.549.615.675.675,0,0,1-.486,1.171Z" transform="translate(-171.049 -78.586)" fill="#263238"/><path d="M254.309,151.83c.258.179.526.437.864.4a2.5,2.5,0,0,0,.943-.407h.05a1.251,1.251,0,0,1-1.072.7.993.993,0,0,1-.864-.675S254.27,151.81,254.309,151.83Z" transform="translate(-171.023 -78.69)" fill="#263238"/><path d="M254.76,148.811a3.186,3.186,0,0,0,2.343.993,3.673,3.673,0,0,0,1.132-.159.724.724,0,0,0,.208-.06l.2-.069a.218.218,0,0,0,.139-.238h0a.29.29,0,0,0,0-.089h0v-.079c-.109-.7-.377-1.767-.377-1.767.278.079,1.707.427,1.618.07a48.444,48.444,0,0,0-2.978-9.222.089.089,0,0,0-.169.06c.606,2.928,1.717,5.728,2.372,8.656a5.5,5.5,0,0,0-1.558-.169c-.089,0,.556,2.035.576,2.362h0a4.378,4.378,0,0,1-3.4-.407C254.76,148.672,254.7,148.751,254.76,148.811Z" transform="translate(-171.026 -78.59)" fill="#263238"/><path d="M257.747,149.456a3.713,3.713,0,0,1-1.261,1.419,1.648,1.648,0,0,1-.993.258c-.764-.06-.913-.725-.883-1.33a3.841,3.841,0,0,1,.169-.933A4.894,4.894,0,0,0,257.747,149.456Z" transform="translate(-171.025 -78.669)" fill="#263238"/><path d="M243.2,145.937c3.137-.506,2.859-6.293,2.859-6.293s5.251-1.717,5.4-5.9c0,0,5.628,2.472,9.42.387s2.243-6.492,1.648-7.4-2.551,1.241-2.551,1.241-.645-2.531-1.38-2.68-1.231,1.509-1.231,1.509a33.8,33.8,0,0,0-10.125-.069c-4.685.864-6.273,5.956-6.273,5.956s-2.432.923-2.978,2.809S241.206,146.255,243.2,145.937Z" transform="translate(-170.903 -78.495)" fill="#263238"/><path d="M244.849,139.945c4.249-.089,6.591-3.3,6.571-7.375h.079c.457,3.742-2.372,8.418-6.661,7.574a.1.1,0,1,1,.01-.2Z" transform="translate(-170.953 -78.549)" fill="#263238"/><path d="M241.063,132.67s.079.05,0,.079c-1.082.715-2.353,1.33-2.978,2.521-.794,1.439-.318,3.087.278,4.487.923,2.174,2.551,4.963,4.775,5.956.129.06,0,.248-.1.2-2.64-1.052-4.646-4.646-5.39-7.256C236.815,135.717,238.413,133.732,241.063,132.67Z" transform="translate(-170.899 -78.549)" fill="#263238"/><path d="M256.338,134.214a6.2,6.2,0,0,0,6.343-1.092c1.985-1.876,1.1-4.328-.179-6.283-.06-.1.069-.228.159-.139,1.578,1.648,2.124,4.447.576,6.313s-4.814,2.382-7.028,1.479C256,134.413,256.16,134.135,256.338,134.214Z" transform="translate(-171.037 -78.505)" fill="#263238"/><path d="M244.367,146.865s-3.167-4.328-5.142-3.186.486,7.465,2.849,8.279a2.382,2.382,0,0,0,3.167-1.35Z" transform="translate(-170.907 -78.629)" fill="#ad6359"/><path d="M240,145.48s-.05.06,0,.07a6.055,6.055,0,0,1,3.206,3.693,1.31,1.31,0,0,0-1.985-.308c-.05,0,0,.089,0,.079a1.469,1.469,0,0,1,1.628.476,7.814,7.814,0,0,1,.8,1.29c.079.139.337.06.278-.109h0C243.97,148.537,242.243,145.649,240,145.48Z" transform="translate(-170.918 -78.644)" fill="#263238"/><path d="M257.634,165.174l-2.382,8.239L244.4,164.38l-2.472,3.494s11.237,14.959,11.217,14.234l2.581-7.157,5.191,4.278-1.578-11.912Z" transform="translate(-170.932 -78.783)" fill="#ebebeb"/><path d="M260.471,173.326c-.328-1.985-.605-3.971-.993-5.867,0-.069-.129-.089-.129,0-.208,1.936,1.082,9.4,1.251,11.207h0c-.218-.189-4.785-3.742-4.824-3.673-.6,1.151-2.492,6.363-2.611,6.829-1.777-2.372-9.242-11.693-11.286-13.9-.06-.06-.159,0-.109.079,1.608,2.541,11.286,14.89,11.4,14.81a75.192,75.192,0,0,0,2.69-7.564c.794.8,5.46,4.864,5.44,4.566A61.381,61.381,0,0,0,260.471,173.326Z" transform="translate(-170.931 -78.805)" fill="#263238"/><path d="M234.365,173.073c-4.794-4.963-15.694-23.4-15.455-34.246.179-8.467,4.5-31.834,7.137-37.8,1.191-2.71,19.188,8.993,19.327,12.16s-6.949,22.94-7.782,27.873c-.4,2.333,1.1,14.324,4.636,25.243C245.414,176.14,240.222,179.1,234.365,173.073Z" transform="translate(-170.763 -78.314)" fill="#ad6359"/><path d="M224.77,105.8c.526-2.591,3.971-14.225,5.7-17.242s7.187-11.366,9.629-10.314.993,3.633.993,3.633,2.879-3.157,5.241-1.866,0,5.221,0,5.221,3.2-2.978,5.46-1.568-.744,4.963-.744,4.963,2.8-2.9,4.159-.913c1.638,2.392-4.11,7.157-5.728,10.631-.367.794-6.3,16.537-6.3,16.537Z" transform="translate(-170.806 -78.148)" fill="#ad6359"/><path d="M251.526,88.388c-4.219,3.514-5.46,5.787-7.127,10.919,0,.1-.189.079-.159,0,1.171-5.192,2.313-8.259,7.127-11.108C251.6,88,251.724,88.219,251.526,88.388Z" transform="translate(-170.949 -78.222)" fill="#263238"/><path d="M246.853,85c-4.06,4.03-5.43,6.482-7.564,11.743,0,.069-.159,0-.139-.05,1.668-5.33,2.879-8.368,7.465-11.912C246.823,84.621,247.042,84.77,246.853,85Z" transform="translate(-170.912 -78.197)" fill="#263238"/><path d="M241.1,82.118c-3.653,4.2-5.261,6.819-6.68,12.19,0,.129-.228.089-.2,0A18.423,18.423,0,0,1,240.95,82C241.218,81.8,241.327,81.86,241.1,82.118Z" transform="translate(-170.875 -78.176)" fill="#263238"/><path d="M244.226,118.89s5.211-4.775,6.77-7.445,3.673-14.79,1.082-15.4c-3.345-.784-5.956,5.956-6.79,9.44,0,0-7.733-1.817-10.651,2.621S244.226,118.89,244.226,118.89Z" transform="translate(-170.875 -78.28)" fill="#ad6359"/><path d="M251.087,96.129c-3.564,1.489-4.378,6.115-5.44,9.43a.318.318,0,0,1-.5.169c-3.286-.546-8.09-.357-10.552,2.174a.089.089,0,0,1-.129-.109c2.273-3.057,6.948-3.633,10.542-2.8.993-3.415,2.065-8.021,6.065-8.934C251.1,96.09,251.107,96.12,251.087,96.129Z" transform="translate(-170.877 -78.28)" fill="#263238"/><path d="M221.625,109.44l22.96,11.912s-5.956,16.587-6.452,19.674,5.092,24.955,5.867,29.591-10.919,20.845-11.842,12.7-13.282-32.588-13.9-40.9S221.625,109.44,221.625,109.44Z" transform="translate(-170.758 -78.378)" fill="#455a64"/><path d="M236,150.772a6.729,6.729,0,0,1-.248-1.916A6.422,6.422,0,0,1,236,146.93a7.127,7.127,0,0,1,.248,1.926,7.522,7.522,0,0,1-.248,1.915Z" transform="translate(-170.887 -78.654)" fill="#fff"/><path d="M229.538,123.972a7.515,7.515,0,0,1,0-3.832A7.515,7.515,0,0,1,229.538,123.972Z" transform="translate(-170.839 -78.457)" fill="#fff"/><path d="M238.22,159.828a7.515,7.515,0,0,1,3.832,0,7.514,7.514,0,0,1-3.832,0Z" transform="translate(-170.905 -78.747)" fill="#fff"/><path d="M232.48,134.778a7.129,7.129,0,0,1,1.926-.248,6.68,6.68,0,0,1,1.916.248,6.681,6.681,0,0,1-1.916.248A6.751,6.751,0,0,1,232.48,134.778Z" transform="translate(-170.863 -78.563)" fill="#fff"/><path d="M236.55,170.81a7.524,7.524,0,0,1-2.72-2.71,6.74,6.74,0,0,1,1.539,1.181,6.947,6.947,0,0,1,1.181,1.529Z" transform="translate(-170.873 -78.81)" fill="#fff"/><path d="M228.21,145.77a7.524,7.524,0,0,1-2.72-2.71,6.68,6.68,0,0,1,1.539,1.181,7.217,7.217,0,0,1,1.181,1.529Z" transform="translate(-170.811 -78.626)" fill="#fff"/><path d="M244.61,175.38a6.948,6.948,0,0,1-1.181,1.539A7.217,7.217,0,0,1,241.9,178.1a6.74,6.74,0,0,1,1.181-1.539A6.948,6.948,0,0,1,244.61,175.38Z" transform="translate(-170.932 -78.864)" fill="#fff"/><path d="M229.57,157.36a6.62,6.62,0,0,1-1.181,1.529,6.947,6.947,0,0,1-1.529,1.181,7.593,7.593,0,0,1,2.71-2.71Z" transform="translate(-170.821 -78.731)" fill="#fff"/><path d="M243.05,123.56a7.594,7.594,0,0,1-2.71,2.71,7.593,7.593,0,0,1,2.71-2.71Z" transform="translate(-170.92 -78.482)" fill="#fff"/><path d="M242.014,124.711a206.2,206.2,0,0,0-19.654-9.311c-.079,0-.129.089-.05.119,1.638.675,12.13,6.154,19.654,9.331C242.053,124.929,242.093,124.761,242.014,124.711Z" transform="translate(-170.787 -78.422)" fill="#263238"/></g><g transform="translate(226.012 13.361)"><path d="M288.254,442.04c1.936.645,57.285.486,59.39-.854.8-.5,1.251-8.566,1.509-18.324.06-2.1.1-4.268.139-6.492,0-2.621.079-5.271.089-7.842.07-11.554-.089-21.739-.089-21.739H313.258v29.581l.179,6.492s-21.153,9.549-23.307,11.266S286.328,441.415,288.254,442.04Z" transform="translate(-253.253 -93.781)" fill="#dd6a57"/><path d="M288.254,442.2c1.936.645,57.285.486,59.39-.854.8-.5,1.251-8.566,1.509-18.324.06-2.1.1-4.268.139-6.492,0-2.621.079-5.271.089-7.842h-36.1v7.842l.179,6.492S292.3,432.573,290.15,434.29,286.328,441.576,288.254,442.2Z" transform="translate(-253.253 -93.942)" fill="#fff"/><path d="M288.084,442.349c1.261.417,24.816.5,42,.139,3.971-.079,7.6-.189,10.542-.318,4.03-.189,6.74-.407,7.187-.685.993-.625,1.439-12.468,1.658-24.955H313.257l.189,6.532S292.163,432.651,290,434.378,286.148,441.693,288.084,442.349Z" transform="translate(-253.252 -93.999)" fill="#ffc727"/><path d="M288.889,440.288c9.331-.248,46.982-.407,56.223,0,.07,0,.07.06,0,.06-9.241.457-46.892.308-56.223.05C288.69,440.437,288.69,440.3,288.889,440.288Z" transform="translate(-253.263 -94.172)" fill="#263238"/><path d="M312.309,421c3.663-.695,8.16-.139,10.969,2.462.109.109,0,.258-.149.218a51.5,51.5,0,0,0-10.81-2.214.238.238,0,0,1-.01-.467Z" transform="translate(-253.435 -94.03)" fill="#263238"/><path d="M309.639,422.638c3.673-.695,8.16-.149,10.979,2.462.109.1,0,.258-.159.218a51.277,51.277,0,0,0-10.8-2.214.238.238,0,0,1-.02-.466Z" transform="translate(-253.415 -94.042)" fill="#263238"/><path d="M307,424.258c3.663-.695,8.16-.149,10.919,2.462.109.1,0,.248-.149.218A52.15,52.15,0,0,0,307,424.715a.228.228,0,1,1,0-.457Z" transform="translate(-253.396 -94.054)" fill="#263238"/><path d="M304.309,425.868c3.673-.695,8.16-.139,10.979,2.462.109.109,0,.258-.159.218a51.281,51.281,0,0,0-10.8-2.214.238.238,0,0,1-.02-.466Z" transform="translate(-253.376 -94.066)" fill="#263238"/><path d="M307.1,417.7c2.611,1.985,5.956,2.829,9.023,3.971a.457.457,0,0,0,.576-.457.1.1,0,0,0,.089-.129,19.654,19.654,0,0,0-5.678-8.4c-1.539-1.28-4.229-2.174-5.668-.179S305.585,416.532,307.1,417.7Zm-.943-2.978c-.655-4.03,3.673-1.926,4.775-.933a21.619,21.619,0,0,1,1.985,2.094,56.68,56.68,0,0,1,3.425,4.834c-1.459-.645-2.978-1.151-4.437-1.737-1.8-.665-5.38-2.025-5.747-4.229Z" transform="translate(-253.382 -93.961)" fill="#263238"/><path d="M329.113,415.436c-.893-2.283-3.722-2.094-5.529-1.241a19.665,19.665,0,0,0-7.584,6.75.1.1,0,0,0,.05.149c-.06.278.109.625.437.6,3.216-.328,6.7-.268,9.718-1.568C327.961,419.328,329.956,417.6,329.113,415.436Zm-7.852,4.725c-1.578.2-3.157.318-4.735.576a57.212,57.212,0,0,1,4.526-3.822,21.187,21.187,0,0,1,2.412-1.548c1.31-.685,6.025-1.638,4.387,2.094-.933,2.055-4.715,2.492-6.591,2.7Z" transform="translate(-253.463 -93.978)" fill="#263238"/><path d="M361.477,232.11s-9.738,96.286-9.976,97.537c0,.159-.1,1.985-.189,5.033-.526,16.577-1.826,68.274-1.826,68.274H309.78s2.591-61.226,4.08-75.51c1.9-18.225,13.9-95.294,13.9-95.294Z" transform="translate(-253.418 -92.642)" fill="#455a64"/><path d="M346.982,333.067q1.846-31.318,5.529-62.457c1.39-11.7,3.077-23.367,4.745-35.03,0-.1.169-.1.159,0-3.077,20.766-5.251,41.691-7.127,62.536s-3.186,41.8-4.04,62.735c-.486,11.912-.854,23.734-1.231,35.606a.228.228,0,0,1-.447,0C345.176,375.343,345.781,354.19,346.982,333.067Z" transform="translate(-253.674 -92.667)" fill="#263238"/><path d="M312.289,397.767c.993-.129,2.164-.089,3.226-.129s2.382-.05,3.574-.1q3.454-.119,6.948-.179,6.948-.119,13.9.1l3.832.129c1.36.06,2.72.179,4.08.169a.069.069,0,1,1,0,.129c-2.343,0-4.705.2-7.038.288s-4.606.119-6.9.149c-4.636.07-9.291,0-13.9-.149l-3.832-.1-2.035-.089c-.606,0-1.211,0-1.817-.06C312.17,397.916,312.18,397.787,312.289,397.767Z" transform="translate(-253.436 -93.858)" fill="#263238"/><path d="M361.646,232.11s-9.738,96.286-9.976,97.537c0,.159-.1,1.985-.189,5.033L332.75,232.11Z" transform="translate(-253.587 -92.642)" fill="#263238"/><path d="M436.939,410.4c1.707-1.132,35.785-44.738,36.033-47.22.1-.993-5.956-6.274-13.47-12.507-1.618-1.36-3.246-2.819-5.023-4.129-2.224-1.658-4.477-3.286-6.671-4.824-9.49-6.73-17.729-12.011-17.729-12.011l-21.64,27.526,16.875,12.487,6.949,5.122,5.221,3.871S431.906,401.25,431.926,404,435.241,411.5,436.939,410.4Z" transform="translate(-254.144 -93.361)" fill="#dd6a57"/><path d="M437.064,410.491c1.707-1.132,35.785-44.738,36.033-47.22.1-.993-5.956-6.273-13.47-12.507-1.618-1.36-3.246-2.819-5.023-4.129-2.224-1.658-4.477-3.286-6.671-4.824-6.71,8.447-16.428,20.508-22.5,28l6.948,5.122,5.221,3.871s-5.579,22.533-5.559,25.283S435.366,411.593,437.064,410.491Z" transform="translate(-254.269 -93.45)" fill="#fff"/><path d="M437.072,410.684c1.707-1.132,35.983-44.987,36.231-47.488.119-1.151-8.934-8.825-18.592-16.726l-22.384,28.459,5.251,3.891S432,401.482,432,404.252,435.355,411.816,437.072,410.684Z" transform="translate(-254.317 -93.484)" fill="#ffc727"/><path d="M435.83,408.812c5.569-7.494,28.717-37.184,34.792-44.163.05-.06.089,0,0,0-5.35,7.544-28.737,37.045-34.742,44.222C435.83,409.061,435.72,408.971,435.83,408.812Z" transform="translate(-254.345 -93.617)" fill="#263238"/><path d="M435.16,378.767c1.717-3.315,4.963-6.5,8.715-7.107a.143.143,0,0,1,.079.258,51.108,51.108,0,0,0-8.418,7.127.238.238,0,0,1-.377-.278Z" transform="translate(-254.34 -93.669)" fill="#263238"/><path d="M434.78,381.867c1.727-3.315,4.963-6.512,8.725-7.107a.141.141,0,0,1,.07.258,51.388,51.388,0,0,0-8.418,7.117.238.238,0,0,1-.377-.268Z" transform="translate(-254.337 -93.692)" fill="#263238"/><path d="M434.41,384.947c1.717-3.315,4.963-6.5,8.715-7.107a.143.143,0,0,1,.079.258,51.618,51.618,0,0,0-8.428,7.127.23.23,0,1,1-.367-.278Z" transform="translate(-254.334 -93.715)" fill="#263238"/><path d="M434,388.047c1.717-3.305,4.963-6.5,8.715-7.1a.142.142,0,0,1,.079.258,51.387,51.387,0,0,0-8.418,7.117.238.238,0,0,1-.377-.278Z" transform="translate(-254.332 -93.738)" fill="#263238"/><path d="M429.341,380.821c3.2-.794,5.956-2.978,8.676-4.646a.457.457,0,0,0,0-.745.1.1,0,0,0-.05-.149,19.625,19.625,0,0,0-10.105-.725c-1.985.417-4.318,1.985-3.643,4.348S427.485,381.3,429.341,380.821Zm-2.9-1.082c-3.573-1.985.754-4.07,2.214-4.318a21.083,21.083,0,0,1,2.859-.238,58.689,58.689,0,0,1,5.906.288c-1.4.755-2.73,1.618-4.1,2.422C431.684,378.846,428.408,380.831,426.443,379.739Z" transform="translate(-254.259 -93.688)" fill="#263238"/><path d="M441.194,362.089c-2.353-.7-3.971,1.628-4.4,3.583a19.555,19.555,0,0,0,.586,10.115c0,.079.089.079.149.05a.447.447,0,0,0,.735,0c1.737-2.73,3.971-5.43,4.775-8.606C443.537,365.395,443.418,362.764,441.194,362.089Zm-1.142,9.093c-.824,1.37-1.707,2.68-2.472,4.07a58.818,58.818,0,0,1-.218-5.956,21.143,21.143,0,0,1,.288-2.849c.268-1.449,2.432-5.747,4.348-2.154,1.062,2.025-.973,5.271-1.946,6.889Z" transform="translate(-254.349 -93.598)" fill="#263238"/><path d="M327.34,231.553s3.1,14.453,12.805,21.52c0,0,24.975,65.564,30.226,72.463,8.7,11.435,50.764,40.867,50.764,40.867l24.816-31.635s-40.7-26.2-43.954-30.315c-2.174-2.73-19.505-44.828-19.3-46.327,2.382-17.8-6.1-28.856-6.1-28.856Z" transform="translate(-253.547 -92.621)" fill="#455a64"/><path d="M374,232.06a42.364,42.364,0,0,1,4.179,10.919,34.56,34.56,0,0,1,.784,5.9c.119,2.114,0,4.239,0,6.363a23.238,23.238,0,0,0,.993,6.393c.6,1.985,1.32,3.971,1.985,5.956q2.144,6.095,4.517,12.1,4.735,11.912,10.294,23.565a18.036,18.036,0,0,0,3.167,4.963,30.018,30.018,0,0,0,4.963,3.693q5.479,3.732,10.969,7.465l22.047,15v.05c.248.169,0,.576-.228.407-7.385-5.013-12.051-8.209-19.436-13.222l-11.187-7.594c-1.767-1.2-3.564-2.362-5.291-3.6a14.065,14.065,0,0,1-3.842-3.971,49.083,49.083,0,0,1-2.7-5.291q-1.4-2.978-2.74-5.956-2.65-5.618-5.062-11.574t-4.655-12.051q-1.112-3.057-2.174-6.135a45.051,45.051,0,0,1-1.787-5.956c-.824-4.169-.089-8.447-.486-12.656A38.594,38.594,0,0,0,375.329,235a30.7,30.7,0,0,0-1.449-2.849C373.81,232.06,374,232,374,232.06Z" transform="translate(-253.889 -92.642)" fill="#263238"/><path d="M360.228,233.2a13.291,13.291,0,0,0,4.864,6.948,16.468,16.468,0,0,0,8.825,3.028.427.427,0,0,1,0,.854c-6.482,0-13.023-4.11-13.976-10.82C359.94,233.08,360.188,233.05,360.228,233.2Z" transform="translate(-253.787 -92.65)" fill="#263238"/><path d="M334,248.81a36.3,36.3,0,0,1,6.69,3.554c2.223,1.38,4.278,2.978,6.422,4.477.089.06,0,.189-.069.139-2.253-1.3-4.6-2.422-6.829-3.762a42.2,42.2,0,0,1-6.313-4.229C333.81,248.929,333.88,248.78,334,248.81Z" transform="translate(-253.595 -92.765)" fill="#263238"/><path d="M333.059,235.21c.347,1.479.774,2.978,1.171,4.417s.655,2.8,1.082,4.159a7.266,7.266,0,0,0,2.124,3.435c.566.486,1.191.9,1.8,1.35l.993.695c-.05-.189-.089-.4-.139-.6-.129-.566-.248-1.122-.367-1.687-.268-1.251-.526-2.5-.784-3.762-.486-2.462-.993-4.963-1.578-7.4a.079.079,0,1,1,.149,0c.725,2.4,1.519,4.785,2.174,7.217.318,1.191,1.529,7.1,1.6,7.514s.119.874.149,1.31a4.965,4.965,0,0,1,.06,1.33.109.109,0,0,1-.2,0h0a5.49,5.49,0,0,1-.437-1.271c-.129-.417-.238-.844-.337-1.281l-.089-.467c-.606-.328-1.171-.774-1.737-1.151s-1.231-.784-1.807-1.231a6.721,6.721,0,0,1-2.293-3.236,23.967,23.967,0,0,1-.893-4.248c-.268-1.678-.486-3.375-.794-5.043C332.89,235.16,333,235.11,333.059,235.21Z" transform="translate(-253.588 -92.665)" fill="#263238"/><path d="M417.83,361.443c.536-.9,1.28-1.767,1.906-2.611s1.439-1.906,2.144-2.869q2.035-2.789,4.139-5.529c2.819-3.683,5.728-7.316,8.715-10.86l2.482-2.918c.883-.993,1.826-1.985,2.67-3.1.06-.079.149,0,.089.079-1.459,1.827-2.76,3.812-4.139,5.7s-2.76,3.683-4.159,5.509c-2.829,3.673-5.747,7.3-8.755,10.83-.834.993-1.638,1.985-2.462,2.978-.437.516-.893.993-1.33,1.539a11.494,11.494,0,0,1-1.181,1.39.091.091,0,1,1-.119-.139Z" transform="translate(-254.213 -93.389)" fill="#263238"/><path d="M305.849,183.769a.457.457,0,0,0,.417.447l1.826-.129c1.072-4.755,2.372-8.606,2.094-7.137a25.186,25.186,0,0,0-.3,7.008l3.6-.318c.427-8.179,1.509-14.354,1.618-12.517.447,7.435,1.151,9.748,1.936,12.209,8.686-.784,20.061-1.985,28.27-2.978.407-4.546.655-9.44.834-9.132,1.419,2.343,2.174,5.956,2.541,8.7,2.611-.347,4.685-.675,5.956-.993,0,0,.159-3.8.1-5.033a27.693,27.693,0,0,0-2.095-9.132,47.092,47.092,0,0,0-4.854-8.09v-.06h0a26.712,26.712,0,0,1-2.889-5.45h0a28.012,28.012,0,0,1-1.221-4.328c-1.042-5.4-4.487-9.708-9.44-10.482-10.135-7.842-18.7-2.74-20.568,4.636-.189.715-.347,1.539-.486,2.422h0c-.546,3.276-.864,7.485-1.241,10.75h0a31.762,31.762,0,0,1-.625,3.8C309.7,164.006,304.886,167.966,305.849,183.769Z" transform="translate(-253.388 -91.909)" fill="#263238"/><path d="M336.7,137.55a10.115,10.115,0,0,1,6.561,7.514,28.184,28.184,0,0,0,2.085,6.591,24.112,24.112,0,0,0,4.338,5.46,18.006,18.006,0,0,1,5.311,9.2,32.32,32.32,0,0,1,.437,12.487h0a34.257,34.257,0,0,0-1.171-12.9c-1.211-4.219-3.822-6.621-6.551-9.569A18.443,18.443,0,0,1,343.2,148a22.635,22.635,0,0,0-1.668-5.737,11.157,11.157,0,0,0-4.963-4.249C336.271,137.848,336.45,137.451,336.7,137.55Z" transform="translate(-253.614 -91.946)" fill="#263238"/><path d="M306.757,164.92c1.836-3.4,3.812-6.363,4.636-10.373.754-3.663.993-7.455,1.747-11.108,0-.06.1-.05.089,0-1.092,6.462-.685,12.765-3.782,18.5-1.678,3.107-3.385,6.015-4.3,9.6a32.42,32.42,0,0,0-.725,11.5c0,.139-.159.159-.179,0A26.8,26.8,0,0,1,306.757,164.92Z" transform="translate(-253.373 -91.99)" fill="#263238"/><path d="M331.539,182.657c-10.224,1.807-44.728-9.1-51.19-16.19-9.619-10.532-16.925-29.342-19-36.42-.9-3.087,19.426-12.378,20.845-9.261,3.1,6.68,11.912,27.4,13.629,29.342s18.86,13.827,28.787,19.088C338,176.294,336.711,181.743,331.539,182.657Z" transform="translate(-253.061 -91.819)" fill="#dd6a57"/><path d="M283.647,124.893c-.159-1.529-4.884-12.974-7.5-16.637a43.675,43.675,0,0,0-9.807-10.3c-6.035-4.507-10.641-7.068-11.832-6.164-2.2,1.668-.893,4.378,5.152,9.013s5.231,9.132,4.417,12.269a47.349,47.349,0,0,0-.129,23.476S284.282,130.8,283.647,124.893Z" transform="translate(-253.004 -91.609)" fill="#dd6a57"/><path d="M264.4,112.015c-.735,3.266-4.794-8.934-8.457-9.926s-3.365,2.829-1.985,6.184c4.874,11.614,2.73,18.979,8.457,25.65S264.4,112.015,264.4,112.015Z" transform="translate(-253 -91.684)" fill="#dd6a57"/><path d="M262.9,138.82c.437-.367,23.158-13.53,23.158-13.53s8.437,21.511,10.165,24.081,26.563,18.423,35.149,23.436c9.182,5.37,6.442,13.282-9.728,10.085s-34.633-9.42-40.768-14.761C274.911,162.961,262.9,138.82,262.9,138.82Z" transform="translate(-253.073 -91.856)" fill="#ffc727"/><path d="M266.329,141.365c9.341-4.368,18.5-10.383,20.17-11.316.079-.05,0-.169-.079-.119-1.588.993-12.8,6.74-20.18,11.306a.079.079,0,0,0,.089.129Z" transform="translate(-253.097 -91.89)" fill="#263238"/><path d="M321.631,213.789l1.688,28.032s44.48-8.537,55.33-11.594c0,0-19.525-49.017-34.028-59.42-7.256-5.2-14.105-3.276-17.6,2.134-.893,1.37-10.6,21.838-10.611,28.866C316.42,208.022,321.631,213.789,321.631,213.789Z" transform="translate(-253.466 -92.169)" fill="#ffc727"/><path d="M337.275,171.237c-.218.883-4.536,6.611-8.606,6.373-1.33-.079-1.211-7.326-1.211-7.326l-.109-.546-1.588-7.514,8.884-5.539,1.28-.685s.3,2.085.645,4.685a.965.965,0,0,0,.05.367l.06.427c.06.387.109.784.159,1.181s.079.6.1.913.069.625.109.943A50.616,50.616,0,0,1,337.275,171.237Z" transform="translate(-253.535 -92.082)" fill="#dd6a57"/><path d="M336.57,160.636a15.416,15.416,0,0,1-9.222,9.1l-1.588-7.514,8.884-5.539,1.28-.685S336.222,158.035,336.57,160.636Z" transform="translate(-253.535 -92.082)" fill="#263238"/><path d="M314.7,152c.506,13.48,8.636,14.7,11.544,14.592,2.631-.109,11.6-.784,12.5-14.244s-5.529-17.48-11.584-17.57S314.2,138.532,314.7,152Z" transform="translate(-253.454 -91.926)" fill="#dd6a57"/><path d="M316.566,148.3a9.254,9.254,0,0,0,.9-.228,1.5,1.5,0,0,0,.874-.407.467.467,0,0,0,0-.586,1.2,1.2,0,0,0-1.181-.238,1.737,1.737,0,0,0-1.072.665.516.516,0,0,0,.476.794Z" transform="translate(-253.463 -92.014)" fill="#263238"/><path d="M325.476,147.989a7.492,7.492,0,0,1-.923-.159,1.489,1.489,0,0,1-.9-.338.5.5,0,0,1,0-.586,1.181,1.181,0,0,1,1.161-.318,1.7,1.7,0,0,1,1.122.576.506.506,0,0,1-.457.824Z" transform="translate(-253.519 -92.013)" fill="#263238"/><path d="M323.8,151.52a.078.078,0,0,1,.079.079c0,.923.119,1.985.993,2.273v.05C323.81,153.793,323.641,152.394,323.8,151.52Z" transform="translate(-253.52 -92.049)" fill="#263238"/><path d="M324.614,150.55c1.469-.139,1.628,2.829.258,2.978S323.373,150.659,324.614,150.55Z" transform="translate(-253.521 -92.042)" fill="#263238"/><path d="M325.209,150.669c.268.159.536.437.854.457s.615-.308.834-.615h.06c0,.566-.159,1.161-.754,1.271s-.993-.377-1.151-.933C325,150.768,325.1,150.609,325.209,150.669Z" transform="translate(-253.53 -92.042)" fill="#263238"/><path d="M318.474,151.62s-.069,0-.06.089c.079.913,0,1.985-.784,2.333v.05C318.643,153.893,318.7,152.474,318.474,151.62Z" transform="translate(-253.475 -92.05)" fill="#263238"/><path d="M317.592,150.71c-1.479,0-1.419,2.978-.05,2.978S318.833,150.73,317.592,150.71Z" transform="translate(-253.467 -92.043)" fill="#263238"/><path d="M316.989,150.919c-.228.159-.457.457-.735.476s-.566-.288-.784-.6h0c0,.566.189,1.151.735,1.251s.854-.407.993-.993C317.148,151,317.068,150.85,316.989,150.919Z" transform="translate(-253.46 -92.044)" fill="#263238"/><path d="M324.257,158.87c-.2.238-.387.556-.715.615a2.452,2.452,0,0,1-.993-.129,1.231,1.231,0,0,0,1.211.377.993.993,0,0,0,.635-.874C324.357,158.85,324.287,158.84,324.257,158.87Z" transform="translate(-253.512 -92.103)" fill="#263238"/><path d="M320.259,155.623q-.1.989-.109,1.985c0,.06.159.079.377.089h0a3.077,3.077,0,0,0,2.978-1.271.069.069,0,0,0-.1-.089,4.625,4.625,0,0,1-2.779.923c-.05-.179.308-2.353.208-2.362a5.776,5.776,0,0,0-1.449.4c.189-2.879.844-5.708.993-8.576a.089.089,0,0,0-.179,0,46.821,46.821,0,0,0-1.469,9.182C318.69,156.279,319.991,155.742,320.259,155.623Z" transform="translate(-253.484 -92.013)" fill="#263238"/><path d="M320.54,157.373a3.7,3.7,0,0,0,1.419,1.251,1.658,1.658,0,0,0,.993.139c.754-.149.814-.824.725-1.41a3.972,3.972,0,0,0-.278-.913A4.884,4.884,0,0,1,320.54,157.373Z" transform="translate(-253.497 -92.086)" fill="#263238"/><path d="M322,158.631a1.658,1.658,0,0,0,.993.139c.754-.149.814-.824.725-1.41A1.737,1.737,0,0,0,322,158.631Z" transform="translate(-253.508 -92.092)" fill="#ff9bbc"/><path d="M338.19,151.921c-3.266.179-3.474-4.963-3.474-4.963s-3.722-.159-4.268-6.125a9.033,9.033,0,0,1-6.591,4.655c-1.062.208,2.372-2.71,2.372-2.71s-4.08,4.06-12.071,2.978c-.566-.079-.407-9.261,5.678-12.4s12.4-.993,16.418,2.74c0,0,4.646,1.9,5.36,6.174S339.451,151.852,338.19,151.921Z" transform="translate(-253.448 -91.905)" fill="#263238"/><path d="M336.8,153.582s2.4-4.546,4.427-3.742.586,7.137-1.539,8.239a2.273,2.273,0,0,1-3.186-.834Z" transform="translate(-253.614 -92.036)" fill="#dd6a57"/><path d="M340.777,151.66s.05,0,0,.06a5.727,5.727,0,0,0-2.511,3.971,1.261,1.261,0,0,1,1.826-.576v.089a1.4,1.4,0,0,0-1.469.675,6.948,6.948,0,0,0-.576,1.33c-.06.149-.318.1-.288-.06h0C337.462,155.1,338.663,152.127,340.777,151.66Z" transform="translate(-253.623 -92.05)" fill="#263238"/><path d="M348.249,176.063c17.123,18.036,31.189,55.588,22.95,59.072-7.524,3.216-31.377.238-41.185-2.094-2.879-.695,2.978-23.009,6.005-22.275,3.722.883,13.242,2.253,13.629,2.224.824-.06-7.941-25.024-10.76-34.6C334.958,165.034,341.827,169.293,348.249,176.063Z" transform="translate(-253.561 -92.183)" fill="#dd6a57"/><path d="M306.151,205.879a3.534,3.534,0,0,0,.3,3.971,5.212,5.212,0,0,0-2.5,2.521c-.824,1.985,1.985,4.149,1.985,4.149a6.462,6.462,0,0,0-2.223,3.087c-.586,1.985,1.906,4.556,1.906,4.556a5.688,5.688,0,0,0-.248,3.971c1.191,3.425,6.611,4.655,10.046,5.479s13.9-.079,15.952-.05l5.39-21.957s-14.344-8.04-18.523-8.428C314.728,202.852,307.65,203.567,306.151,205.879Z" transform="translate(-253.372 -92.429)" fill="#dd6a57"/><path d="M306.709,209.628c3.822-.546,7.594.06,11.4.457a.069.069,0,0,1,0,.129c-3.782-.437-7.594-.119-11.376-.407a.09.09,0,1,1-.02-.179Z" transform="translate(-253.394 -92.475)" fill="#263238"/><path d="M306.059,216.4a10.137,10.137,0,0,1,2.621.218c.923.149,1.846.308,2.759.476,1.836.347,3.663.735,5.469,1.181.089,0,.079.139,0,.129q-2.74-.526-5.509-.923l-2.76-.377a12.09,12.09,0,0,1-2.6-.447.139.139,0,0,1,.02-.258Z" transform="translate(-253.39 -92.527)" fill="#263238"/><path d="M305.67,224.39a6.82,6.82,0,0,1,2.353.328l2.5.506c1.668.328,3.335.665,5.013.933.089,0,.069.149,0,.139-1.707-.278-3.425-.516-5.122-.8l-2.511-.427a6.641,6.641,0,0,1-2.243-.6S305.64,224.39,305.67,224.39Z" transform="translate(-253.387 -92.586)" fill="#263238"/><path d="M348.8,212.27c1.181-.993-8.169-24.508-10.721-35.209s2.392-10.105,10.224-1.489c8.4,9.232,22.354,29.65,25.531,50.684.993,6.571,2.333,11.257-12.9,10.989a173.091,173.091,0,0,1-26.374-2.3l3.315-24.022S348.467,212.558,348.8,212.27Z" transform="translate(-253.6 -92.179)" fill="#ffc727"/><path d="M340,235.08c1.985-9.509,2.541-19.793,2.779-21.58a.07.07,0,0,0-.139,0c-.139,1.757-2.095,13.44-2.789,21.57C339.85,235.159,340,235.169,340,235.08Z" transform="translate(-253.639 -92.505)" fill="#263238"/><path d="M360.383,214.288a19.852,19.852,0,0,0-2.869-.586l-2.67-.486-1.161-.208h.109l1.549-.218c.516-.079.993-.189,1.558-.238.079,0,.079-.139,0-.129-.516.069-.993.069-1.549.1l-1.618.109-1.41.149c-.864-.139-1.727-.278-2.591-.4-.377-1.707-.993-3.395-1.5-5.062s-1.112-3.474-1.707-5.2-1.2-3.375-1.856-5.043c-.328-.834-2.075-5.956-2.65-7.306,0-.089-.139,0-.119.05.337,1.35,2.124,6.621,2.382,7.475.189.625.387,1.251.586,1.866l-.079-.089-1.042-1.39c-.695-.943-1.39-1.9-1.985-2.9,0-.089-.179,0-.129.079.576,1.052,1.122,2.1,1.727,3.127.308.516.625.993.993,1.509a7.634,7.634,0,0,0,1.072,1.39h0c.159.506.308.993.476,1.529.536,1.707,1.082,3.415,1.608,5.122s.913,3.176,1.469,4.715c-1.777-.238-3.544-.447-5.321-.665l-2.72-.318c-.993-.109-1.985-.109-2.978-.278-.089,0-.119.119,0,.129.993.109,1.926.407,2.879.576l2.68.467c1.886.318,3.782.655,5.678.993s3.752.5,5.628.715l2.829.318a19.632,19.632,0,0,0,2.75.228Z" transform="translate(-253.624 -92.331)" fill="#263238"/><path d="M364.549,237.753c-8.189-.288-22.93-1.41-29.779-2.323a.07.07,0,1,0,0,.129,117.531,117.531,0,0,0,29.779,2.511.159.159,0,0,0,0-.318Z" transform="translate(-253.601 -92.667)" fill="#263238"/><path d="M369.437,208.972c-.447-.993-.923-1.985-1.38-2.978-.536-1.151-.586-.993-.1.3s.9,2.412,1.37,3.613c.913,2.392,5.648,16.875,5.122,22a.06.06,0,0,0,.119,0C375.789,225.063,371.094,212.714,369.437,208.972Z" transform="translate(-253.843 -92.445)" fill="#263238"/></g><g transform="translate(0 16.541)"><path d="M166.156,142.827c11.257,10.919,13.55,39.021-.328,57.921-11.753,16-39.041,19.049-50.774,9.51-12.438-10.135-10.611-26.553-1.519-34.544,9.38-8.239,20.637-6.025,26.325-13.371,2.72-3.514,3.732-10.919,7.524-16.329C151.663,140,160.4,137.219,166.156,142.827Z" transform="translate(-25.908 -95.143)" fill="#263238"/><path d="M156.1,140.671c1.251-.467,2.432-7.435-2.144-10.75s-10.443.476-7.941,6.184C147.534,139.708,153.47,141.654,156.1,140.671Z" transform="translate(-26.196 -95.061)" fill="#263238"/><path d="M144.712,151.11a48.1,48.1,0,0,1-3.087,7.4,18.93,18.93,0,0,1-5.112,6.254,12.319,12.319,0,0,1-3.712,1.747c-1.29.417-2.581.764-3.861,1.122a78.109,78.109,0,0,0-7.574,2.4,30.772,30.772,0,0,0-6.949,3.613,19.088,19.088,0,0,0-7.941,13.043,33.75,33.75,0,0,0-.228,7.941,31.347,31.347,0,0,1-.248-8.011,19.972,19.972,0,0,1,2.442-7.683,18.979,18.979,0,0,1,5.43-6.015,31.924,31.924,0,0,1,7.147-3.812,76.227,76.227,0,0,1,7.693-2.353c1.29-.347,2.571-.685,3.832-1.072a13.163,13.163,0,0,0,3.534-1.558,18.146,18.146,0,0,0,5.122-5.867,54.89,54.89,0,0,0,3.514-7.147Z" transform="translate(-25.905 -95.226)" fill="#263238"/><path d="M168.711,145.31a55.975,55.975,0,0,1,7.475,15.436,46.138,46.138,0,0,1,1.985,17.1,35.963,35.963,0,0,1-1.757,8.487c-.208.695-.486,1.36-.754,2.035a19.648,19.648,0,0,1-.864,1.985c-.338.635-.625,1.31-.993,1.985l-1.122,1.856a44.52,44.52,0,0,1-11.912,12.3c1.062-.993,2.184-1.836,3.206-2.829s2.075-1.985,2.978-3.057a41.283,41.283,0,0,0,5.072-6.81,36.559,36.559,0,0,0,5.182-16.041,46.724,46.724,0,0,0-1.757-16.8,62.916,62.916,0,0,0-2.849-8.04,59.762,59.762,0,0,0-3.891-7.614Z" transform="translate(-26.309 -95.184)" fill="#263238"/><path d="M147.543,129.52a7.842,7.842,0,0,0-2.64,4.407,4.715,4.715,0,0,0,1.39,4.487,9.47,9.47,0,0,0,4.556,2.233,15.26,15.26,0,0,0,2.611.318,7.156,7.156,0,0,0,2.63-.288,6.432,6.432,0,0,1-2.611.774,11.753,11.753,0,0,1-2.769,0,9.182,9.182,0,0,1-5.1-2.263,5.211,5.211,0,0,1-1.449-5.38A6.849,6.849,0,0,1,147.543,129.52Z" transform="translate(-26.185 -95.067)" fill="#263238"/><path d="M153.774,177.715c-3.524,23.158-23.952,70.309-27.04,76.364-2.094,4.11-24.052-6.482-22.205-9.053,2.353-3.305,25.958-44.728,37.214-59.717C147.957,177.04,154.5,172.93,153.774,177.715Z" transform="translate(-25.894 -95.407)" fill="#f7a9a0"/><path d="M104.932,244.88c-2.561,3.375-6.571,13.014-7.494,16.23s-2.889,12.676-.447,13.669,3.186-1.767,3.186-1.767-.2,4.119,2.293,4.864,3.6-3.534,3.6-3.534.1,4.249,2.64,4.8,2.978-3.971,2.978-3.971-.089,3.891,2.194,3.474c2.76-.506,2.1-7.693,3.385-11.167.3-.794,7.038-15.575,7.038-15.575Z" transform="translate(-25.831 -95.916)" fill="#f7a9a0"/><path d="M111.254,275.438c-.467-5.281.248-7.673,2.64-12.319,0-.089-.079-.179-.139-.089-2.75,4.328-4.08,7.207-2.76,12.448C111.066,275.736,111.274,275.7,111.254,275.438Z" transform="translate(-25.939 -96.05)" fill="#263238"/><path d="M105.726,274.582c0-5.539.744-8.14,2.889-13.192,0-.069-.079-.129-.119-.06-2.521,4.775-3.782,7.673-3.047,13.2C105.478,274.78,105.726,274.83,105.726,274.582Z" transform="translate(-25.901 -96.037)" fill="#263238"/><path d="M99.868,272.563c.377-5.36,1.082-8.249,3.792-12.9a.1.1,0,0,0-.159-.109,17.808,17.808,0,0,0-3.8,12.964C99.729,272.9,99.838,272.9,99.868,272.563Z" transform="translate(-25.859 -96.024)" fill="#263238"/><path d="M128.212,250.087a64.113,64.113,0,0,1-1.082,9.529c-.784,2.889-7.623,12.587-9.807,11.227-2.809-1.757,0-8.14,1.846-11.078,0,0-6.512-4.06-5.45-9.083S128.212,250.087,128.212,250.087Z" transform="translate(-25.962 -95.941)" fill="#f7a9a0"/><path d="M116.7,270.126c-1.41-3.454,1.211-7.167,2.75-10.155a.308.308,0,0,0-.218-.457c-2.611-1.886-5.757-5.3-5.7-8.705a.079.079,0,1,0-.159,0c-.556,3.633,2.263,7.246,5.261,9.132-1.628,3.038-4.09,6.869-1.985,10.2C116.685,270.156,116.715,270.146,116.7,270.126Z" transform="translate(-25.96 -95.959)" fill="#263238"/><path d="M127.19,203.607s3.335,1.717,7.207,3.762c5.062,2.65,11.048,5.847,11.683,6.393,0,0,6.482-20.9,7.941-30.236s.109-11.167-6.7-5.539c-3.286,2.73-8.09,8.795-12.17,14.344C130.754,198.266,127.19,203.607,127.19,203.607Z" transform="translate(-26.062 -95.401)" fill="#ffc727"/><path d="M127.19,203.607s3.335,1.717,7.207,3.762c5.062,2.65,11.048,5.847,11.683,6.393,0,0,6.482-20.9,7.941-30.236s.109-11.167-6.7-5.539c-3.286,2.73-8.09,8.795-12.17,14.344C130.754,198.266,127.19,203.607,127.19,203.607Z" transform="translate(-26.062 -95.401)" fill="#ffc727"/><path d="M154,183.525c-1.439,9.341-7.941,30.236-7.941,30.236-.635-.546-6.621-3.742-11.683-6.393l-2.8-1.469c-2.551-1.34-4.407-2.293-4.407-2.293s3.564-5.34,7.941-11.276c4.08-5.549,8.884-11.614,12.17-14.344l.715-.576C154.2,172.5,155.391,174.522,154,183.525Z" transform="translate(-26.062 -95.401)" fill="#ffc727"/><path d="M154,183.525c-1.439,9.341-7.941,30.236-7.941,30.236-.635-.546-6.621-3.742-11.683-6.393l-2.8-1.469c-2.551-1.34-4.407-2.293-4.407-2.293s3.564-5.34,7.941-11.276c4.08-5.549,8.884-11.614,12.17-14.344l.715-.576C154.2,172.5,155.391,174.522,154,183.525Z" transform="translate(-26.062 -95.401)" fill="#ffc727"/><path d="M154.034,183.525c-1.439,9.341-7.941,30.236-7.941,30.236-.635-.546-6.621-3.742-11.683-6.393l-2.8-1.469c4.02-7.078,11.554-20.091,16.418-28.489C154.232,172.5,155.423,174.522,154.034,183.525Z" transform="translate(-26.095 -95.401)" fill="#263238"/><path d="M146.943,209.286a180.877,180.877,0,0,0-17.1-8.656c-.07,0-.109.079,0,.109,1.419.635,10.542,5.7,17.093,8.666C146.963,209.435,147.012,209.326,146.943,209.286Z" transform="translate(-26.081 -95.591)" fill="#263238"/><path d="M154.73,172.888c.149.893,4.02,6.9,8.08,6.948,1.32,0,1.727-7.187,1.727-7.187l.159-.526,2.124-7.355-8.408-6.154-1.221-.824s-.447,2.055-.993,4.606a2.637,2.637,0,0,1-.069.367c-.02.129-.069.278-.1.417-.079.377-.169.774-.248,1.161s-.119.586-.169.893-.109.615-.169.933A48.943,48.943,0,0,0,154.73,172.888Z" transform="translate(-26.265 -95.275)" fill="#f7a9a0"/><path d="M156.22,162.376a15.366,15.366,0,0,0,8.487,9.728l2.124-7.355-8.408-6.154-1.221-.824S156.756,159.825,156.22,162.376Z" transform="translate(-26.276 -95.275)" fill="#263238"/><path d="M176.5,151.778c3.117,13.053-4.288,16.518-7.177,17.063-2.581.5-11.336,2.353-15.783-10.314s.635-18.245,6.4-19.942S173.38,138.715,176.5,151.778Z" transform="translate(-26.243 -95.13)" fill="#f7a9a0"/><path d="M175.335,149.181H174.4a1.538,1.538,0,0,1-.933-.218.467.467,0,0,1-.089-.576,1.161,1.161,0,0,1,1.1-.467,1.717,1.717,0,0,1,1.181.427.516.516,0,0,1-.328.834Z" transform="translate(-26.401 -95.203)" fill="#263238"/><path d="M166.805,151.078a8.2,8.2,0,0,0,.864-.337,1.479,1.479,0,0,0,.814-.516.486.486,0,0,0-.1-.576,1.191,1.191,0,0,0-1.191-.079,1.787,1.787,0,0,0-.993.784.516.516,0,0,0,.606.725Z" transform="translate(-26.349 -95.214)" fill="#263238"/><path d="M169.316,154.05s-.06,0,0,.089c.2.893.278,1.985-.486,2.4v.05C169.763,156.264,169.644,154.864,169.316,154.05Z" transform="translate(-26.368 -95.248)" fill="#263238"/><path d="M168.323,153.26c-1.459.159-.993,3.077.338,2.978S169.554,153.121,168.323,153.26Z" transform="translate(-26.358 -95.242)" fill="#263238"/><path d="M167.767,153.5c-.228.2-.437.526-.744.606s-.655-.179-.933-.437h-.05c.079.566.377,1.1.993,1.1s.874-.566.933-1.142C167.986,153.559,167.857,153.42,167.767,153.5Z" transform="translate(-26.348 -95.244)" fill="#263238"/><path d="M174.14,152.81s.079,0,.079.069c.1.9.367,1.985,1.231,2.114v.05C174.428,155.043,174.09,153.684,174.14,152.81Z" transform="translate(-26.407 -95.239)" fill="#263238"/><path d="M174.815,151.74c1.439-.318,1.985,2.581.635,2.879S173.6,152,174.815,151.74Z" transform="translate(-26.407 -95.231)" fill="#263238"/><path d="M175.459,151.817c.258.109.536.347.814.318s.506-.4.645-.735h.06a1.177,1.177,0,0,1-.476,1.37c-.476.208-.913-.228-1.151-.754C175.31,152,175.36,151.767,175.459,151.817Z" transform="translate(-26.416 -95.228)" fill="#263238"/><path d="M170.359,161.08c.238.189.486.467.824.457a2.531,2.531,0,0,0,.993-.328h0a1.221,1.221,0,0,1-1.1.615.993.993,0,0,1-.794-.735A.063.063,0,0,1,170.359,161.08Z" transform="translate(-26.379 -95.3)" fill="#263238"/><path d="M173.608,157.116a19.317,19.317,0,0,1,.506,1.985c0,.06-.139.109-.357.159h0a3.057,3.057,0,0,1-3.117-.645.069.069,0,0,1,.079-.109,4.675,4.675,0,0,0,2.889.347c0-.189-.774-2.233-.675-2.263a5.649,5.649,0,0,1,1.5.1c-.764-2.769-1.985-5.4-2.68-8.16,0-.1.119-.159.159-.069a46.9,46.9,0,0,1,3.266,8.666C175.266,157.453,173.876,157.185,173.608,157.116Z" transform="translate(-26.382 -95.206)" fill="#263238"/><path d="M173.627,158.827a3.733,3.733,0,0,1-1.122,1.519,1.648,1.648,0,0,1-.993.337c-.764,0-.993-.635-.993-1.231a3.632,3.632,0,0,1,.079-.993A4.814,4.814,0,0,0,173.627,158.827Z" transform="translate(-26.381 -95.28)" fill="#263238"/><path d="M172.505,160.353a1.648,1.648,0,0,1-.993.337c-.764,0-.993-.635-.993-1.231A1.757,1.757,0,0,1,172.505,160.353Z" transform="translate(-26.381 -95.287)" fill="#ff9bbc"/><path d="M153.737,158.079c1.439-.288,4.665-4.824,3.782-11.852,0,0,.357,6.363,0,7.355s1.8-2.551,1.171-8.229a23.317,23.317,0,0,0,6.234,2.194c2.769.367,4.407.109,4.566-.109s-3.971-.9-5.182-1.985c0,0,7.574,2.293,10.919,2.085.387,0-.268-7.882-5.8-10.472s-13.053,2.114-14.89,4.5c0,0-2.482.725-4.705,4.854S152.188,158.4,153.737,158.079Z" transform="translate(-26.224 -95.117)" fill="#263238"/><path d="M155.957,158.86s-3.514-3.722-5.241-2.4,1.35,6.949,3.683,7.485a2.273,2.273,0,0,0,2.829-1.648Z" transform="translate(-26.231 -95.264)" fill="#f7a9a0"/><path d="M151.69,158.08v.06a5.747,5.747,0,0,1,3.464,3.117,1.261,1.261,0,0,0-1.906-.07l.05.079a1.41,1.41,0,0,1,1.6.258,6.215,6.215,0,0,1,.9,1.122c.1.129.337,0,.258-.139h0C155.79,160.492,153.844,158,151.69,158.08Z" transform="translate(-26.242 -95.278)" fill="#263238"/><path d="M80.06,381.337c.387-.189,54.8-27.01,63.807-43.885,16.091-30.176,21.689-68.75,23.714-77.813a133.52,133.52,0,0,0,8.428-32.519H132.154s-11.5,22.007-5.569,37.552c.536,1.429-9.758,50.277-14.79,56.064-5.6,6.422-48.53,27.973-49.255,28.34Z" transform="translate(-25.586 -95.786)" fill="#37474f"/><path d="M155.619,232.74c-2.164,11.078-4.626,22.106-7.107,33.115s-5.092,21.838-7.842,32.688q-2.085,8.219-4.288,16.389c-1.34,4.963-2.65,10.046-6.025,14.046s-7.683,6.75-11.812,9.609c-4.368,2.978-8.854,5.866-13.421,8.576-9.212,5.479-18.711,10.453-28.251,15.326l-3.5,1.777c-.258.129,0,.516.238.387,9.668-4.8,19.317-9.708,28.667-15.108q7.018-4.04,13.778-8.477c2.214-1.459,4.4-2.978,6.561-4.507a68.739,68.739,0,0,0,5.867-4.566,23.447,23.447,0,0,0,4.665-5.608,32.091,32.091,0,0,0,2.819-6.9c1.6-5.271,2.928-10.641,4.308-15.972q4.288-16.527,7.941-33.194c2.472-11.108,4.765-22.255,6.76-33.462.248-1.36.486-2.72.744-4.08C155.778,232.68,155.629,232.64,155.619,232.74Z" transform="translate(-25.665 -95.827)" fill="#263238"/><path d="M176.552,227.12a133.521,133.521,0,0,1-8.428,32.519c-.208.913-.447,2.124-.725,3.6-.069.357-.139.725-.218,1.1s-.189.993-.3,1.558-.189.993-.288,1.529l-.208,1.062c-.129.7-.278,1.449-.427,2.214-.06.308-.119.625-.189.933-.109.586-.238,1.191-.357,1.807-.506,2.482-1.072,5.192-1.707,8.08-.278,1.221-.566,2.492-.874,3.782s-.615,2.611-.993,3.971c-.139.576-.288,1.151-.437,1.727-.754,2.978-1.6,6.144-2.521,9.331-.2.7-.407,1.41-.615,2.124q-1.41,4.715-3.057,9.569c-.278.8-.566,1.608-.844,2.422q-.864,2.412-1.8,4.844L136.33,227.12C146.921,227.1,176.562,227.1,176.552,227.12Z" transform="translate(-26.129 -95.786)" fill="#263238"/><path d="M47.172,357.749c-1.985.993-3.871,2.065-5.718,3.077L38.1,362.683c-6.948,3.871-12.19,7.028-12.259,7.842-.228,2.482,24.866,51.806,26.315,53.245s5.608-2.621,6.184-5.321c.328-1.638,0-10.85-.258-17.818-.2-4.477-.367-8.03-.367-8.03l5.857-2.8,26.712-12.716L73.407,344.14S59.828,350.95,47.172,357.749Z" transform="translate(-25.316 -96.647)" fill="#fff"/><path d="M84.174,382.624C83.5,381.711,65.78,346.71,65.78,346.71s-39.428,20.448-40.44,23.575S51.645,424.94,52.8,425.466s5.678-2.978,7.008-8.308c.993-3.871-.268-23.069-.268-23.069Z" transform="translate(-25.312 -96.666)" fill="#ffc727"/><path d="M62.164,395.775c-.089-3.712-1.558-7.941-4.685-10.155-.119-.079-.238.089-.179.2a51.716,51.716,0,0,1,4.417,10.036.228.228,0,0,0,.447-.079Z" transform="translate(-25.548 -96.952)" fill="#455a64"/><path d="M64.884,394.385c-.089-3.712-1.568-7.941-4.7-10.155-.119-.079-.238.089-.179.2a50.544,50.544,0,0,1,4.417,10.036.238.238,0,0,0,.457-.079Z" transform="translate(-25.568 -96.942)" fill="#455a64"/><path d="M67.594,392.995c-.089-3.712-1.568-7.941-4.685-10.155-.119-.079-.238.089-.179.2a51.091,51.091,0,0,1,4.407,10.036.238.238,0,0,0,.457-.079Z" transform="translate(-25.588 -96.931)" fill="#455a64"/><path d="M70.314,391.6c-.1-3.712-1.568-7.941-4.7-10.155-.119-.089-.238.089-.179.2a51.717,51.717,0,0,1,4.417,10.036.238.238,0,0,0,.457-.079Z" transform="translate(-25.608 -96.921)" fill="#455a64"/><path d="M73.024,390.215c-.089-3.712-1.568-7.941-4.685-10.155-.129-.089-.248.089-.179.2a51.093,51.093,0,0,1,4.407,10.036.238.238,0,0,0,.457-.079Z" transform="translate(-25.627 -96.911)" fill="#455a64"/><path d="M150.388,266.359s3.752,35.576,5.5,53.484c.447,4.457.744,7.832.854,9.271,0,.576.06,9.867.079,22.027v59.985h36.162v-5.261c0-3.047.109-7.266.179-12.18,0-2.521.069-5.211.109-8.03.278-21.9.506-51.31-.119-59.975-.079-.993-.149-2.035-.218-3.1-1.628-24.528-2.531-60.233-14.562-95.522H132.61s.4,20.726,9.827,35.735A77.965,77.965,0,0,1,150.388,266.359Z" transform="translate(-26.102 -95.785)" fill="#37474f"/><path d="M184.713,336.918c-.179-11.435-.645-22.831-1.539-34.266s-2.263-22.513-4.09-33.69a278.936,278.936,0,0,0-7.3-33.323c-.4-1.37-.8-2.74-1.221-4.1a.149.149,0,0,0-.288.079c2.928,10.919,5.45,22.007,7.365,33.194s3.176,22.573,4.129,33.928,1.489,22.831,1.777,34.236.308,22.831.2,34.236-.556,22.831-.586,34.206v4.288c0,.1.149.089.149,0,.208-5.718.546-11.435.735-17.163s.357-11.465.5-17.2C184.763,359.868,184.892,348.393,184.713,336.918Z" transform="translate(-26.379 -95.817)" fill="#263238"/><path d="M156.585,269.443c-2.253-1.231-4.566-2.343-6.949-3.355s-4.794-1.926-7.147-2.978c-.089,0-.169.089-.079.139,2.323,1.191,4.6,2.472,6.949,3.6a56.3,56.3,0,0,0,7.117,2.849A.141.141,0,0,0,156.585,269.443Z" transform="translate(-26.174 -96.05)" fill="#263238"/><path d="M157.089,416.471c0,2.2.079,4.388.139,6.492,0,1.31.079,2.591.119,3.822.268,7.941.7,14.056,1.39,14.493,2.1,1.33,57.444,1.5,59.38.864s.238-6.2-1.906-7.941c-1.3-1.042-9.629-4.963-15.962-7.891h0c-4.07-1.876-7.316-3.335-7.316-3.335l.179-6.492.864-29.581H156.93S156.851,402.117,157.089,416.471Z" transform="translate(-26.281 -96.961)" fill="#fff"/><path d="M196.081,394.92c-1.122.189-40.351,0-40.351,0s.218,44.411,2.541,46.734,60.64,1.519,61.623.745-.069-6.422-4.2-10.036c-2.978-2.621-20.647-10.274-20.647-10.274Z" transform="translate(-26.272 -97.02)" fill="#ffc727"/><path d="M197.617,420.769c-3.345-1.618-7.8-2.243-11.177-.457-.129.069,0,.248.089.248a51.216,51.216,0,0,1,10.919.645.234.234,0,0,0,.169-.437Z" transform="translate(-26.498 -97.199)" fill="#455a64"/><path d="M197.617,417.719c-3.345-1.618-7.8-2.243-11.177-.457-.129.069,0,.248.089.248a51.22,51.22,0,0,1,10.919.645.234.234,0,0,0,.169-.437Z" transform="translate(-26.498 -97.177)" fill="#455a64"/><path d="M197.617,414.669c-3.345-1.618-7.8-2.243-11.177-.457-.129.069,0,.248.089.248a51.216,51.216,0,0,1,10.919.645.234.234,0,0,0,.169-.437Z" transform="translate(-26.498 -97.154)" fill="#455a64"/><path d="M197.617,411.619c-3.345-1.618-7.8-2.243-11.177-.457-.129.069,0,.248.089.248a51.222,51.222,0,0,1,10.919.645.234.234,0,0,0,.169-.437Z" transform="translate(-26.498 -97.132)" fill="#455a64"/><path d="M197.617,408.569c-3.345-1.618-7.8-2.243-11.177-.457-.129.07,0,.248.089.248a51.218,51.218,0,0,1,10.919.645.234.234,0,0,0,.169-.437Z" transform="translate(-26.498 -97.109)" fill="#455a64"/><path d="M179.512,214.5l4.04,27.794s-47.875.665-59.122-.119c0,0,11.753-51.965,23.823-65.088,6.055-6.571,13.153-6.075,17.679-1.489,1.142,1.161,14.8,19.218,16.24,26.116C183.452,207.8,179.512,214.5,179.512,214.5Z" transform="translate(-26.042 -95.381)" fill="#ffc727"/><path d="M158.045,184.355c6.79.993,46.575-1.36,53.6-9.619,8.537-10,18.86-29.62,21.471-35.914,1.707-4.179-18.046-14.89-19.158-10.919-1.737,6.214-17.1,29.69-18.294,31.765s-18.86,8.15-29.154,13.291C157.281,177.565,153.26,183.63,158.045,184.355Z" transform="translate(-26.274 -95.049)" fill="#f7a9a0"/><path d="M214.16,128.56s2.243-8.259,3.971-13.589c.993-2.978,3.067-7.941,4.775-9.778,2.551-2.789,14.989-12.805,17.48-9.837,2.263,2.68-9.519,9.926-9.519,9.926s11.247-8.368,13.361-4.636S231.948,110.8,231.948,110.8s11.753-8.338,13.331-4.139c1.191,3.167-11.525,9.718-11.525,9.718s10.145-7.1,11.515-3.891c1.519,3.544-9.847,10.323-9.847,10.323,2.114,8.745-.457,13.768-2.71,17.123C232.157,140.74,214.16,128.56,214.16,128.56Z" transform="translate(-26.702 -94.812)" fill="#f7a9a0"/><path d="M226.87,107.94c1.29-.993,2.581-2.085,3.971-2.978s2.779-1.777,4.229-2.561a28.2,28.2,0,0,1,5.956-2.5,61.167,61.167,0,0,0-9.926,5.45c-1.37.9-2.779,1.747-4.149,2.66C226.87,108.04,226.84,107.99,226.87,107.94Z" transform="translate(-26.795 -94.849)" fill="#263238"/><path d="M230.1,113.029c1.7-1.251,3.335-2.541,5.092-3.712s3.5-2.114,5.321-3.157c.149-.079.139,0,0,.109-1.777,1.112-3.335,2.273-5.092,3.4s-3.574,2.2-5.291,3.395C230.1,113.088,230.08,113.049,230.1,113.029Z" transform="translate(-26.819 -94.895)" fill="#263238"/><path d="M232.09,117.872a47.319,47.319,0,0,1,8.229-5.082c.139-.069.119.06,0,.149-2.769,1.638-4.963,2.9-8.14,5.023C232.11,117.962,232,117.962,232.09,117.872Z" transform="translate(-26.834 -94.944)" fill="#263238"/><path d="M185.7,162.12l9.668,20.915s-23.943,6.412-35.417,4.874c-8.289-1.112-8.011-7.7,3.415-14.5C172.385,168.036,185.7,162.12,185.7,162.12Z" transform="translate(-26.261 -95.307)" fill="#ffc727"/><path d="M191.176,183.249a193.159,193.159,0,0,0-8.567-18.969c0-.079-.149,0-.109.06.774,1.5,5.033,12,8.547,18.969C191.086,183.388,191.205,183.329,191.176,183.249Z" transform="translate(-26.469 -95.323)" fill="#263238"/><path d="M175.059,187.43c-3.752.546-7.336,1.985-10.919,3.137a.079.079,0,0,0,.05.149c1.38-.4,2.789-.754,4.2-1.122-.645.387-1.271.8-1.916,1.181-.089,0,0,.179.079.129.993-.566,1.985-.993,2.978-1.618a45.659,45.659,0,0,0,5.549-1.777S175.118,187.42,175.059,187.43Z" transform="translate(-26.334 -95.494)" fill="#263238"/></g></g></g></svg>