<svg xmlns="http://www.w3.org/2000/svg" width="289.954" height="256.007" viewBox="0 0 289.954 256.007"><g transform="translate(191.215 -2507.92)"><g transform="translate(-191.215 2507.92)"><ellipse cx="49.485" cy="51.403" rx="49.485" ry="51.403" transform="translate(47.595 5.081)" fill="#263238"/><path d="M136.046,210.657a6.823,6.823,0,1,1-6.807-6.807A6.823,6.823,0,0,1,136.046,210.657Z" transform="translate(-62.662 -117.183)" fill="#263238"/><path d="M181.3,204.267a6.823,6.823,0,1,1-6.823-6.807,6.823,6.823,0,0,1,6.823,6.807Z" transform="translate(-35.609 -121.003)" fill="#263238"/><path d="M185.566,184.357a6.823,6.823,0,1,1-6.823-6.807,6.823,6.823,0,0,1,6.823,6.807Z" transform="translate(-33.056 -132.906)" fill="#263238"/><path d="M126.3,180.493a6.823,6.823,0,1,1-6.823-6.823A6.823,6.823,0,0,1,126.3,180.493Z" transform="translate(-68.491 -135.226)" fill="#263238"/><path d="M131.786,169a6.823,6.823,0,1,1-6.823-6.823A6.823,6.823,0,0,1,131.786,169Z" transform="translate(-65.208 -142.095)" fill="#263238"/><path d="M136.976,164.183a6.823,6.823,0,1,1-6.823-6.823,6.823,6.823,0,0,1,6.823,6.823Z" transform="translate(-62.106 -144.977)" fill="#263238"/><path d="M142.106,158.847a6.823,6.823,0,1,1-6.823-6.807,6.823,6.823,0,0,1,6.823,6.807Z" transform="translate(-59.039 -148.157)" fill="#263238"/><path d="M148.856,158.113a6.823,6.823,0,1,1-6.823-6.823A6.823,6.823,0,0,1,148.856,158.113Z" transform="translate(-55.003 -148.606)" fill="#263238"/><path d="M168.626,158.113a6.823,6.823,0,1,1-6.823-6.823A6.823,6.823,0,0,1,168.626,158.113Z" transform="translate(-43.184 -148.606)" fill="#263238"/><path d="M178.106,166.483a6.823,6.823,0,1,1-6.823-6.823,6.823,6.823,0,0,1,6.823,6.823Z" transform="translate(-37.516 -143.602)" fill="#263238"/><circle cx="6.823" cy="6.823" r="6.823" transform="translate(47.595 68.388)" fill="#263238"/><path d="M147.3,216.383a6.807,6.807,0,1,1-1.988-4.823,6.823,6.823,0,0,1,1.988,4.823Z" transform="translate(-55.936 -113.769)" fill="#263238"/><path d="M153.346,216.433a6.823,6.823,0,1,1-6.807-6.823,6.823,6.823,0,0,1,6.807,6.823Z" transform="translate(-52.319 -113.739)" fill="#263238"/><path d="M126.3,192.983a6.823,6.823,0,1,1-6.823-6.823,6.823,6.823,0,0,1,6.823,6.823Z" transform="translate(-68.491 -127.759)" fill="#263238"/><circle cx="6.184" cy="6.184" r="6.184" transform="translate(52.868 79.03)" fill="#263238"/><path d="M154.639,155.794a6.2,6.2,0,1,1-6.184-6.184A6.2,6.2,0,0,1,154.639,155.794Z" transform="translate(-50.8 -149.61)" fill="#263238"/><path d="M125.439,186.53a6.2,6.2,0,1,1-6.2-6.2A6.2,6.2,0,0,1,125.439,186.53Z" transform="translate(-68.257 -131.244)" fill="#263238"/><circle cx="6.184" cy="6.184" r="6.184" transform="translate(48.234 29.704)" fill="#263238"/><circle cx="6.184" cy="6.184" r="6.184" transform="translate(101.554 0.735)" fill="#263238"/><path d="M140.859,213.77a6.184,6.184,0,1,1-1.806-4.383,6.2,6.2,0,0,1,1.806,4.383Z" transform="translate(-59.039 -114.959)" fill="#263238"/><path d="M158.549,217.634a6.2,6.2,0,1,1-6.2-6.184,6.2,6.2,0,0,1,6.2,6.184Z" transform="translate(-48.463 -112.639)" fill="#263238"/><circle cx="6.184" cy="6.184" r="6.184" transform="translate(108.776 96.51)" fill="#263238"/><circle cx="6.184" cy="6.184" r="6.184" transform="translate(117.5 90.31)" fill="#263238"/><path d="M177.219,209.64a6.2,6.2,0,1,1-6.2-6.2,6.2,6.2,0,0,1,6.2,6.2Z" transform="translate(-37.301 -117.428)" fill="#263238"/><path d="M184.089,198.58a6.184,6.184,0,1,1-1.805-4.383A6.2,6.2,0,0,1,184.089,198.58Z" transform="translate(-33.194 -124.04)" fill="#263238"/><path d="M184.089,191.414a6.2,6.2,0,1,1-6.184-6.184A6.2,6.2,0,0,1,184.089,191.414Z" transform="translate(-33.194 -128.315)" fill="#263238"/><path d="M173.339,160.63a6.184,6.184,0,1,1-1.805-4.383A6.2,6.2,0,0,1,173.339,160.63Z" transform="translate(-39.621 -146.728)" fill="#263238"/><circle cx="6.184" cy="6.184" r="6.184" transform="translate(135.7 24.607)" fill="#263238"/><circle cx="6.184" cy="6.184" r="6.184" transform="translate(137.058 34.418)" fill="#263238"/><path d="M145.542,255.959c9.891,13.054,63.738,54.934,110.347,55.765,15.835.272,62.092-65.8,71.088-91.221,6.391-18.231-32.4-28.873-43.557-26.588-13.917,2.86-38.268,59.472-48.143,60.095-15.835,1.007-45.778-9.188-78.838-14.892C139.423,236.162,137.921,245.925,145.542,255.959Z" transform="translate(-51.45 -123.306)" fill="#774442"/><path d="M274.183,241.752c2.732-5.465,13.022-31.573,14.269-39.483s3.2-30.934-2.812-32.5-7.062,5.129-7.062,5.129-.735-9.843-6.887-10.881-7.51,9.443-7.51,9.443-1.486-10.05-7.686-10.642S250.679,173,250.679,173s-.927-9.267-6.248-7.59c-6.391,2-2.732,18.887-4.794,27.515-.463,1.949-12.128,39.051-12.128,39.051Z" transform="translate(0.178 -141.727)" fill="#774442"/><path d="M243,168.8c2.652,12.415,1.6,18.311-2.652,30.055-.08.224.24.4.352.176,5.273-11.185,7.574-18.327,2.892-30.359C243.365,168.046,242.869,168.205,243,168.8Z" transform="translate(7.843 -138.454)" fill="#263238"/><path d="M251.444,169.023c1.6,13.134.607,19.542-3,32.165a.176.176,0,0,0,.32.112c4.586-12.1,6.711-19.334,3.356-32.261C251.971,168.464,251.364,168.416,251.444,169.023Z" transform="translate(12.691 -138.265)" fill="#263238"/><path d="M261.308,170.994c.655,12.783-.16,19.893-5.241,31.7a.24.24,0,0,0,.431.208c6.391-11.52,7.43-20.341,5.193-31.957C261.548,170.227,261.26,170.179,261.308,170.994Z" transform="translate(17.239 -137.184)" fill="#263238"/><path d="M222.367,229.265s-1.246-15.867-.24-22.945,14.381-32.149,20.005-29.56c7.206,3.355,2.285,19.35-1.134,26.86,0,0,16.665,7.734,15.627,19.973S222.367,229.265,222.367,229.265Z" transform="translate(-3.275 -133.49)" fill="#774442"/><path d="M236.9,177.7c4.362,7.782-.783,17.369-3.547,24.91a.719.719,0,0,0,.639,1.007c6.759,3.723,15.227,10.913,16.106,19.014a.192.192,0,1,0,.368,0c.24-8.8-7.494-16.554-15.164-20.149,2.972-7.686,7.7-17.576,1.6-24.815C236.932,177.609,236.868,177.641,236.9,177.7Z" transform="translate(3.635 -132.853)" fill="#263238"/><path d="M252.531,215.57l55.158,36.239s-29.672,44.644-47.216,48.479S185.789,281.9,156.612,255.42s-17.944-35.712,13.262-28.41,61.245,13.438,66.135,11.185S252.531,215.57,252.531,215.57Z" transform="translate(-52.326 -110.176)" fill="#ffc727"/><path d="M150.363,242.862a8.756,8.756,0,0,1,0-6.072A9,9,0,0,1,150.363,242.862Z" transform="translate(-46.269 -97.49)" fill="#fff"/><path d="M178.077,255.608a9.044,9.044,0,0,1,0-6.088A8.8,8.8,0,0,1,178.077,255.608Z" transform="translate(-29.691 -89.879)" fill="#fff"/><path d="M195.677,240.5a9,9,0,0,1,0-6.072A8.756,8.756,0,0,1,195.677,240.5Z" transform="translate(-19.169 -98.901)" fill="#fff"/><path d="M218.2,227.278a9.044,9.044,0,0,1,0-6.088,8.2,8.2,0,0,1,.543,3.036A8.548,8.548,0,0,1,218.2,227.278Z" transform="translate(-5.705 -106.816)" fill="#fff"/><path d="M215.774,257.5a8.468,8.468,0,0,1-.543-3.036,8.084,8.084,0,0,1,.543-3.036,9,9,0,0,1,0,6.072Z" transform="translate(-7.164 -88.737)" fill="#fff"/><path d="M237.417,249.218a9.044,9.044,0,0,1,0-6.088A9.044,9.044,0,0,1,237.417,249.218Z" transform="translate(5.786 -93.699)" fill="#fff"/><path d="M152.08,223.907a9.043,9.043,0,0,1,6.088,0A8.8,8.8,0,0,1,152.08,223.907Z" transform="translate(-44.918 -105.507)" fill="#fff"/><path d="M167,241.807a9.044,9.044,0,0,1,6.088,0A9.044,9.044,0,0,1,167,241.807Z" transform="translate(-35.998 -94.806)" fill="#fff"/><path d="M213.33,264.527a9.044,9.044,0,0,1,6.088,0A8.805,8.805,0,0,1,213.33,264.527Z" transform="translate(-8.3 -81.223)" fill="#fff"/><path d="M192,250.527a9.044,9.044,0,0,1,6.088,0,8.8,8.8,0,0,1-6.088,0Z" transform="translate(-21.052 -89.592)" fill="#fff"/><path d="M223.87,246.253a8.8,8.8,0,0,1,6.088,0,9.044,9.044,0,0,1-6.088,0Z" transform="translate(-1.998 -92.157)" fill="#fff"/><path d="M206.68,230.773a8.756,8.756,0,0,1,6.072,0A9,9,0,0,1,206.68,230.773Z" transform="translate(-12.275 -101.412)" fill="#fff"/><path d="M207.284,260.458a8.322,8.322,0,0,1-2.541-1.774,8.452,8.452,0,0,1-1.774-2.525,8.9,8.9,0,0,1,4.314,4.3Z" transform="translate(-14.493 -85.91)" fill="#fff"/><path d="M220.928,239.738a7.989,7.989,0,0,1-2.525-1.774,7.812,7.812,0,0,1-1.774-2.525,8.179,8.179,0,0,1,2.525,1.774A8.453,8.453,0,0,1,220.928,239.738Z" transform="translate(-6.327 -98.297)" fill="#fff"/><path d="M192.808,263.188a8.182,8.182,0,0,1-2.525-1.774,7.813,7.813,0,0,1-1.774-2.525,8.453,8.453,0,0,1,2.525,1.774A8.18,8.18,0,0,1,192.808,263.188Z" transform="translate(-23.138 -84.277)" fill="#fff"/><path d="M176.878,233.858a8.453,8.453,0,0,1-2.525-1.774,8.18,8.18,0,0,1-1.774-2.525,8.182,8.182,0,0,1,2.525,1.774A7.989,7.989,0,0,1,176.878,233.858Z" transform="translate(-32.662 -101.812)" fill="#fff"/><path d="M146.338,234.358a8.181,8.181,0,0,1-2.525-1.774,7.99,7.99,0,0,1-1.774-2.525,7.814,7.814,0,0,1,2.525,1.774,8.181,8.181,0,0,1,1.774,2.525Z" transform="translate(-50.92 -101.513)" fill="#fff"/><path d="M185.518,238.79a8.212,8.212,0,0,1-1.758,2.525,7.99,7.99,0,0,1-2.541,1.774A8.963,8.963,0,0,1,185.518,238.79Z" transform="translate(-27.496 -96.294)" fill="#fff"/><path d="M230.078,254.81a8.455,8.455,0,0,1-1.774,2.525,8.182,8.182,0,0,1-2.525,1.773,8.964,8.964,0,0,1,4.3-4.3Z" transform="translate(-0.856 -86.717)" fill="#fff"/><path d="M163.8,232.75a7.813,7.813,0,0,1-1.774,2.525,7.988,7.988,0,0,1-2.525,1.774,8.182,8.182,0,0,1,1.774-2.525,8.453,8.453,0,0,1,2.525-1.774Z" transform="translate(-40.482 -99.905)" fill="#fff"/><path d="M209.608,243.69a8.964,8.964,0,0,1-4.3,4.3A8.964,8.964,0,0,1,209.608,243.69Z" transform="translate(-13.094 -93.365)" fill="#fff"/><path d="M232.768,232.27a8.964,8.964,0,0,1-4.3,4.3,7.988,7.988,0,0,1,1.774-2.525A8.18,8.18,0,0,1,232.768,232.27Z" transform="translate(0.752 -100.192)" fill="#fff"/><path d="M203.2,266.18a5.8,5.8,0,0,1-1.039,1.678l-1.071-.288a7.987,7.987,0,0,1,2.109-1.39Z" transform="translate(-15.617 -79.919)" fill="#fff"/><path d="M235.19,293.745c-24.607-6.983-58.321-23.313-78.55-41.7-27.994-25.438-18.775-34.961,9.587-29.193Z" transform="translate(-52.306 -106.798)" opacity="0.1"/><path d="M256.845,255.434c-5.944-4.6-12.271-8.772-18.5-12.99s-12.479-8.2-18.823-12.144c-3.675-2.269-7.414-4.458-11.073-6.743-.112-.08-.256.128-.128.208,6.28,4.138,12.415,8.516,18.663,12.783s12.463,8.261,18.727,12.3c3.627,2.349,7.238,4.794,10.961,6.935C256.829,255.817,256.989,255.562,256.845,255.434Z" transform="translate(-11.326 -105.412)" fill="#263238"/><path d="M143.127,238.611c.655,2.237,12.24,16.378,22.578,15.339,3.355-.352,2.3-18.791,2.3-18.791l.24-1.374,3.2-19.3-23.185-13.2-3.34-1.726s-.543,5.337-1.15,12v.943c0,.336-.1.735-.128,1.087-.1.991-.192,2.013-.272,3.02,0,.767-.144,1.518-.176,2.333s-.1,1.6-.16,2.413a128.3,128.3,0,0,0,.1,17.257Z" transform="translate(-50.473 -119.748)" fill="#774442"/><path d="M143.48,211.516a39.275,39.275,0,0,0,24.415,22.29l3.2-19.3-23.185-13.2-3.34-1.726S144.087,204.853,143.48,211.516Z" transform="translate(-50.059 -119.736)" fill="#263238"/><path d="M199.472,200.125c8.085,33.395-11.009,42.007-18.215,43.749-6.535,1.6-29,6.1-40.489-26.285s1.486-46.7,16.25-51.131S191.4,166.65,199.472,200.125Z" transform="translate(-54.313 -140.381)" fill="#774442"/><path d="M170.981,185.193a19.383,19.383,0,0,1-2.365-.1,3.85,3.85,0,0,1-2.413-.559,1.23,1.23,0,0,1-.24-1.47,3.02,3.02,0,0,1,2.828-1.2,4.506,4.506,0,0,1,3.02,1.087,1.31,1.31,0,0,1-.831,2.237Z" transform="translate(-36.703 -130.339)" fill="#263238"/><path d="M155.617,188.56a21.736,21.736,0,0,0,2.205-.863,3.771,3.771,0,0,0,2.077-1.31,1.214,1.214,0,0,0-.24-1.47,3.052,3.052,0,0,0-3.068-.208,4.458,4.458,0,0,0-2.493,2.013,1.31,1.31,0,0,0,1.518,1.837Z" transform="translate(-43.789 -128.816)" fill="#263238"/><path d="M159.252,191.57s-.16.144-.144.24c.511,2.285.719,4.985-1.2,6.152v.128C160.419,197.242,160.1,193.663,159.252,191.57Z" transform="translate(-41.432 -124.524)" fill="#263238"/><path d="M158.038,190.325c-3.739.431-2.6,7.893.879,7.494S161.186,189.957,158.038,190.325Z" transform="translate(-42.743 -125.277)" fill="#263238"/><path d="M157.941,190.736c-.575.511-1.1,1.358-1.885,1.6s-1.694-.447-2.413-1.1c0,0-.128,0-.112.112.208,1.422.975,2.812,2.541,2.8s2.237-1.438,2.381-2.94C158.468,190.88,158.18,190.512,157.941,190.736Z" transform="translate(-44.051 -125.064)" fill="#263238"/><path d="M167.154,189.71c0-.1.192.08.208.176.256,2.333.943,4.953,3.2,5.417a.064.064,0,0,1,0,.128C167.905,195.447,167.027,191.947,167.154,189.71Z" transform="translate(-35.913 -125.653)" fill="#263238"/><path d="M168.882,188.024c3.691-.831,5.065,6.6,1.6,7.366S165.8,188.711,168.882,188.024Z" transform="translate(-35.93 -126.683)" fill="#263238"/><path d="M169.382,188.521c.655.288,1.374.895,2.077.815s1.278-1.007,1.6-1.885h.144c.288,1.422.1,2.988-1.214,3.5s-2.333-.559-2.94-1.917C168.982,188.84,169.11,188.409,169.382,188.521Z" transform="translate(-34.784 -126.988)" fill="#263238"/><path d="M160.711,202.889c.623.5,1.246,1.182,2.109,1.166a6.073,6.073,0,0,0,2.429-.863c.08,0,.16,0,.112.112a3.2,3.2,0,0,1-2.812,1.6,2.493,2.493,0,0,1-2.045-1.822C160.455,202.889,160.615,202.825,160.711,202.889Z" transform="translate(-39.887 -117.772)" fill="#263238"/><path d="M168.666,204.994s1.039,3.371,1.31,5c0,.16-.352.288-.895.415h0a7.861,7.861,0,0,1-7.989-1.6c-.144-.128,0-.336.208-.256a11.888,11.888,0,0,0,7.382.863c0-.479-1.981-5.72-1.726-5.784a13.984,13.984,0,0,1,3.835.24c-1.965-7.094-5.065-13.789-6.919-20.868,0-.256.288-.4.4-.176,3.739,6.791,6.184,14.892,8.421,22.146C172.916,205.84,169.369,205.169,168.666,204.994Z" transform="translate(-39.565 -129.815)" fill="#263238"/><path d="M168.864,200.216a9.7,9.7,0,0,1-3.2,3.675,4.3,4.3,0,0,1-2.541.671c-1.949-.128-2.349-1.822-2.285-3.339a10.226,10.226,0,0,1,.383-2.413A12.3,12.3,0,0,0,168.864,200.216Z" transform="translate(-39.683 -120.196)" fill="#263238"/><path d="M165.678,203.02a4.3,4.3,0,0,1-2.541.671c-1.949-.128-2.349-1.822-2.285-3.339A4.458,4.458,0,0,1,165.678,203.02Z" transform="translate(-39.677 -119.309)" fill="#ff99ba"/><path d="M143.525,218.091c6.136,2.173,2.956-7.909,2.956-7.909s5.033-3.355,1.981-10.5c0,0,7.286,1.742,7.526-8.469,0,0,6.152-.815,5.321-7.829,0,0,8.692,4.266,11.728-3.819,0,0,6.487,6.471,10.993-.5,0,0,2.716,4.554,7.51,2.7,0,0,1.1,4.889,4.794,6.248,0,0-12.08-34.881-43.429-20.772C124,180.286,136.431,215.582,143.525,218.091Z" transform="translate(-55.313 -141.075)" fill="#263238"/><path d="M161.584,207.5a10.578,10.578,0,1,1,8.8-14.2h0a10.594,10.594,0,0,1-6.248,13.6,11.029,11.029,0,0,1-2.557.607Zm-2.093-19.654a9.124,9.124,0,1,0,9.991,7.5A9.045,9.045,0,0,0,159.491,187.851Z" transform="translate(-46.225 -127.612)" fill="#ffc727"/><path d="M175.631,204c-4.027.431-8.117-3.308-9.347-8.692a12.783,12.783,0,0,1,.543-7.718,6.6,6.6,0,0,1,11.009-2.493,12.607,12.607,0,0,1,3.819,6.727c1.294,5.688-1.1,11.1-5.337,12.064Zm-3.2-19.462h-.543a5.672,5.672,0,0,0-3.8,3.531,11.185,11.185,0,0,0-.463,6.839c1.118,4.937,4.794,8.309,8.325,7.51s5.385-5.433,4.282-10.354a11.361,11.361,0,0,0-3.371-5.976,5.768,5.768,0,0,0-4.346-1.534Z" transform="translate(-36.64 -129.602)" fill="#ffc727"/><path d="M163.071,192.911,162,192.1c1.262-1.6,4.49-4.266,7.622-2.141l-.8,1.182C165.963,189.188,163.2,192.767,163.071,192.911Z" transform="translate(-38.987 -125.961)" fill="#ffc727"/><path d="M136.114,203.909l-1.374-.352c.176-.639,1.71-6.279,4.682-7.478s19.542-3.483,20.341-3.579l.176,1.406c-5.417.687-17.848,2.62-19.989,3.5S136.514,202.375,136.114,203.909Z" transform="translate(-55.284 -123.968)" fill="#ffc727"/><path d="M147.4,200.1s-9.028-9.475-13.438-6.1,3.5,17.9,9.459,19.174a5.816,5.816,0,0,0,7.238-4.25Z" transform="translate(-56.517 -123.51)" fill="#774442"/><path d="M135.027,196.294c-.1,0-.1.128,0,.16,4.2.991,6.839,4.346,8.884,7.989a3.2,3.2,0,0,0-4.873-.144c-.1,0,0,.24.128.192a3.563,3.563,0,0,1,4.075.639,16.825,16.825,0,0,1,2.349,2.86c.24.336.847,0,.655-.336v-.1C145.461,202.446,140.46,195.975,135.027,196.294Z" transform="translate(-55.156 -121.707)" fill="#263238"/><path d="M230.816,365.928l-7.031-48.255s8.948-15.227,6.1-29.049-27.259-47.2-34.833-56.851c0,0-1.742-10.626-2.141-11.441s-33.81-5.145-34.609-4.346-.559,12.048-2.253,13.454a43.14,43.14,0,0,0-3.2,3.2C131.35,256,113.917,333.38,107.35,365.944Z" transform="translate(-71.659 -109.986)" fill="#ffc727"/><path d="M157.367,267.668a9.044,9.044,0,0,1,0-6.088A9.043,9.043,0,0,1,157.367,267.668Z" transform="translate(-42.072 -82.669)" fill="#fff"/><path d="M168.457,289.378a9.044,9.044,0,0,1,0-6.088A8.8,8.8,0,0,1,168.457,289.378Z" transform="translate(-35.442 -69.69)" fill="#fff"/><path d="M140.517,290.108a9.044,9.044,0,0,1,0-6.088,7.829,7.829,0,0,1,.543,3.036A8.549,8.549,0,0,1,140.517,290.108Z" transform="translate(-52.146 -69.254)" fill="#fff"/><path d="M155.15,312.032a8.708,8.708,0,0,0,.511-2.94,8.55,8.55,0,0,0-.543-3.052,8.2,8.2,0,0,0-.527,3.052,8.308,8.308,0,0,0,.5,2.94Z" transform="translate(-43.418 -56.089)" fill="#fff"/><path d="M150.363,242.862a8.756,8.756,0,0,1,0-6.072A9,9,0,0,1,150.363,242.862Z" transform="translate(-46.269 -97.49)" fill="#fff"/><path d="M132.867,264.372a9,9,0,0,1,0-6.072A8.756,8.756,0,0,1,132.867,264.372Z" transform="translate(-56.719 -84.63)" fill="#fff"/><path d="M114.827,299.1a9,9,0,0,1,0-6.072,7.829,7.829,0,0,1,.543,3.036,8.469,8.469,0,0,1-.543,3.036Z" transform="translate(-67.504 -63.867)" fill="#fff"/><path d="M178.077,255.608a9.044,9.044,0,0,1,0-6.088A8.8,8.8,0,0,1,178.077,255.608Z" transform="translate(-29.691 -89.879)" fill="#fff"/><path d="M143.39,257.137a9,9,0,0,1,6.072,0,8.755,8.755,0,0,1-6.072,0Z" transform="translate(-50.113 -85.641)" fill="#fff"/><path d="M141.48,299.517a9.044,9.044,0,0,1,6.088,0,8.8,8.8,0,0,1-6.088,0Z" transform="translate(-51.255 -60.304)" fill="#fff"/><path d="M175.42,264.527a9.044,9.044,0,0,1,6.088,0,8.805,8.805,0,0,1-6.088,0Z" transform="translate(-30.964 -81.223)" fill="#fff"/><path d="M128.55,241.358a9,9,0,0,1,6.072,0,8.756,8.756,0,0,1-6.072,0Z" transform="translate(-58.985 -95.075)" fill="#fff"/><path d="M128.41,274.2a9.044,9.044,0,0,1,6.088,0A8.8,8.8,0,0,1,128.41,274.2Z" transform="translate(-59.069 -75.441)" fill="#fff"/><path d="M115.13,307.807a9,9,0,0,1,6.072,0,7.782,7.782,0,0,1-3.036.543A8.47,8.47,0,0,1,115.13,307.807Z" transform="translate(-67.008 -55.348)" fill="#fff"/><path d="M167,241.807a9.044,9.044,0,0,1,6.088,0A9.044,9.044,0,0,1,167,241.807Z" transform="translate(-35.998 -94.806)" fill="#fff"/><path d="M154.59,277.274a8.467,8.467,0,0,1,3.036-.543,7.781,7.781,0,0,1,3.036.543,9,9,0,0,1-6.072,0Z" transform="translate(-43.417 -73.613)" fill="#fff"/><path d="M166,299.863a8.8,8.8,0,0,1,6.088,0A9.043,9.043,0,0,1,166,299.863Z" transform="translate(-36.596 -60.106)" fill="#fff"/><path d="M119.988,284.608a7.815,7.815,0,0,1-2.525-1.774,8.182,8.182,0,0,1-1.774-2.525,8.182,8.182,0,0,1,2.525,1.773A8.453,8.453,0,0,1,119.988,284.608Z" transform="translate(-66.673 -71.472)" fill="#fff"/><path d="M147.688,273.608a8.964,8.964,0,0,1-4.3-4.3,8.182,8.182,0,0,1,2.525,1.774,8.453,8.453,0,0,1,1.774,2.525Z" transform="translate(-50.113 -78.048)" fill="#fff"/><path d="M132.458,302.608a8.964,8.964,0,0,1-4.3-4.3,7.814,7.814,0,0,1,2.525,1.774A8.18,8.18,0,0,1,132.458,302.608Z" transform="translate(-59.218 -60.71)" fill="#fff"/><path d="M128.418,254.378a8.18,8.18,0,0,1-2.525-1.774,7.989,7.989,0,0,1-1.774-2.525,7.812,7.812,0,0,1,2.525,1.774,8.181,8.181,0,0,1,1.774,2.525Z" transform="translate(-61.633 -89.544)" fill="#fff"/><path d="M160.134,252.108a7.989,7.989,0,0,1-2.541-1.774,8.261,8.261,0,0,1-1.774-2.525,7.988,7.988,0,0,1,2.541,1.774,8.452,8.452,0,0,1,1.774,2.525Z" transform="translate(-42.682 -90.902)" fill="#fff"/><path d="M181.168,295.994a8.454,8.454,0,0,1-2.525-1.774,8.325,8.325,0,0,1-1.774-2.54,8.74,8.74,0,0,1,4.3,4.314Z" transform="translate(-30.097 -64.674)" fill="#fff"/><path d="M146.338,234.358a8.181,8.181,0,0,1-2.525-1.774,7.99,7.99,0,0,1-1.774-2.525,7.814,7.814,0,0,1,2.525,1.774,8.181,8.181,0,0,1,1.774,2.525Z" transform="translate(-50.92 -101.513)" fill="#fff"/><path d="M171.428,274.3a7.99,7.99,0,0,1-2.525-1.774A7.813,7.813,0,0,1,167.13,270a8.184,8.184,0,0,1,2.525,1.774A8.453,8.453,0,0,1,171.428,274.3Z" transform="translate(-35.92 -77.635)" fill="#fff"/><path d="M171.428,254.81a8.453,8.453,0,0,1-1.774,2.525,8.182,8.182,0,0,1-2.525,1.773,8.183,8.183,0,0,1,1.774-2.525A7.989,7.989,0,0,1,171.428,254.81Z" transform="translate(-35.92 -86.717)" fill="#fff"/><path d="M129.768,286.48A8.452,8.452,0,0,1,127.995,289a8.183,8.183,0,0,1-2.525,1.774,8.18,8.18,0,0,1,1.774-2.525A7.99,7.99,0,0,1,129.768,286.48Z" transform="translate(-60.826 -67.783)" fill="#fff"/><path d="M182.194,278.93a7.988,7.988,0,0,1-1.774,2.525,7.813,7.813,0,0,1-2.541,1.774,8.452,8.452,0,0,1,1.79-2.589,8.325,8.325,0,0,1,2.525-1.71Z" transform="translate(-29.493 -72.297)" fill="#fff"/><path d="M143.278,247.05a8.964,8.964,0,0,1-4.3,4.3,7.989,7.989,0,0,1,1.774-2.525,8.181,8.181,0,0,1,2.525-1.774Z" transform="translate(-52.749 -91.356)" fill="#fff"/><path d="M157.538,291.68a8.9,8.9,0,0,1-4.3,4.314,8.325,8.325,0,0,1,1.774-2.541A8.454,8.454,0,0,1,157.538,291.68Z" transform="translate(-44.224 -64.674)" fill="#fff"/><path d="M181.608,306a8.324,8.324,0,0,1-1.774,2.541,8.453,8.453,0,0,1-2.525,1.774,7.991,7.991,0,0,1,1.774-2.541A8.262,8.262,0,0,1,181.608,306Z" transform="translate(-29.834 -56.113)" fill="#fff"/><path d="M123.534,265.54a8.452,8.452,0,0,1-1.774,2.525,7.99,7.99,0,0,1-2.541,1.774,8.9,8.9,0,0,1,4.314-4.3Z" transform="translate(-64.563 -80.302)" fill="#fff"/><path d="M163.8,232.75a7.813,7.813,0,0,1-1.774,2.525,7.988,7.988,0,0,1-2.525,1.774,8.182,8.182,0,0,1,1.774-2.525,8.453,8.453,0,0,1,2.525-1.774Z" transform="translate(-40.482 -99.905)" fill="#fff"/><g transform="translate(89.239 108.717)" opacity="0.1"><path d="M141.162,226.694a24.15,24.15,0,0,1-.288-4.538,22.786,22.786,0,0,1,.511-4.506,23.968,23.968,0,0,1,.288,4.522A22.8,22.8,0,0,1,141.162,226.694Z" transform="translate(-140.863 -217.65)"/><path d="M144.92,227.114a26.331,26.331,0,0,1,.208-9.044,22.9,22.9,0,0,1,.3,4.538A23.971,23.971,0,0,1,144.92,227.114Z" transform="translate(-138.613 -217.399)"/><path d="M148.688,227.544a22.813,22.813,0,0,1-.3-4.538,23.97,23.97,0,0,1,.511-4.506,22.721,22.721,0,0,1,.288,4.522,23.969,23.969,0,0,1-.5,4.522Z" transform="translate(-136.373 -217.142)"/><path d="M152.432,227.958a23.973,23.973,0,0,1-.288-4.522,22.644,22.644,0,0,1,.511-4.506,25.709,25.709,0,0,1-.224,9.028Z" transform="translate(-134.125 -216.885)"/><path d="M156.192,228.384a23.965,23.965,0,0,1-.288-4.522,22.8,22.8,0,0,1,.511-4.522,24.062,24.062,0,0,1,.288,4.538A22.782,22.782,0,0,1,156.192,228.384Z" transform="translate(-131.877 -216.64)"/><path d="M159.952,228.824a24.06,24.06,0,0,1-.288-4.538,22.788,22.788,0,0,1,.511-4.506,23.964,23.964,0,0,1,.288,4.522A22.8,22.8,0,0,1,159.952,228.824Z" transform="translate(-129.629 -216.377)"/></g><path d="M159.211,232.895c-24.543,24.383-71.663,76.617-73.373,102.262a77.464,77.464,0,0,0,3.739,26.668H150.95c-5.88-9.379-10.642-17.113-10.993-19.27-.943-5.992,24.319-58.082,37.438-84.366C193.932,224.97,180.079,212.171,159.211,232.895Z" transform="translate(-84.549 -105.818)" fill="#774442"/><path d="M155.761,235.069c-23.872,22.658-61.98,72.143-69.57,94.4-2.573,7.51-.575,20.468,2.589,32.948h67.94c-4.266-6.12-13.374-19.59-12.927-22.657s24.639-56.548,37.39-82.752C194.3,230.036,186.551,205.844,155.761,235.069Z" transform="translate(-85.013 -106.474)" fill="#ffc727"/><path d="M133.724,233.272a8.4,8.4,0,0,1-.543-3.036,8.134,8.134,0,0,1,.543-3.036,9,9,0,0,1,0,6.072Z" transform="translate(-56.217 -103.223)" fill="#fff"/><path d="M132.867,264.372a9,9,0,0,1,0-6.072A8.756,8.756,0,0,1,132.867,264.372Z" transform="translate(-56.719 -84.63)" fill="#fff"/><path d="M110.434,277.368a8.548,8.548,0,0,1-.543-3.052,7.829,7.829,0,0,1,.543-3.036A9.044,9.044,0,0,1,110.434,277.368Z" transform="translate(-70.141 -76.87)" fill="#fff"/><path d="M114.827,299.1a9,9,0,0,1,0-6.072,7.829,7.829,0,0,1,.543,3.036,8.469,8.469,0,0,1-.543,3.036Z" transform="translate(-67.504 -63.867)" fill="#fff"/><path d="M91.924,290.652a8.469,8.469,0,0,1-.543-3.036,7.83,7.83,0,0,1,.543-3.036A9,9,0,0,1,91.924,290.652Z" transform="translate(-81.207 -68.919)" fill="#fff"/><path d="M128.55,241.358a9,9,0,0,1,6.072,0,8.756,8.756,0,0,1-6.072,0Z" transform="translate(-58.985 -95.075)" fill="#fff"/><path d="M128.41,274.2a9.044,9.044,0,0,1,6.088,0A8.8,8.8,0,0,1,128.41,274.2Z" transform="translate(-59.069 -75.441)" fill="#fff"/><path d="M105,287.3a8.8,8.8,0,0,1,6.088,0A9.045,9.045,0,0,1,105,287.3Z" transform="translate(-73.064 -67.615)" fill="#fff"/><path d="M86.93,301.2a9.043,9.043,0,0,1,6.088,0A8.8,8.8,0,0,1,86.93,301.2Z" transform="translate(-83.867 -59.3)" fill="#fff"/><path d="M112.73,258.5a8.8,8.8,0,0,1,6.088,0A9.043,9.043,0,0,1,112.73,258.5Z" transform="translate(-68.443 -84.833)" fill="#fff"/><path d="M115.13,307.807a9,9,0,0,1,6.072,0,7.782,7.782,0,0,1-3.036.543A8.47,8.47,0,0,1,115.13,307.807Z" transform="translate(-67.008 -55.348)" fill="#fff"/><path d="M119.988,284.608a7.815,7.815,0,0,1-2.525-1.774,8.182,8.182,0,0,1-1.774-2.525,8.182,8.182,0,0,1,2.525,1.773A8.453,8.453,0,0,1,119.988,284.608Z" transform="translate(-66.673 -71.472)" fill="#fff"/><path d="M101.778,297.346a8.181,8.181,0,0,1-2.525-1.774A7.989,7.989,0,0,1,97.48,293a8.964,8.964,0,0,1,4.3,4.3Z" transform="translate(-77.56 -63.885)" fill="#fff"/><path d="M106.674,266.438a7.99,7.99,0,0,1-2.541-1.774,8.26,8.26,0,0,1-1.774-2.525,7.987,7.987,0,0,1,2.541,1.774,8.453,8.453,0,0,1,1.774,2.525Z" transform="translate(-74.642 -82.334)" fill="#fff"/><path d="M128.418,254.378a8.18,8.18,0,0,1-2.525-1.774,7.989,7.989,0,0,1-1.774-2.525,7.812,7.812,0,0,1,2.525,1.774,8.181,8.181,0,0,1,1.774,2.525Z" transform="translate(-61.633 -89.544)" fill="#fff"/><path d="M146.338,234.358a8.181,8.181,0,0,1-2.525-1.774,7.99,7.99,0,0,1-1.774-2.525,7.814,7.814,0,0,1,2.525,1.774,8.181,8.181,0,0,1,1.774,2.525Z" transform="translate(-50.92 -101.513)" fill="#fff"/><path d="M103.968,277.59a8.4,8.4,0,0,1-1.758,2.525,7.99,7.99,0,0,1-2.541,1.774,7.989,7.989,0,0,1,1.774-2.525A8.18,8.18,0,0,1,103.968,277.59Z" transform="translate(-76.251 -73.098)" fill="#fff"/><path d="M108.518,301.47a7.989,7.989,0,0,1-1.774,2.525,8.181,8.181,0,0,1-2.525,1.774,8.133,8.133,0,0,1,1.758-2.525A8.325,8.325,0,0,1,108.518,301.47Z" transform="translate(-73.53 -58.821)" fill="#fff"/><path d="M143.278,247.05a8.964,8.964,0,0,1-4.3,4.3,7.989,7.989,0,0,1,1.774-2.525,8.181,8.181,0,0,1,2.525-1.774Z" transform="translate(-52.749 -91.356)" fill="#fff"/><path d="M123.534,265.54a8.452,8.452,0,0,1-1.774,2.525,7.99,7.99,0,0,1-2.541,1.774,8.9,8.9,0,0,1,4.314-4.3Z" transform="translate(-64.563 -80.302)" fill="#fff"/><path d="M121.346,241.61a8.181,8.181,0,0,1-1.774,2.525A7.813,7.813,0,0,1,117,245.908a8.452,8.452,0,0,1,1.774-2.525A8.179,8.179,0,0,1,121.346,241.61Z" transform="translate(-65.89 -94.608)" fill="#fff"/><path d="M135.676,342.862c-3.963-6.519-12.783-21.267-12.879-21.875,0-1.6,2.78-7.414,3.467-8.9q8.5-18.167,16.7-36.463c.463-1.039.911-2.093,1.374-3.2,1.2-1.486,2.285-3.068,3.324-4.634a52.407,52.407,0,0,0,3.659-6.391c0-.144-.128-.24-.208-.112-1.406,2-2.748,4.043-4.09,6.072-.447.7-.911,1.406-1.374,2.109q3.2-7.366,6.311-14.78a.176.176,0,0,0-.3-.16c-6.216,12.271-12.08,24.7-17.832,37.2-2.892,6.28-5.736,12.575-8.58,18.887-.719,1.6-4.043,8.357-4.043,9.827,0,2.333,7.989,15.084,13.246,22.37Z" transform="translate(-63.379 -86.919)" fill="#263238"/><path d="M122.449,311.276c2.349-1.182,4.682-2.381,6.951-3.659.176-.1,0-.368-.144-.3-3.052,1.23-6.072,2.572-9.076,3.963Z" transform="translate(-63.989 -55.333)" fill="#263238"/></g></g></svg>