<svg xmlns="http://www.w3.org/2000/svg" width="350.729" height="466.783" viewBox="0 0 350.729 466.783"><path d="M313.049,352.209a9.189,9.189,0,1,1-9.189-9.189A9.189,9.189,0,0,1,313.049,352.209Z" transform="translate(-259.947 59.67)" fill="#ffc727" opacity="0.6"/><path d="M319.529,337.582a4.485,4.485,0,1,1-4.472-4.472A4.485,4.485,0,0,1,319.529,337.582Z" transform="translate(-255.242 56.736)" fill="#ffc727" opacity="0.6"/><path d="M471.3,347.7a4.485,4.485,0,1,1-4.485-4.485A4.485,4.485,0,0,1,471.3,347.7Z" transform="translate(-210.3 59.73)" fill="#ffc727" opacity="0.6"/><path d="M540.529,379.262a4.485,4.485,0,1,1-4.485-4.472,4.485,4.485,0,0,1,4.485,4.472Z" transform="translate(-189.8 69.078)" fill="#ffc727" opacity="0.6"/><path d="M611.74,435.6a5.353,5.353,0,0,1-5.34,5.34H273.22a5.34,5.34,0,0,1,0-10.68,5.778,5.778,0,0,1,1.3.143,10.537,10.537,0,0,1,18.068-7.362h.1c0-.648-.1-1.3-.1-1.97a19.908,19.908,0,0,1,28.592-17.9,14.257,14.257,0,0,1,27.452-4.316,19.883,19.883,0,0,1,16.85-9.293,20.432,20.432,0,0,1,3.811.363,26.058,26.058,0,0,1-.4-4.64,26.907,26.907,0,0,1,44.483-20.388,5.327,5.327,0,0,1,4.744-2.9,5.405,5.405,0,0,1,2.048.415l5-133.6h29.344l5,133.6a5.314,5.314,0,0,1,6.831,2.488,26.907,26.907,0,0,1,44.483,20.388,26.068,26.068,0,0,1-.4,4.64,20.393,20.393,0,0,1,3.8-.363,19.883,19.883,0,0,1,16.849,9.293,14.257,14.257,0,0,1,27.3,4.316,19.908,19.908,0,0,1,28.644,17.86,12.623,12.623,0,0,1-.1,1.97h.1a10.537,10.537,0,0,1,18.068,7.362,5.778,5.778,0,0,1,1.3-.142,5.34,5.34,0,0,1,5.366,5.379Z" transform="translate(-267.88 25.848)" fill="#ffc727" opacity="0.6"/><path d="M471.883,356.383l-6.921,1.27-1.555,7.31-1.542-7.31-6.934-1.283,6.9-1.685,1.581-6.9,1.581,6.9Z" transform="translate(-212.492 61.083)" fill="#fcfcfc"/><path d="M419.893,311.193l-6.934,1.283-1.542,7.3-1.542-7.3-6.934-1.283,6.9-1.685,1.581-6.908L413,309.508Z" transform="translate(-227.887 47.701)" fill="#fcfcfc"/><path d="M340.5,366.249l-3.875.713-.868,4.083-.855-4.083-3.875-.726,3.849-.933.881-3.862.881,3.862Z" transform="translate(-249.18 65.125)" fill="#fcfcfc"/><path d="M501.255,375.636l-3.875.713-.855,4.083-.868-4.083-3.875-.713,3.849-.946.894-3.849.881,3.849Z" transform="translate(-201.58 67.908)" fill="#fcfcfc"/><path d="M299.385,386.679l-3.862.713-.868,4.083-.868-4.083-3.875-.713,3.862-.946.881-3.862.881,3.862Z" transform="translate(-261.357 71.174)" fill="#fcfcfc"/><path d="M429.345,384.059l-3.875.713-.868,4.083-.856-4.083-3.875-.713,3.849-.946.881-3.862.881,3.862Z" transform="translate(-222.873 70.399)" fill="#fcfcfc"/><path d="M407.475,301.756l-3.875.713-.868,4.083-.868-4.083L398,301.756l3.849-.946.881-3.849.881,3.849Z" transform="translate(-229.349 46.031)" fill="#fcfcfc"/><path d="M506.39,381.35a1.128,1.128,0,1,0,1.007,1.121,1.128,1.128,0,0,0-1.007-1.121Z" transform="translate(-197.551 71.021)" fill="#fcfcfc"/><path d="M393.97,289.74a1.128,1.128,0,1,0,1.007,1.121,1.128,1.128,0,0,0-1.007-1.121Z" transform="translate(-230.841 43.893)" fill="#fcfcfc"/><path d="M320.09,385.58A1.128,1.128,0,1,0,321.1,386.7a1.127,1.127,0,0,0-1.007-1.121Z" transform="translate(-252.718 72.273)" fill="#fcfcfc"/><path d="M375.008,373.67a1.128,1.128,0,1,0,1.128,1.128A1.128,1.128,0,0,0,375.008,373.67Z" transform="translate(-236.492 68.746)" fill="#fcfcfc"/><path d="M484.641,365.78a.791.791,0,1,0,.791.791.791.791,0,0,0-.791-.791Z" transform="translate(-203.928 66.41)" fill="#fcfcfc"/><path d="M408.92,356.59a.8.8,0,1,0,.7.8A.8.8,0,0,0,408.92,356.59Z" transform="translate(-226.324 63.689)" fill="#fcfcfc"/><path d="M353.521,344.62a.791.791,0,1,0,.791.791.791.791,0,0,0-.791-.791Z" transform="translate(-242.755 60.144)" fill="#fcfcfc"/><path d="M448.642,347.12a2.152,2.152,0,1,0,2.152,2.152A2.152,2.152,0,0,0,448.642,347.12Z" transform="translate(-214.991 60.884)" fill="#fcfcfc"/><path d="M361.682,339a2.152,2.152,0,1,0,2.152,2.152A2.152,2.152,0,0,0,361.682,339Z" transform="translate(-240.741 58.48)" fill="#fcfcfc"/><path d="M371.742,147.32c-1.05,0-40.18,18.068-42.526,62.577-2.126,40.905,26.156,79.763,29.811,77.184,4.472-3.15-3.137-28.631,5.56-57.794,3.085-10.369,16.564-19.52,16.564-19.52Z" transform="translate(-249.751 1.72)" fill="#ffc727"/><path d="M377.135,209.752a62.008,62.008,0,0,0-10.719,9.721c-5.82-12.961-16.681-37.263-23.706-53,11.471-13.259,24.406-19.1,25-19.1Z" transform="translate(-245.722 1.735)" opacity="0.1"/><path d="M441.051,147.38c1.05,0,40.18,18.146,42.435,62.628,2.074,40.918-26.272,79.724-29.927,77.145-4.459-3.15,3.175-28.631-5.47-57.807-3.072-10.369-16.539-19.532-16.539-19.532Z" transform="translate(-219.415 1.738)" fill="#ffc727"/><path d="M466.169,166.682c-7.09,15.851-17.964,40.18-23.719,53.011a62.044,62.044,0,0,0-10.9-9.876l9.5-62.447C441.647,147.37,454.7,153.293,466.169,166.682Z" transform="translate(-219.415 1.735)" opacity="0.1"/><path d="M442.441,283.751H383.377S355.55,233.993,358.842,174.67c1.659-29.616,9.4-59.44,18.716-84.1,12.819-34.075,28.67-58.247,35.54-58.235s22.682,24.2,35.462,58.235c9.254,24.626,16.953,54.515,18.573,84.131C470.347,234.019,442.441,283.751,442.441,283.751Z" transform="translate(-241.025 -32.33)" fill="#ebebeb"/><path d="M443.41,144.028a34.075,34.075,0,1,1-34.049-34.088A34.075,34.075,0,0,1,443.41,144.028Z" transform="translate(-236.083 -9.348)" fill="#c7c7c7"/><path d="M442.48,141.348a34.075,34.075,0,1,1-34.049-34.088A34.075,34.075,0,0,1,442.48,141.348Z" transform="translate(-236.359 -10.142)" fill="#ffc727"/><path d="M429.646,138.948a23.628,23.628,0,1,1-23.628-23.628A23.628,23.628,0,0,1,429.646,138.948Z" transform="translate(-233.972 -7.755)" fill="#fff"/><path d="M425.7,134.982a23.525,23.525,0,0,1-1.607,8.567l-13.467,13.467a23.63,23.63,0,0,1-14.879.726l29.085-29.072A23.569,23.569,0,0,1,425.7,134.982Z" transform="translate(-230.016 -3.802)" fill="#ebebeb"/><path d="M409.492,115.57,382.649,142.4a23.323,23.323,0,0,1-.259-3.461,23.615,23.615,0,0,1,27.1-23.33Z" transform="translate(-233.972 -7.746)" fill="#ebebeb"/><path d="M424.332,125.135l-32.118,32.1a18.948,18.948,0,0,1-1.815-1.115l32.818-32.8C423.581,123.9,423.969,124.512,424.332,125.135Z" transform="translate(-231.6 -5.386)" fill="#ebebeb"/><path d="M444.224,90.565H373.21c12.819-34.075,28.67-58.247,35.54-58.235S431.445,56.528,444.224,90.565Z" transform="translate(-236.69 -32.33)" fill="#ffc727"/><path d="M383.556,72.035a1.983,1.983,0,1,1-.562-1.436A1.983,1.983,0,0,1,383.556,72.035Z" transform="translate(-234.801 -21.175)" fill="#fff"/><path d="M393.312,72.035a2,2,0,1,1-.566-1.432,2,2,0,0,1,.566,1.432Z" transform="translate(-231.92 -21.175)" fill="#fff"/><path d="M403.062,72.033a2,2,0,1,1-1.983-1.983A2,2,0,0,1,403.062,72.033Z" transform="translate(-229.033 -21.16)" fill="#fff"/><path d="M412.812,72.046a1.983,1.983,0,1,1-.581-1.415A2,2,0,0,1,412.812,72.046Z" transform="translate(-226.146 -21.16)" fill="#fff"/><path d="M422.552,72.043a2,2,0,1,1-1.983-1.983A2,2,0,0,1,422.552,72.043Z" transform="translate(-223.261 -21.158)" fill="#fff"/><path d="M383.5,219.726a2,2,0,1,1-1.983-2A2,2,0,0,1,383.5,219.726Z" transform="translate(-234.825 22.57)" fill="#c7c7c7"/><path d="M393.252,219.723a2,2,0,1,1-2-1.983,2,2,0,0,1,2,1.983Z" transform="translate(-231.938 22.573)" fill="#c7c7c7"/><path d="M403,219.736a2,2,0,1,1-2-2,2,2,0,0,1,2,2Z" transform="translate(-229.05 22.573)" fill="#c7c7c7"/><path d="M412.742,219.746a2,2,0,1,1-1.983-2,2,2,0,0,1,1.983,2Z" transform="translate(-226.166 22.576)" fill="#c7c7c7"/><path d="M422.492,219.743a2,2,0,1,1-1.983-1.983A2,2,0,0,1,422.492,219.743Z" transform="translate(-223.279 22.579)" fill="#c7c7c7"/><path d="M430.569,244.076l-48.047-.039L380.28,226.28l52.557.039Z" transform="translate(-234.597 25.102)" fill="#ffc727"/><path d="M432.835,226.319l-1.115,8.645-50.587-1.892-.843-6.792Z" transform="translate(-234.594 25.102)" opacity="0.1"/></svg>